<?xml version="1.0" encoding="utf-8"?>
<!-- Generator: Adobe Illustrator 25.0.1, SVG Export Plug-In . SVG Version: 6.00 Build 0)  -->
<svg version="1.1" id="Layer_1" xmlns="http://www.w3.org/2000/svg" xmlns:xlink="http://www.w3.org/1999/xlink" x="0px" y="0px"
	 viewBox="0 0 2178.3 1089.7" style="enable-background:new 0 0 2178.3 1089.7;" xml:space="preserve">
<style type="text/css">
	.st0{opacity:0.1;}
	.st1{fill:#724B5F;}
	.st2{fill:#075369;}
	.st3{fill:#D46940;}
	.st4{fill:#EAAB41;}
	.st5{fill:none;stroke:#724B5F;stroke-width:4.959;stroke-linecap:round;stroke-linejoin:round;stroke-miterlimit:10;}
	.st6{fill:none;stroke:#724B5F;stroke-width:3.957;stroke-linecap:round;stroke-linejoin:round;stroke-miterlimit:10;}
	.st7{opacity:0.11;}
	.st8{clip-path:url(#SVGID_2_);}
	.st9{fill:#FFFFFF;}
	.st10{clip-path:url(#SVGID_4_);}
	.st11{fill:none;stroke:#FFFFFF;stroke-width:1.655;stroke-linecap:round;stroke-linejoin:round;stroke-miterlimit:10;}
	.st12{fill:#FFAF00;}
	.st13{fill:none;stroke:#00FFC2;stroke-width:2.515;stroke-miterlimit:10;}
	.st14{fill:none;stroke:#FFFFFF;stroke-width:2;stroke-linecap:round;stroke-linejoin:round;stroke-miterlimit:10;}
	.st15{fill:none;stroke:#FFAF00;stroke-width:2.375;stroke-miterlimit:10;}
	.st16{fill:none;stroke:#FFAF00;stroke-width:1.663;stroke-miterlimit:10;}
	.st17{fill:none;stroke:#FFAF00;stroke-width:2;stroke-miterlimit:10;}
	.st18{fill:none;stroke:#1AFF00;stroke-width:2;stroke-miterlimit:10;}
	.st19{opacity:0.19;}
	.st20{fill:none;stroke:#FFFFFF;stroke-width:8;stroke-linecap:round;stroke-linejoin:round;stroke-miterlimit:10;}
	.st21{opacity:0.64;}
</style>
<g id="background-illustartion" transform="translate(203.126 87.644)">
	<g id="illustration" transform="translate(846 -136)" class="st0">
		<g id="Group_728" transform="translate(-257.808 794.812)">
			<path id="Path_1653" class="st1" d="M-141.7,31.8V15.9l13.8,7.9l13.8,7.9l-13.8,7.9l-13.8,7.9V31.8z"/>
			<path id="Path_1654" class="st1" d="M-113.8,31.8V15.9l13.8,7.9l13.8,7.9l-13.8,7.9l-13.8,7.9V31.8z"/>
			<path id="Path_1655" class="st1" d="M-86.6,31.8V15.9l13.8,7.9l13.8,7.9l-13.8,7.9l-13.8,7.9V31.8z"/>
		</g>
		<g id="Group_730" transform="translate(-1049.126 48.356)">
			<path id="Path_1645" class="st2" d="M486.2,643.6L380.8,749.1l-575.4-575.4L13.1-34l463.2,463.2L374.1,531.4L486.2,643.6z"/>
		</g>
		<g id="Group_733" transform="translate(-516.158 578.391) rotate(-45)">
			
				<rect id="Rectangle_176" x="-113.4" y="-111.4" transform="matrix(-1 2.535182e-06 -2.535182e-06 -1 -82.1442 -64.1231)" class="st3" width="144.6" height="158.7"/>
		</g>
		<g id="Group_731" transform="translate(-420.315 395.107)">
			<path id="Path_1644" class="st4" d="M136.3,184.7L-59.2,380.2l-83.3-83.4l102.2-102.2L-152.5,82.4l93.3-93.3L136.3,184.7z"/>
		</g>
		<g id="Group_732" transform="translate(-777.037 404.701) rotate(-89.882)">
			
				<ellipse id="Ellipse_30" transform="matrix(-1 2.113850e-06 -2.113850e-06 -1 193.6873 -178.834)" class="st5" cx="96.8" cy="-89.4" rx="87" ry="87"/>
		</g>
		
			<rect id="Rectangle_199" x="-170.3" y="573.5" transform="matrix(0.7071 -0.7071 0.7071 0.7071 -460.3565 59.4785)" class="st1" width="23.9" height="23.9"/>
		<line id="Line_14" class="st6" x1="-475.7" y1="645.9" x2="-634.9" y2="799.4"/>
		<line id="Line_13" class="st6" x1="-444.7" y1="383.8" x2="-226.3" y2="602.2"/>
	</g>
	<g id="background-illustration" transform="translate(15.151 60)" class="st7">
		<g id="Group_740" transform="translate(133.66 38.155)">
			<g>
				<defs>
					<rect id="SVGID_1_" x="184.9" y="808.3" width="240.5" height="44.2"/>
				</defs>
				<clipPath id="SVGID_2_">
					<use xlink:href="#SVGID_1_"  style="overflow:visible;"/>
				</clipPath>
				<g id="Repeat_Grid_2" transform="translate(362.529 812.676)" class="st8">
					<g id="Group_739" transform="translate(-189.7 -233.56)">
						<path id="Path_1521" class="st9" d="M16.2,231.3c0,1.1-0.9,2.1-2,2.1s-2-0.9-2-2.1c0-1.1,0.9-2.1,2-2.1
							C15.2,229.2,16.2,230.1,16.2,231.3C16.2,231.3,16.2,231.3,16.2,231.3z"/>
						<path id="Path_1522" class="st9" d="M40.6,231.3c0,1.1-0.9,2.1-2,2.1c-1.1,0-2-0.9-2-2.1c0-1.1,0.9-2.1,2-2.1
							C39.7,229.2,40.6,230.1,40.6,231.3C40.6,231.3,40.6,231.3,40.6,231.3z"/>
						<path id="Path_1523" class="st9" d="M65.1,231.3c0,1.1-0.9,2.1-2,2.1s-2-0.9-2-2.1c0-1.1,0.9-2.1,2-2.1
							C64.2,229.2,65.1,230.1,65.1,231.3C65.1,231.3,65.1,231.3,65.1,231.3z"/>
						<path id="Path_1524" class="st9" d="M89.6,231.3c0,1.1-0.9,2.1-2,2.1c-1.1,0-2-0.9-2-2.1c0-1.1,0.9-2.1,2-2.1l0,0
							C88.7,229.2,89.6,230.1,89.6,231.3C89.6,231.3,89.6,231.3,89.6,231.3z"/>
						<path id="Path_1525" class="st9" d="M114.1,231.3c0,1.1-0.9,2.1-2,2.1c-1.1,0-2-0.9-2-2.1c0-1.1,0.9-2.1,2-2.1l0,0
							C113.2,229.2,114.1,230.1,114.1,231.3C114.1,231.3,114.1,231.3,114.1,231.3z"/>
						<path id="Path_1526" class="st9" d="M138.6,231.3c0,1.1-0.9,2.1-2,2.1c-1.1,0-2-0.9-2-2.1c0-1.1,0.9-2.1,2-2.1l0,0
							C137.7,229.2,138.6,230.1,138.6,231.3C138.6,231.3,138.6,231.3,138.6,231.3z"/>
						<path id="Path_1527" class="st9" d="M163.1,231.3c0,1.1-0.9,2.1-2,2.1c-1.1,0-2-0.9-2-2.1c0-1.1,0.9-2.1,2-2.1l0,0
							C162.2,229.2,163.1,230.1,163.1,231.3C163.1,231.3,163.1,231.3,163.1,231.3z"/>
						<path id="Path_1528" class="st9" d="M16.2,249.3c0,1.1-0.9,2.1-2,2.1s-2-0.9-2-2.1c0-1.1,0.9-2.1,2-2.1
							C15.2,247.2,16.2,248.1,16.2,249.3C16.2,249.3,16.2,249.3,16.2,249.3z"/>
						<path id="Path_1529" class="st9" d="M40.6,249.3c0,1.1-0.9,2.1-2,2.1c-1.1,0-2-0.9-2-2.1c0-1.1,0.9-2.1,2-2.1
							C39.7,247.2,40.6,248.1,40.6,249.3C40.6,249.3,40.6,249.3,40.6,249.3z"/>
						<path id="Path_1530" class="st9" d="M65.1,249.3c0,1.1-0.9,2.1-2,2.1s-2-0.9-2-2.1c0-1.1,0.9-2.1,2-2.1
							C64.2,247.2,65.1,248.1,65.1,249.3C65.1,249.3,65.1,249.3,65.1,249.3z"/>
						<path id="Path_1531" class="st9" d="M89.6,249.3c0,1.1-0.9,2.1-2,2.1c-1.1,0-2-0.9-2-2.1c0-1.1,0.9-2.1,2-2.1l0,0
							C88.7,247.2,89.6,248.1,89.6,249.3C89.6,249.3,89.6,249.3,89.6,249.3z"/>
						<path id="Path_1532" class="st9" d="M114.1,249.3c0,1.1-0.9,2.1-2,2.1c-1.1,0-2-0.9-2-2.1c0-1.1,0.9-2.1,2-2.1l0,0
							C113.2,247.2,114.1,248.1,114.1,249.3C114.1,249.3,114.1,249.3,114.1,249.3z"/>
						<path id="Path_1533" class="st9" d="M138.6,249.3c0,1.1-0.9,2.1-2,2.1c-1.1,0-2-0.9-2-2.1c0-1.1,0.9-2.1,2-2.1l0,0
							C137.7,247.2,138.6,248.1,138.6,249.3C138.6,249.3,138.6,249.3,138.6,249.3z"/>
						<path id="Path_1534" class="st9" d="M163.1,249.3c0,1.1-0.9,2.1-2,2.1c-1.1,0-2-0.9-2-2.1c0-1.1,0.9-2.1,2-2.1l0,0
							C162.2,247.2,163.1,248.1,163.1,249.3C163.1,249.3,163.1,249.3,163.1,249.3z"/>
						<path id="Path_1535" class="st9" d="M16.2,267.3c0,1.1-0.9,2.1-2,2.1s-2-0.9-2-2.1c0-1.1,0.9-2.1,2-2.1h0
							C15.2,265.2,16.2,266.1,16.2,267.3C16.2,267.3,16.2,267.3,16.2,267.3z"/>
						<path id="Path_1536" class="st9" d="M40.6,267.3c0,1.1-0.9,2.1-2,2.1c-1.1,0-2-0.9-2-2.1c0-1.1,0.9-2.1,2-2.1h0
							C39.7,265.2,40.6,266.1,40.6,267.3C40.6,267.3,40.6,267.3,40.6,267.3z"/>
						<path id="Path_1537" class="st9" d="M65.1,267.3c0,1.1-0.9,2.1-2,2.1s-2-0.9-2-2.1c0-1.1,0.9-2.1,2-2.1h0
							C64.2,265.2,65.1,266.1,65.1,267.3C65.1,267.3,65.1,267.3,65.1,267.3z"/>
						<path id="Path_1538" class="st9" d="M89.6,267.3c0,1.1-0.9,2.1-2,2.1s-2-0.9-2-2.1s0.9-2.1,2-2.1h0
							C88.7,265.2,89.6,266.1,89.6,267.3C89.6,267.3,89.6,267.3,89.6,267.3z"/>
						<path id="Path_1539" class="st9" d="M114.1,267.3c0,1.1-0.9,2.1-2,2.1c-1.1,0-2-0.9-2-2.1s0.9-2.1,2-2.1h0
							C113.2,265.2,114.1,266.1,114.1,267.3C114.1,267.3,114.1,267.3,114.1,267.3z"/>
						<path id="Path_1540" class="st9" d="M138.6,267.3c0,1.1-0.9,2.1-2,2.1s-2-0.9-2-2.1s0.9-2.1,2-2.1h0
							C137.7,265.2,138.6,266.1,138.6,267.3C138.6,267.3,138.6,267.3,138.6,267.3z"/>
						<path id="Path_1541" class="st9" d="M163.1,267.3c0,1.1-0.9,2.1-2,2.1c-1.1,0-2-0.9-2-2.1s0.9-2.1,2-2.1h0
							C162.2,265.2,163.1,266.1,163.1,267.3C163.1,267.3,163.1,267.3,163.1,267.3z"/>
					</g>
					<g id="Group_739-2" transform="translate(-15.7 -233.56)">
						<path id="Path_1521-2" class="st9" d="M13.2,231.3c0,1.1-0.9,2.1-2,2.1s-2-0.9-2-2.1c0-1.1,0.9-2.1,2-2.1
							C12.3,229.2,13.2,230.1,13.2,231.3C13.2,231.3,13.2,231.3,13.2,231.3z"/>
						<path id="Path_1522-2" class="st9" d="M37.7,231.3c0,1.1-0.9,2.1-2,2.1c-1.1,0-2-0.9-2-2.1c0-1.1,0.9-2.1,2-2.1
							C36.8,229.2,37.7,230.1,37.7,231.3C37.7,231.3,37.7,231.3,37.7,231.3z"/>
						<path id="Path_1523-2" class="st9" d="M62.2,231.3c0,1.1-0.9,2.1-2,2.1c-1.1,0-2-0.9-2-2.1c0-1.1,0.9-2.1,2-2.1
							C61.3,229.2,62.2,230.1,62.2,231.3C62.2,231.3,62.2,231.3,62.2,231.3z"/>
						<path id="Path_1524-2" class="st9" d="M86.7,231.3c0,1.1-0.9,2.1-2,2.1c-1.1,0-2-0.9-2-2.1c0-1.1,0.9-2.1,2-2.1l0,0
							C85.8,229.2,86.7,230.1,86.7,231.3C86.7,231.3,86.7,231.3,86.7,231.3z"/>
						<path id="Path_1525-2" class="st9" d="M111.2,231.3c0,1.1-0.9,2.1-2,2.1c-1.1,0-2-0.9-2-2.1c0-1.1,0.9-2.1,2-2.1l0,0
							C110.2,229.2,111.2,230.1,111.2,231.3C111.2,231.3,111.2,231.3,111.2,231.3z"/>
						<path id="Path_1526-2" class="st9" d="M135.7,231.3c0,1.1-0.9,2.1-2,2.1c-1.1,0-2-0.9-2-2.1c0-1.1,0.9-2.1,2-2.1l0,0
							C134.7,229.2,135.7,230.1,135.7,231.3C135.7,231.3,135.7,231.3,135.7,231.3z"/>
						<path id="Path_1527-2" class="st9" d="M160.2,231.3c0,1.1-0.9,2.1-2,2.1c-1.1,0-2-0.9-2-2.1c0-1.1,0.9-2.1,2-2.1l0,0
							C159.2,229.2,160.2,230.1,160.2,231.3C160.2,231.3,160.2,231.3,160.2,231.3z"/>
						<path id="Path_1528-2" class="st9" d="M13.2,249.3c0,1.1-0.9,2.1-2,2.1s-2-0.9-2-2.1c0-1.1,0.9-2.1,2-2.1
							C12.3,247.2,13.2,248.1,13.2,249.3C13.2,249.3,13.2,249.3,13.2,249.3z"/>
						<path id="Path_1529-2" class="st9" d="M37.7,249.3c0,1.1-0.9,2.1-2,2.1c-1.1,0-2-0.9-2-2.1c0-1.1,0.9-2.1,2-2.1
							C36.8,247.2,37.7,248.1,37.7,249.3C37.7,249.3,37.7,249.3,37.7,249.3z"/>
						<path id="Path_1530-2" class="st9" d="M62.2,249.3c0,1.1-0.9,2.1-2,2.1c-1.1,0-2-0.9-2-2.1c0-1.1,0.9-2.1,2-2.1
							C61.3,247.2,62.2,248.1,62.2,249.3C62.2,249.3,62.2,249.3,62.2,249.3z"/>
						<path id="Path_1531-2" class="st9" d="M86.7,249.3c0,1.1-0.9,2.1-2,2.1c-1.1,0-2-0.9-2-2.1c0-1.1,0.9-2.1,2-2.1l0,0
							C85.8,247.2,86.7,248.1,86.7,249.3C86.7,249.3,86.7,249.3,86.7,249.3z"/>
						<path id="Path_1532-2" class="st9" d="M111.2,249.3c0,1.1-0.9,2.1-2,2.1c-1.1,0-2-0.9-2-2.1c0-1.1,0.9-2.1,2-2.1l0,0
							C110.2,247.2,111.2,248.1,111.2,249.3C111.2,249.3,111.2,249.3,111.2,249.3z"/>
						<path id="Path_1533-2" class="st9" d="M135.7,249.3c0,1.1-0.9,2.1-2,2.1c-1.1,0-2-0.9-2-2.1c0-1.1,0.9-2.1,2-2.1l0,0
							C134.7,247.2,135.7,248.1,135.7,249.3C135.7,249.3,135.7,249.3,135.7,249.3z"/>
						<path id="Path_1534-2" class="st9" d="M160.2,249.3c0,1.1-0.9,2.1-2,2.1c-1.1,0-2-0.9-2-2.1c0-1.1,0.9-2.1,2-2.1l0,0
							C159.2,247.2,160.2,248.1,160.2,249.3C160.2,249.3,160.2,249.3,160.2,249.3z"/>
						<path id="Path_1535-2" class="st9" d="M13.2,267.3c0,1.1-0.9,2.1-2,2.1s-2-0.9-2-2.1c0-1.1,0.9-2.1,2-2.1h0
							C12.3,265.2,13.2,266.1,13.2,267.3C13.2,267.3,13.2,267.3,13.2,267.3z"/>
						<path id="Path_1536-2" class="st9" d="M37.7,267.3c0,1.1-0.9,2.1-2,2.1c-1.1,0-2-0.9-2-2.1c0-1.1,0.9-2.1,2-2.1h0
							C36.8,265.2,37.7,266.1,37.7,267.3C37.7,267.3,37.7,267.3,37.7,267.3z"/>
						<path id="Path_1537-2" class="st9" d="M62.2,267.3c0,1.1-0.9,2.1-2,2.1c-1.1,0-2-0.9-2-2.1c0-1.1,0.9-2.1,2-2.1h0
							C61.3,265.2,62.2,266.1,62.2,267.3C62.2,267.3,62.2,267.3,62.2,267.3z"/>
						<path id="Path_1538-2" class="st9" d="M86.7,267.3c0,1.1-0.9,2.1-2,2.1s-2-0.9-2-2.1s0.9-2.1,2-2.1h0
							C85.8,265.2,86.7,266.1,86.7,267.3C86.7,267.3,86.7,267.3,86.7,267.3z"/>
						<path id="Path_1539-2" class="st9" d="M111.2,267.3c0,1.1-0.9,2.1-2,2.1c-1.1,0-2-0.9-2-2.1s0.9-2.1,2-2.1h0
							C110.2,265.2,111.2,266.1,111.2,267.3C111.2,267.3,111.2,267.3,111.2,267.3z"/>
						<path id="Path_1540-2" class="st9" d="M135.7,267.3c0,1.1-0.9,2.1-2,2.1s-2-0.9-2-2.1s0.9-2.1,2-2.1h0
							C134.7,265.2,135.7,266.1,135.7,267.3C135.7,267.3,135.7,267.3,135.7,267.3z"/>
						<path id="Path_1541-2" class="st9" d="M160.2,267.3c0,1.1-0.9,2.1-2,2.1c-1.1,0-2-0.9-2-2.1s0.9-2.1,2-2.1h0
							C159.2,265.2,160.2,266.1,160.2,267.3C160.2,267.3,160.2,267.3,160.2,267.3z"/>
					</g>
				</g>
			</g>
		</g>
		<g id="Group_741" transform="matrix(0.788, -0.616, 0.616, 0.788, -184.892, 1332.079)">
			<g>
				<defs>
					
						<rect id="SVGID_3_" x="1747.2" y="733.1" transform="matrix(1.717910e-02 -0.9999 0.9999 1.717910e-02 944.5793 2553.7632)" width="48.2" height="126.7"/>
				</defs>
				<clipPath id="SVGID_4_">
					<use xlink:href="#SVGID_3_"  style="overflow:visible;"/>
				</clipPath>
				<g id="Repeat_Grid_3" transform="translate(1737.236 737.839) rotate(39)" class="st10">
					<g id="Group_739-3" transform="translate(-189.7 -233.56)">
						<path id="Path_1521-3" class="st9" d="M193.9,235.6c0,1.1-0.9,2.1-2.1,2.1s-2.1-0.9-2.1-2.1c0-1.1,0.9-2.1,2.1-2.1
							C192.9,233.6,193.9,234.5,193.9,235.6C193.9,235.6,193.9,235.6,193.9,235.6z"/>
						<path id="Path_1522-3" class="st9" d="M218.8,235.6c0,1.1-0.9,2.1-2.1,2.1c-1.1,0-2.1-0.9-2.1-2.1c0-1.1,0.9-2.1,2.1-2.1
							C217.8,233.6,218.8,234.5,218.8,235.6C218.8,235.6,218.8,235.6,218.8,235.6z"/>
						<path id="Path_1523-3" class="st9" d="M243.7,235.6c0,1.1-0.9,2.1-2.1,2.1s-2.1-0.9-2.1-2.1c0-1.1,0.9-2.1,2.1-2.1
							C242.8,233.6,243.7,234.5,243.7,235.6C243.7,235.6,243.7,235.6,243.7,235.6z"/>
						<path id="Path_1524-3" class="st9" d="M268.6,235.6c0,1.1-0.9,2.1-2.1,2.1c-1.1,0-2.1-0.9-2.1-2.1c0-1.1,0.9-2.1,2.1-2.1l0,0
							C267.7,233.6,268.6,234.5,268.6,235.6C268.6,235.6,268.6,235.6,268.6,235.6z"/>
						<path id="Path_1525-3" class="st9" d="M293.5,235.6c0,1.1-0.9,2.1-2.1,2.1c-1.1,0-2.1-0.9-2.1-2.1c0-1.1,0.9-2.1,2.1-2.1l0,0
							C292.6,233.6,293.5,234.5,293.5,235.6C293.5,235.6,293.5,235.6,293.5,235.6z"/>
						<path id="Path_1526-3" class="st9" d="M318.4,235.6c0,1.1-0.9,2.1-2.1,2.1c-1.1,0-2.1-0.9-2.1-2.1c0-1.1,0.9-2.1,2.1-2.1l0,0
							C317.5,233.6,318.4,234.5,318.4,235.6C318.4,235.6,318.4,235.6,318.4,235.6z"/>
						<path id="Path_1527-3" class="st9" d="M343.4,235.6c0,1.1-0.9,2.1-2.1,2.1c-1.1,0-2.1-0.9-2.1-2.1c0-1.1,0.9-2.1,2.1-2.1l0,0
							C342.4,233.6,343.4,234.5,343.4,235.6C343.4,235.6,343.4,235.6,343.4,235.6z"/>
						<path id="Path_1528-3" class="st9" d="M193.9,253.6c0,1.1-0.9,2.1-2.1,2.1s-2.1-0.9-2.1-2.1c0-1.1,0.9-2.1,2.1-2.1
							C192.9,251.6,193.9,252.5,193.9,253.6C193.9,253.6,193.9,253.6,193.9,253.6z"/>
						<path id="Path_1529-3" class="st9" d="M218.8,253.6c0,1.1-0.9,2.1-2.1,2.1s-2.1-0.9-2.1-2.1c0-1.1,0.9-2.1,2.1-2.1
							C217.8,251.6,218.8,252.5,218.8,253.6C218.8,253.6,218.8,253.6,218.8,253.6z"/>
						<path id="Path_1530-3" class="st9" d="M243.7,253.6c0,1.1-0.9,2.1-2.1,2.1s-2.1-0.9-2.1-2.1c0-1.1,0.9-2.1,2.1-2.1
							C242.8,251.6,243.7,252.5,243.7,253.6C243.7,253.6,243.7,253.6,243.7,253.6z"/>
						<path id="Path_1531-3" class="st9" d="M268.6,253.6c0,1.1-0.9,2.1-2.1,2.1c-1.1,0-2.1-0.9-2.1-2.1c0-1.1,0.9-2.1,2.1-2.1l0,0
							C267.7,251.6,268.6,252.5,268.6,253.6C268.6,253.6,268.6,253.6,268.6,253.6z"/>
						<path id="Path_1532-3" class="st9" d="M293.5,253.6c0,1.1-0.9,2.1-2.1,2.1c-1.1,0-2.1-0.9-2.1-2.1c0-1.1,0.9-2.1,2.1-2.1l0,0
							C292.6,251.6,293.5,252.5,293.5,253.6C293.5,253.6,293.5,253.6,293.5,253.6z"/>
						<path id="Path_1533-3" class="st9" d="M318.4,253.6c0,1.1-0.9,2.1-2.1,2.1c-1.1,0-2.1-0.9-2.1-2.1c0-1.1,0.9-2.1,2.1-2.1l0,0
							C317.5,251.6,318.4,252.5,318.4,253.6C318.4,253.6,318.4,253.6,318.4,253.6z"/>
						<path id="Path_1534-3" class="st9" d="M343.4,253.6c0,1.1-0.9,2.1-2.1,2.1c-1.1,0-2.1-0.9-2.1-2.1c0-1.1,0.9-2.1,2.1-2.1l0,0
							C342.4,251.6,343.4,252.5,343.4,253.6C343.4,253.6,343.4,253.6,343.4,253.6z"/>
						<path id="Path_1535-3" class="st9" d="M193.9,271.6c0,1.1-0.9,2.1-2.1,2.1s-2.1-0.9-2.1-2.1c0-1.1,0.9-2.1,2.1-2.1h0
							C192.9,269.6,193.9,270.5,193.9,271.6C193.9,271.6,193.9,271.6,193.9,271.6z"/>
						<path id="Path_1536-3" class="st9" d="M218.8,271.6c0,1.1-0.9,2.1-2.1,2.1c-1.1,0-2.1-0.9-2.1-2.1c0-1.1,0.9-2.1,2.1-2.1h0
							C217.8,269.6,218.8,270.5,218.8,271.6C218.8,271.6,218.8,271.6,218.8,271.6z"/>
						<path id="Path_1537-3" class="st9" d="M243.7,271.6c0,1.1-0.9,2.1-2.1,2.1s-2.1-0.9-2.1-2.1c0-1.1,0.9-2.1,2.1-2.1h0
							C242.8,269.6,243.7,270.5,243.7,271.6C243.7,271.6,243.7,271.6,243.7,271.6z"/>
						<path id="Path_1538-3" class="st9" d="M268.6,271.6c0,1.1-0.9,2.1-2.1,2.1s-2.1-0.9-2.1-2.1s0.9-2.1,2.1-2.1h0
							C267.7,269.6,268.6,270.5,268.6,271.6C268.6,271.6,268.6,271.6,268.6,271.6z"/>
						<path id="Path_1539-3" class="st9" d="M293.5,271.6c0,1.1-0.9,2.1-2.1,2.1s-2.1-0.9-2.1-2.1s0.9-2.1,2.1-2.1h0
							C292.6,269.6,293.5,270.5,293.5,271.6C293.5,271.6,293.5,271.6,293.5,271.6z"/>
						<path id="Path_1540-3" class="st9" d="M318.4,271.6c0,1.1-0.9,2.1-2.1,2.1c-1.1,0-2.1-0.9-2.1-2.1s0.9-2.1,2.1-2.1h0
							C317.5,269.6,318.4,270.5,318.4,271.6C318.4,271.6,318.4,271.6,318.4,271.6z"/>
						<path id="Path_1541-3" class="st9" d="M343.4,271.6c0,1.1-0.9,2.1-2.1,2.1s-2.1-0.9-2.1-2.1s0.9-2.1,2.1-2.1h0
							C342.4,269.6,343.4,270.5,343.4,271.6C343.4,271.6,343.4,271.6,343.4,271.6z"/>
					</g>
				</g>
			</g>
		</g>
		<g id="Group_337" transform="translate(1671.169 33.593)">
			<g id="XMLID_394_" transform="translate(0 42.007)">
				<path id="XMLID_398_" class="st9" d="M6.2,5.9c-1.3,1.5-3.5,1.6-5,0.3c-1.5-1.3-1.6-3.5-0.3-5c1.3-1.5,3.5-1.6,5-0.3
					c0,0,0,0,0,0C7.3,2.2,7.5,4.4,6.2,5.9C6.2,5.9,6.2,5.9,6.2,5.9z"/>
				<path id="XMLID_397_" class="st9" d="M21.6,19.6c-1.3,1.5-3.5,1.6-5,0.3c-1.5-1.3-1.6-3.5-0.3-5c1.3-1.5,3.5-1.6,5-0.3
					c0,0,0,0,0,0C22.8,15.9,22.9,18.1,21.6,19.6C21.6,19.6,21.6,19.6,21.6,19.6z"/>
				<path id="XMLID_396_" class="st9" d="M52.5,47c-1.3,1.5-3.5,1.6-5,0.3c-1.5-1.3-1.6-3.5-0.3-5c1.3-1.5,3.5-1.6,5-0.3
					c0,0,0,0,0,0C53.6,43.3,53.8,45.6,52.5,47C52.5,47,52.5,47,52.5,47z"/>
				<path id="XMLID_395_" class="st9" d="M67.9,60.7c-1.3,1.5-3.5,1.6-5,0.3c-1.5-1.3-1.6-3.5-0.3-5c1.3-1.5,3.5-1.6,5-0.3
					c0,0,0,0,0,0C69,57.1,69.2,59.3,67.9,60.7C67.9,60.7,67.9,60.7,67.9,60.7z"/>
			</g>
			<g id="XMLID_390_" transform="translate(27.879 41.726)">
				<path id="XMLID_393_" class="st9" d="M6.2,5.9c-1.3,1.5-3.5,1.6-5,0.3c-1.5-1.3-1.6-3.5-0.3-5c1.3-1.5,3.5-1.6,5-0.3
					c0,0,0,0,0,0C7.3,2.2,7.5,4.4,6.2,5.9C6.2,5.9,6.2,5.9,6.2,5.9z"/>
				<path id="XMLID_392_" class="st9" d="M21.6,19.6c-1.3,1.5-3.5,1.6-5,0.3c-1.5-1.3-1.6-3.5-0.3-5c1.3-1.5,3.5-1.6,5-0.3
					c0,0,0,0,0,0C22.8,15.9,22.9,18.1,21.6,19.6C21.6,19.6,21.6,19.6,21.6,19.6z"/>
				<path id="XMLID_391_" class="st9" d="M37,33.3c-1.3,1.5-3.5,1.6-5,0.3c-1.5-1.3-1.6-3.5-0.3-5c1.3-1.5,3.5-1.6,5-0.3
					c0,0,0,0,0,0C38.2,29.6,38.3,31.9,37,33.3C37,33.3,37,33.3,37,33.3z"/>
			</g>
			<g id="XMLID_384_" transform="translate(40.341 27.716)">
				<path id="XMLID_388_" class="st9" d="M6.2,5.9c-1.3,1.5-3.5,1.6-5,0.3c-1.5-1.3-1.6-3.5-0.3-5c1.3-1.5,3.5-1.6,5-0.3
					c0,0,0,0,0,0C7.3,2.2,7.5,4.4,6.2,5.9C6.2,5.9,6.2,5.9,6.2,5.9z"/>
				<path id="XMLID_387_" class="st9" d="M21.6,19.6c-1.3,1.5-3.5,1.6-5,0.3c-1.5-1.3-1.6-3.5-0.3-5c1.3-1.5,3.5-1.6,5-0.3
					c0,0,0,0,0,0C22.8,15.9,22.9,18.1,21.6,19.6C21.6,19.6,21.6,19.6,21.6,19.6z"/>
				<path id="XMLID_386_" class="st9" d="M37,33.3c-1.3,1.5-3.5,1.6-5,0.3c-1.5-1.3-1.6-3.5-0.3-5c1.3-1.5,3.5-1.6,5-0.3
					c0,0,0,0,0,0C38.2,29.6,38.3,31.9,37,33.3C37,33.3,37,33.3,37,33.3z"/>
				<path id="XMLID_385_" class="st9" d="M52.4,47c-1.3,1.5-3.5,1.6-5,0.3c-1.5-1.3-1.6-3.5-0.3-5c1.3-1.5,3.5-1.6,5-0.3
					c0,0,0,0,0,0C53.6,43.4,53.7,45.6,52.4,47C52.4,47,52.4,47,52.4,47z"/>
			</g>
			<g id="XMLID_370_" transform="translate(37.366)">
				<path id="XMLID_383_" class="st9" d="M6.2,5.9c-1.3,1.5-3.5,1.6-5,0.3c-1.5-1.3-1.6-3.5-0.3-5c1.3-1.5,3.5-1.6,5-0.3
					c0,0,0,0,0,0C7.3,2.2,7.5,4.4,6.2,5.9C6.2,5.9,6.2,5.9,6.2,5.9z"/>
				<path id="XMLID_381_" class="st9" d="M37,33.3c-1.3,1.5-3.5,1.6-5,0.3c-1.5-1.3-1.6-3.5-0.3-5c1.3-1.5,3.5-1.6,5-0.3
					c0,0,0,0,0,0C38.2,29.6,38.3,31.9,37,33.3C37,33.3,37,33.3,37,33.3z"/>
				<path id="XMLID_378_" class="st9" d="M52.5,47c-1.3,1.5-3.5,1.6-5,0.3c-1.5-1.3-1.6-3.5-0.3-5c1.3-1.5,3.5-1.6,5-0.3
					c0,0,0,0,0,0C53.6,43.3,53.8,45.6,52.5,47C52.5,47,52.5,47,52.5,47z"/>
			</g>
		</g>
		<g id="Group_316" transform="translate(1056.635 85.519)">
			<line id="XMLID_83_" class="st11" x1="180.8" y1="416.9" x2="197.2" y2="433.3"/>
			<line id="XMLID_82_" class="st11" x1="124.3" y1="360.4" x2="154.5" y2="390.6"/>
			<line id="XMLID_81_" class="st11" x1="175.6" y1="364" x2="289.5" y2="477.9"/>
			<line id="XMLID_80_" class="st11" x1="117.5" y1="306" x2="140.6" y2="329.1"/>
			<line id="XMLID_79_" class="st11" x1="257.4" y1="398.3" x2="357.6" y2="498.5"/>
			<line id="XMLID_78_" class="st11" x1="106.2" y1="247.1" x2="213.1" y2="353.9"/>
			<line id="XMLID_77_" class="st11" x1="190" y1="283.3" x2="366.9" y2="460.1"/>
			<line id="XMLID_76_" class="st11" x1="116.8" y1="210.1" x2="154.3" y2="247.6"/>
			<line id="XMLID_75_" class="st11" x1="336" y1="381.7" x2="378.6" y2="424.2"/>
			<line id="XMLID_74_" class="st11" x1="74.5" y1="120.1" x2="291.3" y2="337"/>
			<line id="XMLID_73_" class="st11" x1="248.4" y1="246.5" x2="460.2" y2="458.3"/>
			<line id="XMLID_72_" class="st11" x1="154.8" y1="152.9" x2="204.1" y2="202.1"/>
			<line id="XMLID_71_" class="st11" x1="289.5" y1="240" x2="426.4" y2="376.8"/>
			<line id="XMLID_70_" class="st11" x1="149.8" y1="100.3" x2="250.9" y2="201.4"/>
			<line id="XMLID_69_" class="st11" x1="402.4" y1="305.3" x2="473.9" y2="376.7"/>
			<line id="XMLID_68_" class="st11" x1="211.6" y1="114.5" x2="350.5" y2="253.3"/>
			<line id="XMLID_67_" class="st11" x1="333.1" y1="188.4" x2="429.7" y2="285"/>
			<line id="XMLID_66_" class="st11" x1="223.1" y1="78.3" x2="295.3" y2="150.5"/>
			<line id="XMLID_65_" class="st11" x1="419" y1="226.6" x2="456.5" y2="264.2"/>
			<line id="XMLID_64_" class="st11" x1="280.8" y1="88.5" x2="376.1" y2="183.7"/>
			<line id="XMLID_63_" class="st11" x1="399.4" y1="159.5" x2="422.5" y2="182.6"/>
			<line id="XMLID_62_" class="st11" x1="358.9" y1="119" x2="374.8" y2="134.9"/>
		</g>
		<g id="Group_322" transform="translate(1898.647 780.189)">
			<path id="XMLID_418_" class="st12" d="M40.8,8.4c11.2,11,11.3,29,0.3,40.2c-0.1,0.1-0.2,0.2-0.3,0.3L0,8.4
				C11.3-2.8,29.5-2.8,40.8,8.4z"/>
			<path id="XMLID_417_" class="st13" d="M18.7,67.6c-11.2-11-11.3-29-0.3-40.2c0.1-0.1,0.2-0.2,0.3-0.3l40.8,40.4
				C48.3,78.8,30.1,78.8,18.7,67.6z"/>
		</g>
		<g id="Group_328" transform="translate(394.905)">
			<circle id="XMLID_112_" class="st12" cx="25.3" cy="25.3" r="18.6"/>
			<circle id="XMLID_111_" class="st14" cx="18.6" cy="18.6" r="18.6"/>
		</g>
		<g id="Group_329" transform="translate(1777.281 286.936)">
			<path id="XMLID_113_" class="st15" d="M115.6,39.7L78.4,76.9c-0.6,0.6-1.5,0.6-2.1,0L39.1,39.7c-0.6-0.6-0.6-1.5,0-2.1L76.3,0.4
				c0.6-0.6,1.5-0.6,2.1,0l37.2,37.2C116.2,38.2,116.2,39.1,115.6,39.7C115.6,39.7,115.6,39.7,115.6,39.7z"/>
			<path id="XMLID_114_" class="st15" d="M99.2,39.3L78,60.5c-0.3,0.3-0.9,0.3-1.2,0L55.5,39.3c-0.3-0.3-0.3-0.9,0-1.2l21.2-21.2
				c0.3-0.3,0.9-0.3,1.2,0l21.2,21.2C99.6,38.4,99.6,38.9,99.2,39.3z"/>
		</g>
		<g id="Group_330" transform="translate(0 48.698)">
			<path id="XMLID_119_" class="st16" d="M-122.7,95.3l-26,26c-0.4,0.4-1.1,0.4-1.5,0l-26-26c-0.4-0.4-0.4-1.1,0-1.5l26-26
				c0.4-0.4,1.1-0.4,1.5,0l26,26C-122.3,94.2-122.3,94.8-122.7,95.3C-122.7,95.3-122.7,95.3-122.7,95.3z"/>
			<path id="XMLID_118_" class="st9" d="M-136,96.8l-11.2,11.2c-1.3,1.3-3.3,1.3-4.6,0c0,0,0,0,0,0l-11.2-11.2
				c-1.3-1.3-1.3-3.3,0-4.6c0,0,0,0,0,0l11.2-11.2c1.3-1.3,3.3-1.3,4.6,0c0,0,0,0,0,0l11.2,11.2C-134.8,93.5-134.8,95.5-136,96.8
				C-136,96.8-136,96.8-136,96.8z"/>
		</g>
		<g id="Group_331" transform="translate(1141.367 27.449)">
			<path id="XMLID_408_" class="st17" d="M41.7,21.5L21.5,41.7c-0.3,0.3-0.8,0.3-1.2,0L0.2,21.5c-0.3-0.3-0.3-0.8,0-1.2L20.4,0.2
				c0.3-0.3,0.8-0.3,1.2,0l20.1,20.1C42,20.7,42,21.2,41.7,21.5z"/>
			<path id="XMLID_407_" class="st18" d="M31.4,22.7l-8.6,8.6c-1,1-2.6,1-3.5,0l-8.6-8.6c-1-1-1-2.6,0-3.5l8.6-8.6c1-1,2.6-1,3.5,0
				l8.6,8.6C32.3,20.2,32.3,21.7,31.4,22.7z"/>
		</g>
		<g id="Group_318" transform="translate(1062.721 816.907)" class="st19">
			<circle id="XMLID_401_" class="st20" cx="14.1" cy="14.1" r="14.1"/>
		</g>
		<g id="Group_528" transform="translate(395.279 344.116)">
			<g id="Group_503">
				<rect id="Rectangle_93" x="104.1" y="502.3" class="st9" width="125" height="1"/>
			</g>
			<g id="Group_504">
				<rect id="Rectangle_94" x="142.1" y="490.3" class="st9" width="25" height="1"/>
			</g>
			<g id="Group_505">
				<rect id="Rectangle_95" x="142.1" y="515.3" class="st9" width="51" height="1"/>
			</g>
		</g>
		<g id="Group_528_1_" transform="translate(395.279 344.116)">
			<g id="Group_503_1_">
				<rect id="Rectangle_93_1_" x="1017.8" y="502.3" class="st9" width="125" height="1"/>
			</g>
			<g id="Group_504_1_">
				<rect id="Rectangle_94_1_" x="1055.8" y="490.3" class="st9" width="25" height="1"/>
			</g>
			<g id="Group_505_1_">
				<rect id="Rectangle_95_1_" x="1055.8" y="515.3" class="st9" width="51" height="1"/>
			</g>
		</g>
		<g id="Group_332" transform="translate(814.849 121.46)">
			<path id="XMLID_37_" class="st12" d="M8.3,50.1l44.1-39.1l-4.3,62.9L8.3,50.1z"/>
			<g id="XMLID_29_">
				<path id="XMLID_34_" class="st14" d="M0,35.7L46.9,0l-9,62.4L0,35.7z"/>
				<path id="XMLID_35_" class="st14" d="M46.9,0c-0.7,0.9-23.3,37-23.3,37l14.2,25.4L46.9,0z"/>
				<path id="XMLID_36_" class="st14" d="M0,35.7L23.6,37L46.9,0L0,35.7z"/>
			</g>
		</g>
		<g id="Group_526" transform="translate(630.799 -899.934) rotate(90)" class="st21">
			<path id="Path_1497" class="st2" d="M1791.1,773.8v-92.4c-92.6,0-167.6,75-167.6,167.6c0,0,0,0,0,0h92.4
				C1715.9,807.5,1749.5,773.9,1791.1,773.8C1791.1,773.8,1791.1,773.8,1791.1,773.8z"/>
		</g>
	</g>
</g>
</svg>
