<svg xmlns="http://www.w3.org/2000/svg" width="93" height="107" viewBox="0 0 93 107">
  <g id="designing-polygon" transform="translate(-679 -1010)">
    <path id="Polygon" d="M80.25,0,107,46.5,80.25,93H26.75L0,46.5,26.75,0Z" transform="translate(772 1010) rotate(90)" fill="#0a1a37"/>
    <g id="graphic-desig" transform="translate(700 1035.345)">
      <g id="Group_333" data-name="Group 333" transform="translate(0 2.655)">
        <g id="Group_332" data-name="Group 332">
          <path id="Path_844" data-name="Path 844" d="M40.407,50.483A137.306,137.306,0,0,0,54.428,38.848a17.409,17.409,0,0,1-3.2-2.465,17.176,17.176,0,0,1-2.762-3.319,138.327,138.327,0,0,0-10.95,14.412c-.7,0-6.739.109-10.95,4.5-4.467,4.674-4.215,16-4.215,16a14.591,14.591,0,0,1,8.218-5.7C36.772,60.846,39.575,56.922,40.407,50.483Z" transform="translate(-15.406 -23.795)" fill="#fff"/>
          <path id="Path_845" data-name="Path 845" d="M34.2,78.721l.425.4,15.455-8.03-8.222-7.9Z" transform="translate(-18.627 -39.344)" fill="#fff"/>
          <path id="Path_846" data-name="Path 846" d="M38.126,17.131l-2.378,2.876V14.049l.77-.9S43.873,4.527,41.8,2.878s-8.841,6.329-8.841,6.329S31.8,10.661,30.3,12.552H0v41.1H35.748V29.6l6.5-7.872ZM32.8,50.235H2.946V15.966H27.617c-1.112,1.425-2.163,2.793-2.876,3.771a10.36,10.36,0,0,0,1.408,1.985,9.322,9.322,0,0,0,1.636,1.451c1.24-1.342,3.244-3.637,5.02-5.695v6.093L21.836,36.843l4.127,4.6L32.8,33.166Z" transform="translate(0 -2.655)" fill="#fff"/>
          <path id="Path_847" data-name="Path 847" d="M92.543,24.063l-5.505-5.257c-.738-.726-2.19-.47-3.169.568l-6.213,6.465,8.237,7.914,6.2-6.487C93.1,26.231,93.292,24.774,92.543,24.063Z" transform="translate(-42 -10.638)" fill="#fff"/>
        </g>
      </g>
    </g>
  </g>
</svg>
