<svg xmlns="http://www.w3.org/2000/svg" width="93" height="107" viewBox="0 0 93 107">
  <g id="mobile-polygon" transform="translate(-679 -1010)">
    <path id="Polygon" d="M80.25,0,107,46.5,80.25,93H26.75L0,46.5,26.75,0Z" transform="translate(772 1010) rotate(90)" fill="#0a1a37"/>
    <g id="smartphone" transform="translate(686.655 1035)">
      <g id="Group_334" data-name="Group 334" transform="translate(22.345)">
        <path id="Path_849" data-name="Path 849" d="M49.409,0H28.474a6.144,6.144,0,0,0-6.13,6.13V50.87A6.144,6.144,0,0,0,28.474,57H49.409a6.144,6.144,0,0,0,6.13-6.13V6.13A6.136,6.136,0,0,0,49.409,0ZM41.586,54.431H35.678a1.588,1.588,0,0,1,0-3.176h5.908a1.588,1.588,0,0,1,0,3.176ZM52.292,10.193V47.087a1.585,1.585,0,0,1-1.576,1.576H27.178A1.585,1.585,0,0,1,25.6,47.087V9.924a1.585,1.585,0,0,1,1.576-1.576H50.716a1.585,1.585,0,0,1,1.576,1.576Z" transform="translate(-22.345)" fill="#fff"/>
      </g>
    </g>
  </g>
</svg>
