<svg xmlns="http://www.w3.org/2000/svg" width="415.998" height="315.695" viewBox="0 0 415.998 315.695">
  <g id="people-flying" transform="translate(1.998)">
    <path id="Path_1659" data-name="Path 1659" d="M821.236,304.162c-4.895,14.55-15.517,29.89-33.778,44.639a113.214,113.214,0,0,0-16.943,16.989,176.876,176.876,0,0,0-17.444,26.863c-22.663,41.335-33.684,78.207-139.318,49.025-41.98-11.6-50.809,3.672-96.313,11.4q-2,.337-4.1.66c-12.623,1.921-23.852,1.646-33.815-.393a71.589,71.589,0,0,1-32.007-15.357c-17.488-14.622-28.036-36.96-33.694-60.282a190.991,190.991,0,0,1-4.355-25.733q-.733-7.232-.876-13.657c-.367-15.121,1.521-27.1,4.686-37l0,0q.589-1.839,1.232-3.584c.465-1.267.953-2.494,1.456-3.691l.006-.011c12.219-28.928,35.268-38.863,35.677-66.539,1.084-73.292,56.359-86.017,100.22-77.416,92.932,18.22,90.12-19.122,156.847-8.943,122.173,18.639,37.825,67.1,88.977,96.625C818.118,249.547,830.949,275.293,821.236,304.162Z" transform="translate(-410.543 -139.346)" fill="#057e8f" opacity="0.1"/>
    <path id="Path_1660" data-name="Path 1660" d="M821.229,988.268c-4.895,14.55-15.518,29.89-33.778,44.639-61.526,49.694-29.708,132.656-173.707,92.876-43.212-11.937-51.3,4.593-100.417,12.063-71.9,10.934-98.549-49.265-103.868-101.765-2.424-23.919.162-41.005,5.042-54.24l1.456-3.691.006-.011S432,976.52,437.821,990.233c0,0,5.236-8.46,15.127-5.52s7.758,11.087,7.758,11.087,15.377-10.708,29.09,3.3,5.431,33.939,5.431,33.939,12.8-.881,16.679,8.87c0,0,18.39-7.988,29.945,2.625s23.712,20.464,23.712,20.464,13.089,3.337,12.1,19.629a27.568,27.568,0,0,1,23.154-3.492s2.319-16.784,25.355-20.416,33.384,2.574,33.384,2.574.359-15.335,18.086-16.976c0,0-.505-23.753,25.871-26.275s31.9,11.31,31.9,11.31,3.4-11.028,21.244-10.3c0,0,3.492-20.375,26.763-19.325,0,0,5.431-10.2,17.066-6.707C800.488,995.024,808.715,981.2,821.229,988.268Z" transform="translate(-408.536 -823.451)" fill="#cadafc" opacity="0.2"/>
    <path id="Path_1661" data-name="Path 1661" d="M770.509,1082.391c-39.774,49.124-28.248,111.39-156.764,75.888-43.212-11.937-51.3,4.592-100.417,12.063-71.9,10.934-98.549-49.264-103.868-101.765-2.21-21.815-.254-37.945,3.809-50.655l0,0s13.327,6.9,12.747,17.957c0,0,12.8-4.167,22.98,4.753,0,0,14.837-10.956,34.619,0s7.852,33.771,7.852,33.771,11.054.455,13.672,11.508c0,0,14.166-8.562,23.519,3.283,9.212,11.666.863,30.187-14.669,34.628,3.381-.844,17.96-3.621,25.836,8.923,0,0,13.023-13.381,26.548,0,0,0,14.939-4.814,21.118,8.425,0,0,8.96-15.9,27.39-10.084s19.05,19.006,19.05,19.006,4.834-9.7,17.042-6.982c0,0-4.565-22.885,19.527-28.7,0,0,2.371-18.619,23.124-17.066,0,0,7.953-8.584,17.262-6.231C710.889,1091.107,738.557,1062.448,770.509,1082.391Z" transform="translate(-408.537 -855.947)" fill="#eef4ff" opacity="0.2"/>
    <g id="Group_746" data-name="Group 746" transform="translate(38.971 54.81)">
      <path id="Path_1662" data-name="Path 1662" d="M1705.831,454.995s-4.9-4.992-14-1.255-6.451,13.829-13.589,11.473-14.074-2.105-14.69,4.039c-.913,9.109-5.234,5.664-8.056,13.851-2.544,7.378.374,10.654,5.75,8.414,7.66-3.191,1.781,4.895,12.625,6.392s23.952-7.793,25.932-14.177a31.1,31.1,0,0,1,7.387-12.474C1709.526,468.634,1712.553,460.138,1705.831,454.995Z" transform="translate(-1463.815 -449.456)" fill="#163560"/>
      <path id="Path_1663" data-name="Path 1663" d="M1631.38,831.92l-.23,2.087a1.483,1.483,0,0,0,.723,1.442l3.21,1.884a2.839,2.839,0,0,0,2.044.324l3.055-.669Z" transform="translate(-1444.713 -759.047)" fill="#163560"/>
      <g id="Group_743" data-name="Group 743" transform="translate(184.534 29.04)">
        <path id="Path_1664" data-name="Path 1664" d="M1742.12,672.306l-9.974-5.745a1.923,1.923,0,0,1-.7-2.62l19.618-34.055c1.949-3.383,8.276-7.966,11.659-6.017l.981.564c3.392,1.954,2.6,9.738.651,13.13L1744.74,671.6A1.923,1.923,0,0,1,1742.12,672.306Z" transform="translate(-1710.848 -618.012)" fill="#d86036"/>
        <path id="Path_1665" data-name="Path 1665" d="M1703.695,596.68l23.65.295-30.724,48.663-12.861-3.683Z" transform="translate(-1672.165 -596.216)" fill="#d86036"/>
        <path id="Path_1666" data-name="Path 1666" d="M1631.8,643.066l-9.974-5.745a1.923,1.923,0,0,1-.7-2.62l19.618-34.055c1.949-3.383,8.276-7.966,11.659-6.017l.981.564c3.392,1.954,2.6,9.738.651,13.13l-19.61,34.038A1.923,1.923,0,0,1,1631.8,643.066Z" transform="translate(-1620.867 -594.163)" fill="#f77d48"/>
      </g>
      <path id="Path_1667" data-name="Path 1667" d="M810.288,852.946l-.131.2-1.314,1.973-119,178.467q-2,.337-4.1.66c-12.623,1.921-23.852,1.646-33.815-.393a71.589,71.589,0,0,1-32.007-15.357l45.061-40.312L741.97,909.3l14.893-13.322,50.216-44.923,1.759,1.032v0l.059.033Z" transform="translate(-619.92 -774.659)" fill="#f8fbff" opacity="0.1"/>
      <path id="Path_1668" data-name="Path 1668" d="M1729.614,1112.45a24.288,24.288,0,0,0-10.807,5.241c-2.911,2.4-6.666,4.852-7.6,3.746-.45-.533-.76-4.023,3.1-6.585,3.7-2.459,2.835-7.653,6.449-8.285,2.469-.431,2.4,2.059,8.3-.2Z" transform="translate(-1509.807 -982.9)" fill="#233862"/>
      <path id="Path_1669" data-name="Path 1669" d="M1829.591,884.122c-1.04,9.214-41.63,16.808-41.63,16.808s-1.169-5.455,2.105-8.151c0,0,9.284-6.819,13.582-9.443a25.809,25.809,0,0,1,8.858-3.643c-.064-.361-1.536-.9-3.746-1.6h0c-6.853-2.174-20.777-5.925-21.7-10.9a6.483,6.483,0,0,1-.092-1.447c.26-6.875,9.327-18.248,9.327-18.248l8.838-3.064s1.311,9.747,4.316,12.1S1830.631,874.907,1829.591,884.122Z" transform="translate(-1571.802 -769.259)" fill="#f99746"/>
      <path id="Path_1670" data-name="Path 1670" d="M1808.76,952.4h0c-6.853-2.174-20.777-5.925-21.7-10.9a6.483,6.483,0,0,1-.092-1.447,7.738,7.738,0,0,1,4.508-4.4c4.109-1.254,3.5,7.927,8.062,10.7S1808.76,952.4,1808.76,952.4Z" transform="translate(-1571.802 -843.569)" fill="#ed7d2b"/>
      <path id="Path_1671" data-name="Path 1671" d="M1937.97,501.534s23.8-6.714,27.27-8.239,14.74-16.255,14.74-16.255l3.274,1.914s-3.529,13.759-13.709,20.849c-3.975,2.767-26.338,11.543-26.338,11.543Z" transform="translate(-1694.975 -469.593)" fill="#ffb27d"/>
      <path id="Path_1672" data-name="Path 1672" d="M1458.481,1213.377a28.524,28.524,0,0,0-4.908,7.186c-1.416,3.494-3.49,7.47-4.841,6.954-.651-.249-2.609-3.155-.472-7.264,2.05-3.942-1.217-8.071,1.641-10.37,1.952-1.571,3.1.643,7.17-4.183Z" transform="translate(-1294.755 -1063.918)" fill="#233862"/>
      <path id="Path_1673" data-name="Path 1673" d="M1566.3,800.661s-25.491,32.361-36.654,42.368c-5.927,5.313-34.049,28.821-34.049,28.821a12.4,12.4,0,0,1-2.522-3.567c-1.163-3.261-.186-5.256-.186-5.256s11.994-23.408,23.373-30.145c7.885-4.668,12.689-33.758,29.615-43.71S1566.3,800.661,1566.3,800.661Z" transform="translate(-1331.638 -722.03)" fill="#f99746"/>
      <path id="Path_1674" data-name="Path 1674" d="M1765.461,626.646c-7.963,16.3-10.048,24.009-12.857,25.683s-29.881-2.308-32.147-6.388a3.755,3.755,0,0,1,.28-3.647l0,0c1.9-3.72,7.579-8.309,10.521-13.049a64.313,64.313,0,0,0,4.331-8.092c5-11.427.929-14.623,3.357-16.128,4.251-2.633,24.086-8.427,30.338-6.292,3.062,1.047-.854,7.352-.57,12.549C1769.07,617.808,1767.962,621.522,1765.461,626.646Z" transform="translate(-1517.271 -568.472)" fill="#739af0"/>
      <path id="Path_1675" data-name="Path 1675" d="M1675.4,639.45s-18.082,12.4-22.031,18.889-9.721,21.631-9.721,21.631.208.973,3.632.4c0,0,11.31-16.985,13.093-18.692s17.538-10.359,17.538-10.359Z" transform="translate(-1454.916 -602.061)" fill="#ffb27d"/>
      <path id="Path_1676" data-name="Path 1676" d="M1951.783,596.443a19.383,19.383,0,0,1-5.813,7.963l-8.621-13.8s9.037-1.469,14.043-2.5A10.209,10.209,0,0,1,1951.783,596.443Z" transform="translate(-1694.469 -560.186)" fill="#739af0"/>
      <path id="Path_1677" data-name="Path 1677" d="M1781.1,610.41s-8.606,1.233-15.169,4.959c-2.721,1.545-9.734,7.7-9.734,7.7s1.958,6.4,10.005,8.327,6.331-13.519,6.331-13.519Z" transform="translate(-1546.716 -578.375)" fill="#739af0"/>
      <path id="Path_1678" data-name="Path 1678" d="M2165.25,444.234s1.292-7.684,2.926-7.588,2.867,2.664,3.086,4.115-2.738,5.387-2.738,5.387Z" transform="translate(-1880.354 -436.645)" fill="#ffb27d"/>
      <path id="Path_1679" data-name="Path 1679" d="M1647.139,855.366s.625,3.523.07,4.943a3.876,3.876,0,0,1-3.256,2.454c-1.1-.089.763-2.677.053-4.139s-1.962-4.565.107-5.308S1647.139,855.366,1647.139,855.366Z" transform="translate(-1454.368 -776.397)" fill="#ffb27d"/>
      <path id="Path_1680" data-name="Path 1680" d="M1660.673,858.56a26.542,26.542,0,0,0,1.274,3.031c.463.769-1.324-.374-1.764-1.1S1660.673,858.56,1660.673,858.56Z" transform="translate(-1468.304 -780.776)" fill="#ffb27d"/>
      <path id="Path_1681" data-name="Path 1681" d="M1740.741,725.342c-.177,3.82-4.12,11.187-8.578,12.614-4.39,1.4-8.464,5.381-8.593,5.507,1.9-3.72,7.579-8.309,10.521-13.049a64.287,64.287,0,0,0,4.331-8.092C1739.478,722.206,1740.863,722.708,1740.741,725.342Z" transform="translate(-1520.102 -669.643)" fill="#6385db"/>
      <g id="Group_744" data-name="Group 744" transform="translate(214.415 32.774)">
        <path id="Path_1682" data-name="Path 1682" d="M1796.475,627.991c-2.358,7.12-8.879,9.944-11.6,10.837-.555.181-.951.282-1.123.323l-.079.018-.723-3.256a14.278,14.278,0,0,0,2.179-.75h0c2.548-1.084,6.615-3.49,8.18-8.222,2.162-6.536-3.37-11.108-4.076-11.657a37.066,37.066,0,0,1,3.949-.863C1795.791,617.305,1798.383,622.231,1796.475,627.991Z" transform="translate(-1782.95 -614.42)" fill="#d86036"/>
      </g>
      <path id="Path_1683" data-name="Path 1683" d="M1917.125,598.963s9.144,1.184,11.185,12.3a4.046,4.046,0,0,0,2.426-2.426s-2.505-9.871-12.112-11.618c-.557-.1-2.835-.7-2.835-.7l-.089.518a12.917,12.917,0,0,0,.112,1.475C1915.879,598.672,1917.125,598.963,1917.125,598.963Z" transform="translate(-1676.811 -567.046)" fill="#d86036"/>
      <g id="Group_745" data-name="Group 745" transform="translate(230.141 24.598)">
        <path id="Path_1684" data-name="Path 1684" d="M1868.277,578.267a24.805,24.805,0,0,0,1.449-8.2l.509.116,8.547,1.956s-.275,2.7-.356,5.249c0,.022,0,.042,0,.063C1878.149,585.294,1867.666,579.828,1868.277,578.267Z" transform="translate(-1868.251 -570.07)" fill="#ffb27d"/>
        <path id="Path_1685" data-name="Path 1685" d="M1887.565,572.646l-.223,2.693c-4.806-.278-7.352-2.186-8.322-4.65Z" transform="translate(-1877.035 -570.576)" fill="#e8945b"/>
      </g>
      <path id="Path_1686" data-name="Path 1686" d="M1872.319,500.51s-11.041,2.791-12.673-4.111-4.155-11.191,2.824-13.265,8.978.236,10.083,2.406S1875.149,499.6,1872.319,500.51Z" transform="translate(-1629.609 -473.902)" fill="#ffb27d"/>
      <path id="Path_1687" data-name="Path 1687" d="M1856.215,475.462s-1.13,8.814-5.5,11.108-6.69,1.521-6.69,1.521a13.547,13.547,0,0,0,2.482-8.807S1853.019,472.145,1856.215,475.462Z" transform="translate(-1618.346 -467.589)" fill="#163560"/>
      <path id="Path_1688" data-name="Path 1688" d="M1906.93,475.773a7.064,7.064,0,0,1,3.761,1.735,11.475,11.475,0,0,1,2.99,5.986s.992-6.043-2.312-8.554C1907.868,472.279,1906.93,475.773,1906.93,475.773Z" transform="translate(-1669.658 -467.064)" fill="#163560"/>
      <path id="Path_1689" data-name="Path 1689" d="M1919.45,556.03s.384.769,2.378.166c0,0,1.674-.505,1.412-1.386A5.615,5.615,0,0,0,1919.45,556.03Z" transform="translate(-1679.87 -533.012)" fill="#fff"/>
    </g>
    <path id="Path_1715" data-name="Path 1715" d="M753.271,1272.953c-22.663,41.335-33.684,78.207-139.318,49.025-41.98-11.6-50.809,3.673-96.313,11.4q-2,.337-4.1.66c-12.623,1.921-23.852,1.646-33.815-.393a71.589,71.589,0,0,1-32.007-15.357c-17.488-14.622-28.036-36.96-33.694-60.282a190.981,190.981,0,0,1-4.355-25.733q-.733-7.232-.876-13.657s21.1,4.325,24.4,21.627a9.536,9.536,0,0,1,9.5,2.266c4.655,4.176.776,12.525-5.818,13.781,0,0,17.066,2.03,14.74,20.648,0,0,9.863-3.685,14.242,6.012,0,0,14.463-13.963,34.245-5.042s18.812,25.018,18.812,25.018,9.332-7.369,19.406-1.163,10.267,12.413,10.267,12.413,4.849-5.431,11.637-2.327c0,0,10.861-19.782,37.43-11.443a12.2,12.2,0,0,1,13.8-.474c7.358,4.655,7.358,10.182,7.358,10.182s16.873-10.182,32,5.236c0,0,9.891-4.655,18.036,0,0,0,.208-15.418,15.376-19.782,0,0-1.705-15.416,17.5-17.453s25.6,9.6,25.6,9.6S736.01,1273.008,753.271,1272.953Z" transform="translate(-408.743 -1019.646)" fill="#f8fbff" opacity="0.2"/>
    <path id="Path_1690" data-name="Path 1690" d="M540.811,949.047l-.369,1.636-1.645,7.3v0l-4.838,21.455-8.884,39.423-9.159,40.645-13.056,57.93a70.475,70.475,0,0,1-32.007-15.98c-17.488-15.215-28.036-38.46-33.694-62.728l96.857-93.418.024.012,3.035,1.671.372.205,2.841,1.562.048.027Z" transform="translate(-433.883 -804.937)" fill="#f8fbff" opacity="0.2"/>
    <g id="Group_751" data-name="Group 751" transform="translate(0.277 54.47)">
      <path id="Path_1691" data-name="Path 1691" d="M1116.927,1314.335a30.612,30.612,0,0,0-12.636,8.342c-3.241,3.477-7.526,7.17-8.875,5.942-.651-.592-1.615-4.9,2.78-8.744,4.216-3.687,2.275-10.035,6.687-11.423,3.014-.949,3.339,2.177,10.337-1.622Z" transform="translate(-973.596 -1154.277)" fill="#233862"/>
      <path id="Path_1692" data-name="Path 1692" d="M1165.1,988.769c-.382,10.59-37.071,33.391-37.071,33.391s-3.968-2.257-3.836-10.844c0,0,11.928-16.841,19.289-22.6,1.176-.918,1.174-2.7-1.956-4.956h0A24.655,24.655,0,0,0,1138,981.7s-13.952-6.783-22.523-12.463a43.975,43.975,0,0,1-4.159-3.059c-.4-.339,15.872-19.1,15.872-19.1l10.062-3.488s3.752,6.338,6.652,10.551C1146.368,957.721,1165.508,977.457,1165.1,988.769Z" transform="translate(-987.025 -858.004)" fill="#2a4e96"/>
      <path id="Path_1693" data-name="Path 1693" d="M1159.96,1065.652a24.661,24.661,0,0,0-3.527-2.057s-13.952-6.783-22.523-12.463c1.171-2.625,3.3-6.148,6.56-7,5.341-1.4,5.068,8.034,8,11.65C1151.378,1059.369,1159.829,1065.554,1159.96,1065.652Z" transform="translate(-1005.458 -939.896)" fill="#233862"/>
      <path id="Path_1694" data-name="Path 1694" d="M962.678,929.36l-.264,2.376a1.688,1.688,0,0,0,.824,1.643l3.654,2.146a3.236,3.236,0,0,0,2.327.371l3.477-.761Z" transform="translate(-865.57 -846.397)" fill="#163560"/>
      <g id="Group_747" data-name="Group 747" transform="translate(94.678 33.057)">
        <path id="Path_1695" data-name="Path 1695" d="M1088.76,747.636l-11.355-6.541a2.188,2.188,0,0,1-.8-2.983l22.332-38.769c2.219-3.851,9.422-9.07,13.274-6.851l1.115.643c3.862,2.225,2.964,11.086.741,14.948l-22.322,38.752A2.191,2.191,0,0,1,1088.76,747.636Z" transform="translate(-1053.157 -685.822)" fill="#d86036"/>
        <path id="Path_1696" data-name="Path 1696" d="M1045.016,661.54l24.979.717-33.034,55.02-14.642-4.194Z" transform="translate(-1009.119 -661.009)" fill="#d86036"/>
        <path id="Path_1697" data-name="Path 1697" d="M963.16,714.338,951.806,707.8a2.189,2.189,0,0,1-.8-2.983l22.333-38.771c2.22-3.851,9.423-9.07,13.274-6.851l1.115.643c3.862,2.225,2.964,11.086.741,14.948l-22.322,38.752A2.193,2.193,0,0,1,963.16,714.338Z" transform="translate(-950.713 -658.661)" fill="#f77d48"/>
      </g>
      <path id="Path_1698" data-name="Path 1698" d="M1311.73,553.216s27.09-7.643,31.046-9.38,16.779-18.506,16.779-18.506l3.728,2.179s-4.017,15.663-15.608,23.734c-4.524,3.151-29.986,13.141-29.986,13.141Z" transform="translate(-1150.495 -516.854)" fill="#ffb27d"/>
      <path id="Path_1699" data-name="Path 1699" d="M763.425,1357.881s-4.4,4.655-6.187,9.059-4.4,9.417-6.1,8.766c-.82-.313-3.289-3.977-.6-9.157,2.585-4.969-1.536-10.175,2.068-13.075,2.461-1.982,3.9.811,9.037-5.275Z" transform="translate(-691.766 -1188.02)" fill="#233862"/>
      <path id="Path_1700" data-name="Path 1700" d="M888.591,893.769s-29.02,36.842-41.73,48.234c-6.749,6.049-38.763,32.81-38.763,32.81a14.123,14.123,0,0,1-2.872-4.061c-1.326-3.713-.212-5.983-.212-5.983s15.879-28.616,26.491-39.294c8.691-8.744,14.564-33.458,33.834-44.786S888.591,893.769,888.591,893.769Z" transform="translate(-736.84 -804.252)" fill="#2a4e96"/>
      <path id="Path_1701" data-name="Path 1701" d="M1103.923,700.665c-7.05,19.417-9.378,25.3-13.062,25.849-28.887,4.286-37.587-1.491-40.168-6.135-.682-1.232.986-4.493,2.994-6.9l0,0c2.164-4.235,8.628-9.459,11.978-14.856a73.221,73.221,0,0,0,4.932-9.212c5.688-13.008,1.058-16.648,3.822-18.36,4.841-3,27.422-9.592,34.54-7.162,3.484,1.191-.972,8.372-.647,14.286C1108.715,685.6,1106.517,693.525,1103.923,700.665Z" transform="translate(-937.456 -629.439)" fill="#f99746"/>
      <path id="Path_1702" data-name="Path 1702" d="M1012.809,710.23s-20.586,14.12-25.08,21.505S976.66,756.36,976.66,756.36s.236,1.108,4.135.452c0,0,12.878-19.337,14.905-21.281s19.966-11.794,19.966-11.794Z" transform="translate(-877.198 -667.666)" fill="#ffb27d"/>
      <path id="Path_1703" data-name="Path 1703" d="M1327.444,661.277a22.061,22.061,0,0,1-6.619,9.065l-9.815-15.706s10.289-1.674,15.988-2.846A11.6,11.6,0,0,1,1327.444,661.277Z" transform="translate(-1149.908 -620)" fill="#f99746"/>
      <path id="Path_1704" data-name="Path 1704" d="M1133.134,677.18s-9.8,1.4-17.271,5.645c-3.1,1.759-11.084,8.764-11.084,8.764s2.229,7.288,11.391,9.482,7.208-15.392,7.208-15.392Z" transform="translate(-981.698 -640.709)" fill="#f99746"/>
      <path id="Path_1705" data-name="Path 1705" d="M1570.48,487.995s1.471-8.748,3.331-8.639,3.263,3.033,3.512,4.685-3.116,6.132-3.116,6.132Z" transform="translate(-1361.542 -479.355)" fill="#ffb27d"/>
      <path id="Path_1706" data-name="Path 1706" d="M980.62,956.048s.712,4.012.079,5.628-2.452,2.894-3.708,2.793.87-3.047.061-4.71-2.234-5.2.122-6.043S980.62,956.048,980.62,956.048Z" transform="translate(-876.562 -866.146)" fill="#ffb27d"/>
      <path id="Path_1707" data-name="Path 1707" d="M996.04,959.68a30.457,30.457,0,0,0,1.449,3.449c.527.876-1.506-.426-2.008-1.25S996.04,959.68,996.04,959.68Z" transform="translate(-892.439 -871.127)" fill="#ffb27d"/>
      <path id="Path_1708" data-name="Path 1708" d="M1087.179,808.013c-.2,4.349-4.69,12.736-9.767,14.36-5,1.6-9.636,6.128-9.782,6.27,2.164-4.235,8.628-9.459,11.978-14.856a73.233,73.233,0,0,0,4.932-9.212C1085.743,804.443,1087.318,805.015,1087.179,808.013Z" transform="translate(-951.397 -744.603)" fill="#ed7d2b"/>
      <g id="Group_748" data-name="Group 748" transform="translate(128.699 37.315)">
        <path id="Path_1709" data-name="Path 1709" d="M1150.646,697.206c-2.684,8.106-10.108,11.322-13.206,12.337-.632.2-1.084.321-1.278.367l-.09.022-.822-3.706a16.179,16.179,0,0,0,2.481-.855h0c2.9-1.233,7.529-3.975,9.312-9.36,2.463-7.441-3.837-12.645-4.642-13.27a42.151,42.151,0,0,1,4.495-.981C1149.866,685.04,1152.818,690.65,1150.646,697.206Z" transform="translate(-1135.25 -681.76)" fill="#d86036"/>
      </g>
      <path id="Path_1710" data-name="Path 1710" d="M1287.994,664.15s10.411,1.346,12.734,14.006c0,0,2.293-.822,2.762-2.762,0,0-2.852-11.239-13.79-13.226-.634-.116-3.228-.8-3.228-.8l-.1.59a15.2,15.2,0,0,0,.127,1.68A5.786,5.786,0,0,0,1287.994,664.15Z" transform="translate(-1129.81 -627.814)" fill="#d86036"/>
      <g id="Group_749" data-name="Group 749" transform="translate(146.601 28.002)">
        <path id="Path_1711" data-name="Path 1711" d="M1232.381,640.572a28.255,28.255,0,0,0,1.65-9.332l.579.133,9.73,2.227s-.313,3.073-.406,5.975c0,.024,0,.048,0,.072C1243.621,648.573,1231.686,642.351,1232.381,640.572Z" transform="translate(-1232.352 -631.24)" fill="#ffb27d"/>
        <path id="Path_1712" data-name="Path 1712" d="M1254.339,634.2l-.254,3.068c-5.472-.315-8.37-2.489-9.474-5.293Z" transform="translate(-1242.35 -631.835)" fill="#e8945b"/>
      </g>
      <g id="Group_750" data-name="Group 750" transform="translate(138.552 5.309)">
        <path id="Path_1713" data-name="Path 1713" d="M1237.871,554.664s-11.823,5.147-14.906-2.142-6.683-11.534.736-15.129,10.072-1.429,11.7.752S1240.867,553.137,1237.871,554.664Z" transform="translate(-1213.678 -530.437)" fill="#ffb27d"/>
        <path id="Path_1714" data-name="Path 1714" d="M1189.7,516.426c-.144-.1-.43-.138-1.012-.024a2.414,2.414,0,0,1,1-.575,2.983,2.983,0,0,1,1.272-3.046,1.775,1.775,0,0,0-.52,1.456c1.178-2.041,4.29-4.1,13.932-5.75,12.708-2.177,10.626,6.842,9.255,8.2s-6.093-.218-9.037.784-2.415,5.488-3.283,6.344-.736-.3-2.273-.575-1.089,2.045-.313,3.431-.623,3.825-.623,3.825l-2.439-1.576c-2.439-1.576-6.46-9.856-6.062-11.939C1189.632,516.8,1189.667,516.614,1189.7,516.426Z" transform="translate(-1188.69 -508.15)" fill="#2c3a64"/>
      </g>
    </g>
  </g>
</svg>
