<svg xmlns="http://www.w3.org/2000/svg" width="947.876" height="485.907" viewBox="0 0 947.876 485.907">
  <g id="quote-team-illustartion" transform="translate(-2222.166 -865.39)">
    <g id="Group_489" data-name="Group 489" transform="translate(2163.88 865.39)">
      <g id="Group_488" data-name="Group 488" transform="translate(58)">
        <path id="Path_1438" data-name="Path 1438" d="M3739.816,2145.724c-9.5-6.944-28.919-2.257-43.249,2.758a65.512,65.512,0,0,0-7.876-9.14c30.872-19.885,73.507-62.3,50.91-65.886-19.645-3.122-46.156,35.052-60.325,58.291-14.713-9.9-37.26-17.175-71.682-14.651-89.333,6.55-159.119-51.075-210.562-31.855-40.9,15.282-78.385,23.841-114.537,20.919,1.556-26.407,1.892-78.258-18.844-83.64-21.052-5.46-.4,53.425,11.075,82.826q-4.041-.516-8.061-1.233c-7.433-14.654-19.68-33.831-33.125-34.488-12.664-.616,2.965,16.622,18.346,31.23-44.209-9.281-96.65,26.656-97.518,69.144h551.915a51.176,51.176,0,0,0-5.309-14.38C3722.306,2155.2,3750.136,2153.267,3739.816,2145.724Z" transform="translate(-2867.508 -1687.476)" fill="#a8d29f"/>
        <g id="Group_473" data-name="Group 473" transform="translate(216.938 449.684)">
          <g id="Group_472" data-name="Group 472">
            <rect id="Rectangle_67" data-name="Rectangle 67" width="145.463" height="32.848" transform="translate(44.852 0.003)" fill="#4a75cb"/>
            <rect id="Rectangle_68" data-name="Rectangle 68" width="145.463" height="32.848" fill="#699dee"/>
          </g>
        </g>
        <g id="Group_476" data-name="Group 476" transform="translate(431.082 331.128)">
          <g id="Group_475" data-name="Group 475" transform="translate(0 0.003)">
            <g id="Group_474" data-name="Group 474">
              <rect id="Rectangle_69" data-name="Rectangle 69" width="108.313" height="151.394" transform="translate(141.71 151.394) rotate(180)" fill="#d86713"/>
              <rect id="Rectangle_70" data-name="Rectangle 70" width="108.313" height="151.394" transform="translate(108.313 151.394) rotate(180)" fill="#f1a34f"/>
            </g>
          </g>
          <path id="Path_1439" data-name="Path 1439" d="M4027.191,2009.86l33.4,22.733V2009.86Z" transform="translate(-3918.878 -2009.86)" fill="#c95c12"/>
        </g>
        <g id="Group_479" data-name="Group 479" transform="translate(15.395 280.369)">
          <path id="Path_1440" data-name="Path 1440" d="M2669.716,2115.857s-20.256,15.063-24.206,14.148,14.805-16.26,14.805-16.26c-7.057-3.394-28.994-1.264-28.994-1.264s-7.305,23.563-10.911,21.705,7.534-20.533,7.534-20.533c-7.861-.474-17.5,5.361-17.5,5.361-13.2,10.422.868,26.829.868,26.829a40.078,40.078,0,0,1-11.043,15.5s-11.9,8.8-12.73,24.532l2.161.194s3.426-14.648,9.649-21.578c.243-.251.593-.61,1.027-1.047,1.012-.937,1.724-1.643,2.2-2.167,3.1-2.977,7.378-6.767,9.441-7.134a3.906,3.906,0,0,1-.087-1.036c.029.333.058.674.087,1.036.706,8.292,16.8,15.534,26.693,17.024s6.837-2.578,3.429-8.611-14.2-8.732-16.666-11.509,2.627-2.783,8.593-.061,6.779,9.985,16.347,14.568,23.962-11.293,23.962-11.293c-7.625-.388-18.512-8.668-18.118-11.2s18.483,4.372,21.573,4.7,10.126-3.515,11.214-15.971S2669.716,2115.857,2669.716,2115.857Z" transform="translate(-2480.073 -2031.562)" fill="#82b378"/>
          <g id="Group_477" data-name="Group 477" transform="translate(0 35.708)">
            <path id="Path_1441" data-name="Path 1441" d="M2298.168,2015.782s22.374-12.528,11.932-29.532c0,0-8.353-10.442-17.3-13.127,0,0,4.774,25.357,0,25.953s-3.281-28.638-3.281-28.638S2265.951,1959.1,2256.7,1960c0,0,14.617,24.761,9.843,24.162s-21.178-25.655-21.178-25.655-24.162-4.476-28.042,9.843,2.387,21.477,5.966,22.374,26.549.6,25.953,3.579-16.107,7.757-24.758,5.072c0,0,9.545,23.566,22.076,22.374s16.408-8.949,24.161-9.545,13.425,1.493,9.545,3.579-17,.683-23.268,6.009-11.335,8.608.3,10.995,32.515.894,36.69-8.055Z" transform="translate(-2216.103 -1957.841)" fill="#a8d29f"/>
            <path id="Path_1442" data-name="Path 1442" d="M2334.25,2074.362c-6.264-11.634-5.966-21.775-5.966-21.775-7.158-22.672-69.8-42.957-69.8-42.957,79.646,32.217,65.626,51.906,65.626,51.906,2.146,1.253,5.364,7.222,7.6,11.8.319.778.822,1.858,1.571,3.322h0c.3.663.547,1.2.715,1.583,4.1,10.26,1.93,27.981,1.93,27.981l2.485.668C2343.91,2089.034,2334.25,2074.362,2334.25,2074.362Z" transform="translate(-2246.219 -1994.646)" fill="#82b378"/>
          </g>
          <g id="Group_478" data-name="Group 478" transform="translate(98.27)">
            <path id="Path_1443" data-name="Path 1443" d="M2575.139,1910.794s-29.491-16.515-15.728-38.929c0,0,11.009-13.763,22.808-17.3,0,0-6.292,33.423,0,34.21s4.326-37.749,4.326-37.749,31.065-14.944,43.255-13.763c0,0-19.27,32.636-12.977,31.852s27.92-33.817,27.92-33.817,31.852-5.9,36.962,12.977-3.145,28.311-7.864,29.491-35,.787-34.21,4.719,21.234,10.225,32.636,6.683c0,0-12.583,31.065-29.1,29.491s-21.627-11.8-31.852-12.583-17.7,1.965-12.583,4.719,22.414.9,30.672,7.922,14.943,11.345-.394,14.493-42.861,1.181-48.367-10.618Z" transform="translate(-2555.751 -1834.423)" fill="#a8d29f"/>
            <path id="Path_1444" data-name="Path 1444" d="M2676.527,1902.67s-82.577,26.74-92.012,56.625c0,0,.394,13.37-7.864,28.7,0,0-12.733,19.339-5.474,42.879l3.275-.88s-2.865-23.357,2.543-36.884c.22-.5.541-1.212.94-2.086h0c.986-1.929,1.652-3.353,2.068-4.38,2.946-6.039,7.188-13.908,10.017-15.558C2590.018,1971.091,2571.535,1945.138,2676.527,1902.67Z" transform="translate(-2565.124 -1882.925)" fill="#82b378"/>
          </g>
          <path id="Path_1445" data-name="Path 1445" d="M2477.438,2380.321a57.77,57.77,0,0,0,57.771-57.77H2419.67A57.764,57.764,0,0,0,2477.438,2380.321Z" transform="translate(-2360.772 -2181.322)" fill="#f1a34f"/>
          <path id="Path_1446" data-name="Path 1446" d="M2508.936,2379.878a57.8,57.8,0,0,1-64.946-57.327h14.351A57.781,57.781,0,0,0,2508.936,2379.878Z" transform="translate(-2378.056 -2181.322)" fill="#ffb973"/>
          <path id="Path_1447" data-name="Path 1447" d="M2526.917,2508.49h-102.88a7.127,7.127,0,0,0-7.126,7.126h117.135A7.132,7.132,0,0,0,2526.917,2508.49Z" transform="translate(-2358.812 -2313.463)" fill="#f1a34f"/>
          <path id="Path_1448" data-name="Path 1448" d="M2530.957,2322.551H2413.976a.885.885,0,0,0,0,1.771h116.981a.885.885,0,0,0,0-1.771Z" transform="translate(-2356.096 -2181.322)" fill="#d86713"/>
        </g>
        <g id="Group_480" data-name="Group 480" transform="translate(433.698 58.086)">
          <path id="Path_1449" data-name="Path 1449" d="M4121.3,1250.524c-1.676-.255-6.721,4.409-6.721,4.409h0c-10.775,1.245-26.529,4.106-32.2,5.2-4.021.775-14.831-2.911-25.391-7.144-12.56-5.034-24.764-10.844-24.764-10.844-6.97-.356-14.883,12.36-.75,20.444,2.159,1.235,10.265,3.339,19.6,5.263h0c12.878,2.653,28.088,4.956,33.267,4.146,6.015-.94,23.043-7.169,33.169-11.941h0a.125.125,0,0,1,.026-.012l.113-.052a12.393,12.393,0,0,1,4.741-1.291c1.9.113,6.123-3.359,6.253-4.288S4122.974,1250.779,4121.3,1250.524Z" transform="translate(-3918.96 -1191.218)" fill="#ed975d"/>
          <path id="Path_1450" data-name="Path 1450" d="M4054.514,1556.7l-5.932,1.207s-27.147-30.5-31.337-43.339c-2.242-6.86-16.573-9.823-31.551-13.7-13.037-3.371-26.563-7.433-33.021-15.355-13.885-17.024,8.72-37.943,8.72-37.943s24.035,14.284,44.768,29.04c14.492,10.312,27.373,20.855,29.312,26.916C4040.186,1518.259,4050.182,1546.269,4054.514,1556.7Z" transform="translate(-3865.331 -1337.214)" fill="#2b478b"/>
          <path id="Path_1451" data-name="Path 1451" d="M4281.631,1829.8h3.335c1.118-.177,1.945-.5,3.091-.648a3.1,3.1,0,0,1,2.7.648c.022.023.032.035.032.035h14.174c.356-.509.014-1.69-.321-2.557a2.015,2.015,0,0,0-1.327-1.212c-1.505-.434-4.468-.822-7.182-3.281-1.527-1.38-7.373-5.072-7.373-5.072l-.031-.006c-.127,0-.741.191-3.4,2.436-1.375,1.157-3.718-1.637-3.718-1.637a3.36,3.36,0,0,0-.77,1.042,3.527,3.527,0,0,0-.3,2.176c.211,1.279-.471,3.651-1.015,5.257-.33.972-.608,1.664-.608,1.664S4278.761,1829.445,4281.631,1829.8Z" transform="translate(-4100.388 -1600.262)" fill="#233862"/>
          <path id="Path_1452" data-name="Path 1452" d="M4006.157,1476.61l-20.464,24.258c-13.037-3.371-26.563-7.433-33.021-15.355-13.885-17.024,8.72-37.943,8.72-37.943S3985.424,1461.852,4006.157,1476.61Z" transform="translate(-3865.331 -1337.214)" fill="#1e3d70"/>
          <path id="Path_1453" data-name="Path 1453" d="M3922.38,1481.53s-1.649,5.2-4.337,13.031c-3.4,9.9-8.454,23.988-13.943,37.057-1.207,2.87-2.433,5.694-3.668,8.414-4.563,10.057-9.235,18.676-13.347,23.059-7.389,7.876-25.354,58.508-25.354,58.508l-4.476-1.238s-6.241-43.234,15.867-67.836a1.563,1.563,0,0,0,.448-.917.011.011,0,0,0,0-.009c.3-3.643,1.346-19.949,3.637-36.476.564-4.053,1.2-8.119,1.916-12.013.043-.249.093-.495.135-.741,3.365-18.008,6.585-26.019,10.74-30.05l30.568,8.7Z" transform="translate(-3800.148 -1354.803)" fill="#2b478b"/>
          <path id="Path_1454" data-name="Path 1454" d="M3850.853,1980.044h3.336c1.117-.176,1.945-.5,3.09-.648a3.1,3.1,0,0,1,2.7.648.407.407,0,0,1,.031.035h14.175c.356-.509.014-1.69-.321-2.558a2.014,2.014,0,0,0-1.328-1.212c-1.5-.434-4.467-.821-7.181-3.281-1.527-1.38-7.372-5.072-7.372-5.072l-.032-.006c-.127,0-.741.191-3.4,2.436-1.374,1.157-3.718-1.637-3.718-1.637a3.367,3.367,0,0,0-.77,1.041,3.522,3.522,0,0,0-.3,2.176c.211,1.276-.472,3.651-1.016,5.257-.33.972-.611,1.664-.611,1.664S3847.98,1979.686,3850.853,1980.044Z" transform="translate(-3794.245 -1707.033)" fill="#233862"/>
          <path id="Path_1455" data-name="Path 1455" d="M3725.04,1296.024s-5.115,12.51-11.012,24.691c-4.959,10.24-10.471,20.242-13.966,22.377-4.927,3.009-18.5,11.5-27.307,17.834,0,0-6.872-.052-7.939,1.264s-3.53,7.228-2.812,7.824,6.182.321,7.508-1.039a12.419,12.419,0,0,1,4.375-2.239c.041-.012.078-.023.119-.038l.026-.009h0c10.7-3.293,27.483-10.15,32.564-13.5,4.375-2.888,14.07-14.834,21.807-25.464h0c5.607-7.7,10.184-14.721,10.948-17.088C3744.365,1295.142,3729.953,1291.068,3725.04,1296.024Z" transform="translate(-3661.875 -1228.098)" fill="#ffb27d"/>
          <path id="Path_1456" data-name="Path 1456" d="M3900.875,1085.011a25.789,25.789,0,0,0-1.832-2.367,5.723,5.723,0,0,0,2.257-.339c1.8-.744,2.613-6.441,2.344-8.133s-2.763-6.579-5.836-7.066-6.252,2.928-6.252,2.928c.567-2.465,5.772-3.886,5.772-3.886-10.717,1.976-10.169,9.123-10.1,9.782-9.811-3.5-15.569,14.979-15.569,14.979l25.412,14.976s.066-4.08,2.491-3.816C3903.342,1102.478,3906.49,1093.193,3900.875,1085.011Z" transform="translate(-3810.964 -1066.15)" fill="#2c3a64"/>
          <path id="Path_1457" data-name="Path 1457" d="M3932.712,1215.4c-5.83,2.749-13.566-1.209-13.526-1.253.5-.5.324-2-.133-3.955a28.861,28.861,0,0,0-3.538-8.162c-.417-.709-.833-1.415-1.334-2.167l.666-.249,11.327-4.539s1.831,3.29,3.749,6.287c1.623,2.5,3.331,4.748,4.083,4.664C3934.043,1205.984,3941.54,1211.145,3932.712,1215.4Z" transform="translate(-3841.181 -1157.77)" fill="#ffb27d"/>
          <path id="Path_1458" data-name="Path 1458" d="M3929.449,1198.96c-.292,4.039-1.667,11.327-7.121,13.995a28.847,28.847,0,0,0-3.538-8.162Z" transform="translate(-3844.458 -1160.534)" fill="#ed975d"/>
          <path id="Path_1459" data-name="Path 1459" d="M3885.62,1165.017s14.748-5.812,10.986-14.941-4.392-16.026-13.966-12.7-9.959,7.557-9.444,10.911S3881.686,1166.293,3885.62,1165.017Z" transform="translate(-3811.953 -1116.164)" fill="#ffb27d"/>
          <path id="Path_1460" data-name="Path 1460" d="M3886.657,1145.646c6.811-.961,8.8-3.715,8.8-3.715a18.863,18.863,0,0,1-9.956-7.942s-7.653-2.581-13.327,1.733a3.831,3.831,0,0,0-.718,1.6c-1.3-.425-3.255-.315-4.383,3.359-1.7,5.52,4.333,11.547,4.333,11.547,1.462-.414-.188-5.332-.416-7.957-.168-1.933.874-4.406,1.435-5.578.721.938,7.908,9.964,16.677,10.326a36.934,36.934,0,0,1-8.85-4.754A11.279,11.279,0,0,0,3886.657,1145.646Z" transform="translate(-3807.489 -1113.817)" fill="#2c3a64"/>
          <path id="Path_1461" data-name="Path 1461" d="M3918,1257.356c-.125-.44-.261-.9-.4-1.366a34.588,34.588,0,0,0,3.723-11.154c1-6.747-.709-10.913-.709-10.913s-10.23-5.425-14.747-6.116a.231.231,0,0,0-.055-.017c-.052-.009-.116-.012-.182-.017-4.56-.628-14.432,1.386-14.432,1.386s1.9,5.069-3.469,8.448-11.11-.865-11.11-.865c-.174.116-.359.246-.547.379h0s-14.137,9.325-15.4,11.457-6.7,12.684-6.7,12.684,1.725,8.859,20.821,9.6a44.142,44.142,0,0,1,3.162,10.618c1.516,12.024-.243,21.511,1.525,28.531s33.628,3.018,39.4,1.667,4.473-7.511,4.916-13.5C3924.334,1290.663,3919.873,1263.99,3918,1257.356Z" transform="translate(-3798.385 -1180.924)" fill="#699dee"/>
          <path id="Path_1462" data-name="Path 1462" d="M4063.238,1280.3a34.657,34.657,0,0,1-3.748,11.2c-.5-2.207-2.54-10.286-5.83-13.951A28.254,28.254,0,0,1,4063.238,1280.3Z" transform="translate(-3940.306 -1216.386)" fill="#4a82d3"/>
        </g>
        <g id="Group_484" data-name="Group 484" transform="translate(258.147 132.254)">
          <path id="Path_1463" data-name="Path 1463" d="M3638.239,1534.6s5.937-7.193,7.213-8.043,6.883-2.341,7.2-2.04.335.735-.359,1.348-3.345,2.161-2.969,2.335,8.379-3.807,9.531-2.468-.654,6.869-3.735,9.519-12.285,3.781-12.864,4.152C3637.356,1542.536,3638.239,1534.6,3638.239,1534.6Z" transform="translate(-3469.482 -1466.036)" fill="#ed975d"/>
          <path id="Path_1464" data-name="Path 1464" d="M3277.2,1455.286s8.526,10.118,19.388,5.885c0,0,2.338-5.651,2.37-9.814,0-.512.012-1.01.018-1.481.058-4.69.217-7.323.217-7.323l-.011,0c-.495-.206-16.6-6.82-16.587-6.27C3282.868,1448.965,3277.2,1455.286,3277.2,1455.286Z" transform="translate(-3212.947 -1403.337)" fill="#ffb27d"/>
          <path id="Path_1465" data-name="Path 1465" d="M3301.395,1446.527c1.554,2.879,6.883,8.512,14.764,10.569.058-4.69.217-7.323.217-7.323l-.011,0C3315.919,1449.652,3300.935,1445.677,3301.395,1446.527Z" transform="translate(-3230.134 -1410.557)" fill="#ed975d"/>
          <path id="Path_1466" data-name="Path 1466" d="M3307.534,1383.024s-18.111,4.259-20.591-7.063-6.486-18.4,4.974-21.593,14.66.628,16.4,4.207S3312.181,1381.626,3307.534,1383.024Z" transform="translate(-3217.918 -1344.296)" fill="#ffb27d"/>
          <path id="Path_1467" data-name="Path 1467" d="M3264.889,1357.249c-.249.159-4.146,1.357-11.527-13.35a12.81,12.81,0,0,1,.752-11.712c2.7-4.412,12.276-7.881,20.235-9.392s9.866,2.969,11.741,7.468c1.967,4.725,7.647,8.613,7.647,8.613-6.86,3.833-15.126-1.649-17.988-.747s-3.874,5.413-4.088,6.86-.544,2.647-4.146,1.357-1.629,5.1-1.051,6.325C3266.465,1352.669,3266.954,1355.924,3264.889,1357.249Z" transform="translate(-3195.245 -1322.497)" fill="#a9453d"/>
          <g id="Group_481" data-name="Group 481" transform="translate(0 139.064)">
            <path id="Path_1468" data-name="Path 1468" d="M3078.106,2352.195h-10.968c-2.3,0-4.855-2.332-5.495-6.605s-5.364-6.6-6.388-10.1,4.218-8.419,4.218-8.419l.877-1.14.911-1.189,8.688,2.072s.214,2.1.347,4.768c.093,1.927.145,4.157.035,6.111-.255,4.664,1.288,9.681,5.375,10.589S3078.106,2352.195,3078.106,2352.195Z" transform="translate(-3055.122 -2173.826)" fill="#2c3a64"/>
            <path id="Path_1469" data-name="Path 1469" d="M3322.157,2379.959h-29.072a2.457,2.457,0,0,1-.616-.185c-1.941-1-1.334-8.651-1.1-11.015.046-.437.075-.694.075-.694s10.222-8.419,11.631-1.973c.043.2.1.4.151.594v0c1.776,6.033,9.707,8.77,14.29,9.537C3321.014,2376.809,3321.923,2378.909,3322.157,2379.959Z" transform="translate(-3222.819 -2201.487)" fill="#2c3a64"/>
            <path id="Path_1470" data-name="Path 1470" d="M3271.659,1832.322s-1.554,19.371-3.376,42.656c-2.479,31.632-5.463,70.483-5.758,77.844-.51,12.78-2.558,33.227-2.558,33.227s-4.852,4.858-14.567,2.81c0,0-8.657-29.185-11.128-60.065-.038-.506-.075-1.016-.116-1.525-2.3-31.435-5.876-97.628-5.876-97.628Z" transform="translate(-3178.18 -1821.973)" fill="#ee9849"/>
            <path id="Path_1471" data-name="Path 1471" d="M3271.659,1832.322s-1.554,19.371-3.376,42.656l-34.01,53.815c-.038-.506-.075-1.016-.116-1.525-2.3-31.435-5.876-97.628-5.876-97.628Z" transform="translate(-3178.18 -1821.973)" fill="#e58638"/>
            <path id="Path_1472" data-name="Path 1472" d="M3152.2,1815.79s-27.984,70.154-46.385,103.123-24.15,42.17-24.15,42.17-10.543-4.218-11.5-7.091c0,0,7.036-63.647,19.359-79.163,6.964-8.766,15.144-35.075,15.525-44.276s2.491-27.411,2.491-27.411Z" transform="translate(-3065.809 -1803.14)" fill="#ee9849"/>
          </g>
          <g id="Group_482" data-name="Group 482" transform="translate(8.598 53.072)">
            <path id="Path_1473" data-name="Path 1473" d="M3098.554,1797.978s-.723,8.761-1.256,10.106-4.068,5.515-4.479,5.457-.654-.388-.449-1.238,1.427-3.472,1.042-3.406-4.436,7.456-6.05,7.039-3.191-5.668-2.231-9.377,7.474-9.536,7.723-10.132C3094.966,1791.358,3098.554,1797.978,3098.554,1797.978Z" transform="translate(-3084.839 -1711.02)" fill="#ed975d"/>
            <path id="Path_1474" data-name="Path 1474" d="M3112.4,1595.11c3.1,1,3.594.77,3.594.77s15.077-27.449,16.6-29.96,32.009-30.779,32.009-30.779l-7.832-29.21s-34.67,44.9-38.414,51.338c-6.186,10.645-9.812,35.37-9.812,35.37A9.081,9.081,0,0,0,3112.4,1595.11Z" transform="translate(-3101.69 -1505.931)" fill="#1e3d70"/>
          </g>
          <path id="Path_1475" data-name="Path 1475" d="M3251.443,1530.552c-.11,6-.457,12.742-.929,19.593-.029.4-.058.813-.087,1.218-.3,4.244-.628,8.5-1,12.644q-.226,2.5-.478,4.922l-.026.217c-.012.6-.087,1.259-.153,1.857-1.528,15.534-3.131,27.807-3.429,28a1.738,1.738,0,0,1-1.192.3c-4.074-.512-16.229.413-26.179-1.753-8.4-1.771-15.626-5.13-23.288-9.658-1.016-.6-3.336-2.193-3.148-3.382.185-1.308.526-3.2.964-5.573a301.8,301.8,0,0,0,5.005-39.112q.26-4.648.752-9.169a138.866,138.866,0,0,1,4.059-21.894c3.412-12.285,8.425-21.694,14.715-25.374.822-.46,5.246,2.352,9.3,4.959a17.932,17.932,0,0,0,11.541,2.734l3.38,3.738c4.094,4.759,8.452,11.093,9.641,20.1.09.665.168,1.371.229,2.124A131.286,131.286,0,0,1,3251.443,1530.552Z" transform="translate(-3152.059 -1436.802)" fill="#2a4e96"/>
          <path id="Path_1476" data-name="Path 1476" d="M3330.161,1596.4c-.11,6-.457,12.742-.929,19.593-.029.405-.058.813-.087,1.218-23.268-14.565-26.855-41.218-26.855-41.218,11.449.5,20.542,3.133,27.549,6.9A130.006,130.006,0,0,1,3330.161,1596.4Z" transform="translate(-3230.778 -1502.647)" fill="#1e3d70"/>
          <g id="Group_483" data-name="Group 483" transform="translate(69.448 59.057)">
            <path id="Path_1477" data-name="Path 1477" d="M3397.994,1536.834c-1.2-3.246-3.064-3.035-3.064-3.035s-34.6,8.622-37.7,8.992-37.257-13.335-37.257-13.335-13.442-6.032-19.738-.524c-5.471,4.788-5.72,10.85-4.441,15.942a15.223,15.223,0,0,0,12.867,11.341c13.934,1.774,41.733,5.115,47.56,4.305,12.968-1.805,42.352-18.766,42.352-18.766A10.949,10.949,0,0,0,3397.994,1536.834Z" transform="translate(-3295.152 -1526.613)" fill="#2a4e96"/>
          </g>
        </g>
        <g id="man_2_" transform="translate(600.471)">
          <g id="Group_485" data-name="Group 485" transform="translate(83.907 124.021)">
            <path id="Path_1478" data-name="Path 1478" d="M4786.952,1775.932s4.805,4.456,3.868,7.621-5.277,5.275-5.862,9.146-2.93,5.978-5.04,5.978h-10.061s-1.554-2.723,2.2-3.544,5.167-5.367,4.933-9.588a75.606,75.606,0,0,1,.35-9.849l7.971-1.875Z" transform="translate(-4699.739 -1635.006)" fill="#2c3a64"/>
            <path id="Path_1479" data-name="Path 1479" d="M4555.6,1822.644a18.458,18.458,0,0,1-4.554.526h-22.75c.075-.677.6-3.09,4.326-3.689,4.2-.683,11.483-3.125,13.106-8.5.055-.171.1-.35.141-.526,1.291-5.743,10.667,1.756,10.667,1.756s.026.229.067.622C4556.819,1814.945,4557.374,1821.756,4555.6,1822.644Z" transform="translate(-4528.291 -1659.5)" fill="#2c3a64"/>
            <path id="Path_1480" data-name="Path 1480" d="M4547.09,1320.8s1.424,17.774,3.1,39.135c2.277,29.02,5.01,64.665,5.282,71.418.469,11.726,2.347,30.484,2.347,30.484s4.453,4.455,13.364,2.578c0,0,7.942-26.775,10.21-55.105.035-.463.07-.932.1-1.4,2.109-28.84,5.393-89.57,5.393-89.57Z" transform="translate(-4541.651 -1311.309)" fill="#35488b"/>
            <path id="Path_1481" data-name="Path 1481" d="M4547.09,1320.8s1.424,17.774,3.1,39.135l31.2,49.374c.035-.463.07-.932.1-1.4,2.109-28.84,5.392-89.57,5.392-89.57Z" transform="translate(-4541.651 -1311.309)" fill="#2c3a64"/>
            <path id="Path_1482" data-name="Path 1482" d="M4569.58,1305.645s25.675,64.364,42.559,94.611,22.156,38.689,22.156,38.689,9.672-3.868,10.552-6.507c0,0-6.456-58.392-17.762-72.627-6.389-8.043-13.891-32.182-14.243-40.622s-2.286-25.149-2.286-25.149Z" transform="translate(-4557.634 -1294.04)" fill="#35488b"/>
          </g>
          <g id="Group_486" data-name="Group 486" transform="translate(0 49.391)">
            <path id="Path_1483" data-name="Path 1483" d="M4254.947,1209.776s-6.964-1.591-8.136-1.513-5.271,1.8-5.327,2.129.14.6.849.651,3.04-.252,2.893.032-6.866,1.6-6.938,2.954,3.6,3.865,6.715,4.033,9.225-3.443,9.748-3.489C4259.191,1214.18,4254.947,1209.776,4254.947,1209.776Z" transform="translate(-4238.287 -1158.45)" fill="#ffb27d"/>
            <path id="Path_1484" data-name="Path 1484" d="M4283.635,1089.195c-1-3.182-.764-3.689-.764-3.689s28.23-15.265,30.813-16.813,31.757-32.593,31.757-32.593l29.882,8.226s-46.241,35.226-52.869,39.019c-10.952,6.27-36.313,9.817-36.313,9.817A9.3,9.3,0,0,1,4283.635,1089.195Z" transform="translate(-4269.954 -1036.1)" fill="#e58638"/>
          </g>
          <path id="Path_1485" data-name="Path 1485" d="M4470.822,949.807s-10.477,18.433-20.716,20.837c0,0,.425-6.192,2.919-10.427-1.021-1.2-1.918-2.312-2.693-3.3a61.645,61.645,0,0,1-3.8-5.324l3.474-9.343,2.358-6.339a30.435,30.435,0,0,0,3.686,5.309A25.06,25.06,0,0,0,4470.822,949.807Z" transform="translate(-4386.28 -915.507)" fill="#ffb27d"/>
          <path id="Path_1486" data-name="Path 1486" d="M4456.046,954.253s1.25,9.235-5.714,15.7a61.615,61.615,0,0,1-3.8-5.324l3.474-9.342A19.789,19.789,0,0,1,4456.046,954.253Z" transform="translate(-4386.28 -928.541)" fill="#ed975d"/>
          <path id="Path_1487" data-name="Path 1487" d="M4404.449,920.666s15.652-6.1,11.7-15.792-4.592-17-14.749-13.515-10.585,7.971-10.052,11.524S4400.277,922,4404.449,920.666Z" transform="translate(-4346.962 -883.218)" fill="#ffb27d"/>
          <path id="Path_1488" data-name="Path 1488" d="M4530.857,1072.2c-6.316,9.079-53.523,21.208-52.961,14.924a68.211,68.211,0,0,0-.006-12.395c-.12-1.345-.284-2.772-.5-4.282a98.642,98.642,0,0,0-10.4-31.161q-.716-1.38-1.486-2.789a96.019,96.019,0,0,1-6.546-14.707c-3.272-9.452-4.588-18.494-2.94-24.408.006-.029.018-.055.027-.084,9.869-4.563,13.691-22.258,13.691-22.258s33.667,6.044,52.525,50.919C4522.256,1025.962,4536.351,1064.3,4530.857,1072.2Z" transform="translate(-4392.513 -943.315)" fill="#ee9849"/>
          <path id="Path_1489" data-name="Path 1489" d="M4506.585,1168.118c-.119-1.345-.284-2.772-.5-4.282a98.7,98.7,0,0,0-10.4-31.161c1.09-6.614,2.6-12.111,4.25-14.588,6.716-10.063,10.624-11.637,10.624-11.637S4520.625,1148.915,4506.585,1168.118Z" transform="translate(-4421.209 -1036.705)" fill="#e58638"/>
          <g id="Group_487" data-name="Group 487" transform="translate(12.891 40.551)">
            <path id="Path_1490" data-name="Path 1490" d="M4302.255,1284.67s-9.313.489-10.757,1.01-5.977,4.137-5.928,4.574.39.706,1.3.512,3.727-1.4,3.642-1-8.046,4.464-7.655,6.189,5.909,3.565,9.873,2.665,10.349-7.621,10.991-7.864C4309.162,1288.686,4302.255,1284.67,4302.255,1284.67Z" transform="translate(-4282.842 -1203.911)" fill="#ffb27d"/>
            <path id="Path_1491" data-name="Path 1491" d="M4341.44,1089.836c-1.867-3.015-.521-4.389-.521-4.389s28.771-22.527,31.025-24.8,12.7-38.513,12.7-38.513,3.6-14.666,12.016-16.28c7.317-1.406,12.371,2.213,15.682,6.458a15.6,15.6,0,0,1,1.055,17.548c-7.346,12.377-22.165,36.947-26.49,41.145-9.632,9.343-41.854,22.4-41.854,22.4A11.192,11.192,0,0,1,4341.44,1089.836Z" transform="translate(-4323.783 -1005.544)" fill="#ee9849"/>
          </g>
          <path id="Path_1492" data-name="Path 1492" d="M4404.061,869.047c.11-.217.428-.448,1.207-.686a3.242,3.242,0,0,0-1.577-.058c-.439-1.073-1.507-2.9-3.513-2.914a2.469,2.469,0,0,1,1.574,1.45c-2.745-1.742-7.835-2.245-20.54,1.985-16.743,5.575-8.379,15.3-5.841,16.075s7.21-4.221,11.411-4.9,6.476,5.17,8.078,5.656.691-.845,2.369-2.182,2.642,1.805,2.6,4.007,3.235,4.294,3.235,4.294l1.918-3.518c1.917-3.518,1.4-16.292-.437-18.592C4404.388,869.461,4404.229,869.255,4404.061,869.047Z" transform="translate(-4332.625 -865.39)" fill="#2b478b"/>
        </g>
        <path id="Path_1493" data-name="Path 1493" d="M3110.756,2536.505H2164.882a1,1,0,0,1-1-1v-1.383a1,1,0,0,1,1-1h945.875a1,1,0,0,1,1,1v1.38A1.006,1.006,0,0,1,3110.756,2536.505Z" transform="translate(-2163.595 -2050.598)" fill="#ebebeb" opacity="0.3"/>
        <path id="Path_1494" data-name="Path 1494" d="M3460.3,2418.35V2437.3l-44.852-18.948Z" transform="translate(-3053.05 -1969.034)" fill="#4271bc"/>
        <rect id="Rectangle_71" data-name="Rectangle 71" width="148.336" height="194.831" transform="translate(642.772 287.691)" fill="#4a75cb"/>
        <rect id="Rectangle_72" data-name="Rectangle 72" width="148.339" height="194.834" transform="translate(597.032 287.691)" fill="#699dee"/>
        <path id="Path_1495" data-name="Path 1495" d="M4784.839,1859.73v29.135L4739.1,1859.73Z" transform="translate(-3993.73 -1572.039)" fill="#4271bc"/>
      </g>
    </g>
  </g>
</svg>
