<svg xmlns="http://www.w3.org/2000/svg" xmlns:xlink="http://www.w3.org/1999/xlink" width="2450" height="844.066" viewBox="0 0 2450 844.066">
  <defs>
    <clipPath id="clip-path">
      <rect width="222.16" height="335.66" fill="none"/>
    </clipPath>
  </defs>
  <g id="quote-illustration" transform="translate(-140 -1985)" opacity="0.36">
    <path id="Path_1437" data-name="Path 1437" d="M2291.692,1944.145s-210.655-437.562,204.519-437.562c219.363,0,129-120.05,278.136-258.987s670.714-249.938,781.724,18.35-163.337,471.992,101.762,437.049c318.57-41.99,444.419,241.145,444.419,241.145H2291.692Z" transform="translate(-1512.253 882.855)" fill="#075369" opacity="0.2"/>
    <g id="Group_526" data-name="Group 526" transform="translate(78 2183.116)" opacity="0.64">
      <path id="Path_1497" data-name="Path 1497" d="M759.79,367.72V275.33A167.619,167.619,0,0,0,592.17,442.95h92.39A75.222,75.222,0,0,1,759.79,367.72Z" transform="translate(1082.21 203)" fill="#075369"/>
    </g>
    <g id="Group_756" data-name="Group 756">
      <g id="Repeat_Grid_1" data-name="Repeat Grid 1" transform="translate(140 2289.926)" clip-path="url(#clip-path)">
        <g transform="translate(-162 -2298.926)">
          <g id="Group_532" data-name="Group 532" transform="translate(435.72 2109.226) rotate(90)">
            <path id="Path_1521" data-name="Path 1521" d="M193.86,235.64a2.08,2.08,0,1,1-2.08-2.08A2.078,2.078,0,0,1,193.86,235.64Z" fill="#fff"/>
            <path id="Path_1522" data-name="Path 1522" d="M218.77,235.64a2.08,2.08,0,1,1-2.08-2.08A2.078,2.078,0,0,1,218.77,235.64Z" fill="#fff"/>
            <path id="Path_1523" data-name="Path 1523" d="M243.69,235.64a2.08,2.08,0,1,1-2.08-2.08A2.078,2.078,0,0,1,243.69,235.64Z" fill="#fff"/>
            <path id="Path_1524" data-name="Path 1524" d="M268.61,235.64a2.08,2.08,0,1,1-2.08-2.08A2.078,2.078,0,0,1,268.61,235.64Z" fill="#fff"/>
            <path id="Path_1525" data-name="Path 1525" d="M293.52,235.64a2.08,2.08,0,1,1-2.08-2.08A2.078,2.078,0,0,1,293.52,235.64Z" fill="#fff"/>
            <path id="Path_1526" data-name="Path 1526" d="M318.44,235.64a2.08,2.08,0,1,1-2.08-2.08A2.078,2.078,0,0,1,318.44,235.64Z" fill="#fff"/>
            <path id="Path_1527" data-name="Path 1527" d="M343.36,235.64a2.08,2.08,0,1,1-2.08-2.08A2.078,2.078,0,0,1,343.36,235.64Z" fill="#fff"/>
            <path id="Path_1528" data-name="Path 1528" d="M193.86,253.64a2.08,2.08,0,1,1-2.08-2.08A2.078,2.078,0,0,1,193.86,253.64Z" fill="#fff"/>
            <path id="Path_1529" data-name="Path 1529" d="M218.77,253.64a2.08,2.08,0,1,1-2.08-2.08A2.078,2.078,0,0,1,218.77,253.64Z" fill="#fff"/>
            <path id="Path_1530" data-name="Path 1530" d="M243.69,253.64a2.08,2.08,0,1,1-2.08-2.08A2.078,2.078,0,0,1,243.69,253.64Z" fill="#fff"/>
            <path id="Path_1531" data-name="Path 1531" d="M268.61,253.64a2.08,2.08,0,1,1-2.08-2.08A2.078,2.078,0,0,1,268.61,253.64Z" fill="#fff"/>
            <path id="Path_1532" data-name="Path 1532" d="M293.52,253.64a2.08,2.08,0,1,1-2.08-2.08A2.078,2.078,0,0,1,293.52,253.64Z" fill="#fff"/>
            <path id="Path_1533" data-name="Path 1533" d="M318.44,253.64a2.08,2.08,0,1,1-2.08-2.08A2.078,2.078,0,0,1,318.44,253.64Z" fill="#fff"/>
            <path id="Path_1534" data-name="Path 1534" d="M343.36,253.64a2.08,2.08,0,1,1-2.08-2.08A2.078,2.078,0,0,1,343.36,253.64Z" fill="#fff"/>
            <path id="Path_1535" data-name="Path 1535" d="M193.86,271.64a2.08,2.08,0,1,1-2.08-2.08A2.078,2.078,0,0,1,193.86,271.64Z" fill="#fff"/>
            <path id="Path_1536" data-name="Path 1536" d="M218.77,271.64a2.08,2.08,0,1,1-2.08-2.08A2.078,2.078,0,0,1,218.77,271.64Z" fill="#fff"/>
            <path id="Path_1537" data-name="Path 1537" d="M243.69,271.64a2.08,2.08,0,1,1-2.08-2.08A2.078,2.078,0,0,1,243.69,271.64Z" fill="#fff"/>
            <path id="Path_1538" data-name="Path 1538" d="M268.61,271.64a2.08,2.08,0,1,1-2.08-2.08A2.078,2.078,0,0,1,268.61,271.64Z" fill="#fff"/>
            <path id="Path_1539" data-name="Path 1539" d="M293.52,271.64a2.08,2.08,0,1,1-2.08-2.08A2.078,2.078,0,0,1,293.52,271.64Z" fill="#fff"/>
            <path id="Path_1540" data-name="Path 1540" d="M318.44,271.64a2.08,2.08,0,1,1-2.08-2.08A2.078,2.078,0,0,1,318.44,271.64Z" fill="#fff"/>
            <path id="Path_1541" data-name="Path 1541" d="M343.36,271.64a2.08,2.08,0,1,1-2.08-2.08A2.078,2.078,0,0,1,343.36,271.64Z" fill="#fff"/>
          </g>
        </g>
        <g transform="translate(-109 -2298.926)">
          <g id="Group_532-2" data-name="Group 532" transform="translate(435.72 2109.226) rotate(90)">
            <path id="Path_1521-2" data-name="Path 1521" d="M193.86,235.64a2.08,2.08,0,1,1-2.08-2.08A2.078,2.078,0,0,1,193.86,235.64Z" fill="#fff"/>
            <path id="Path_1522-2" data-name="Path 1522" d="M218.77,235.64a2.08,2.08,0,1,1-2.08-2.08A2.078,2.078,0,0,1,218.77,235.64Z" fill="#fff"/>
            <path id="Path_1523-2" data-name="Path 1523" d="M243.69,235.64a2.08,2.08,0,1,1-2.08-2.08A2.078,2.078,0,0,1,243.69,235.64Z" fill="#fff"/>
            <path id="Path_1524-2" data-name="Path 1524" d="M268.61,235.64a2.08,2.08,0,1,1-2.08-2.08A2.078,2.078,0,0,1,268.61,235.64Z" fill="#fff"/>
            <path id="Path_1525-2" data-name="Path 1525" d="M293.52,235.64a2.08,2.08,0,1,1-2.08-2.08A2.078,2.078,0,0,1,293.52,235.64Z" fill="#fff"/>
            <path id="Path_1526-2" data-name="Path 1526" d="M318.44,235.64a2.08,2.08,0,1,1-2.08-2.08A2.078,2.078,0,0,1,318.44,235.64Z" fill="#fff"/>
            <path id="Path_1527-2" data-name="Path 1527" d="M343.36,235.64a2.08,2.08,0,1,1-2.08-2.08A2.078,2.078,0,0,1,343.36,235.64Z" fill="#fff"/>
            <path id="Path_1528-2" data-name="Path 1528" d="M193.86,253.64a2.08,2.08,0,1,1-2.08-2.08A2.078,2.078,0,0,1,193.86,253.64Z" fill="#fff"/>
            <path id="Path_1529-2" data-name="Path 1529" d="M218.77,253.64a2.08,2.08,0,1,1-2.08-2.08A2.078,2.078,0,0,1,218.77,253.64Z" fill="#fff"/>
            <path id="Path_1530-2" data-name="Path 1530" d="M243.69,253.64a2.08,2.08,0,1,1-2.08-2.08A2.078,2.078,0,0,1,243.69,253.64Z" fill="#fff"/>
            <path id="Path_1531-2" data-name="Path 1531" d="M268.61,253.64a2.08,2.08,0,1,1-2.08-2.08A2.078,2.078,0,0,1,268.61,253.64Z" fill="#fff"/>
            <path id="Path_1532-2" data-name="Path 1532" d="M293.52,253.64a2.08,2.08,0,1,1-2.08-2.08A2.078,2.078,0,0,1,293.52,253.64Z" fill="#fff"/>
            <path id="Path_1533-2" data-name="Path 1533" d="M318.44,253.64a2.08,2.08,0,1,1-2.08-2.08A2.078,2.078,0,0,1,318.44,253.64Z" fill="#fff"/>
            <path id="Path_1534-2" data-name="Path 1534" d="M343.36,253.64a2.08,2.08,0,1,1-2.08-2.08A2.078,2.078,0,0,1,343.36,253.64Z" fill="#fff"/>
            <path id="Path_1535-2" data-name="Path 1535" d="M193.86,271.64a2.08,2.08,0,1,1-2.08-2.08A2.078,2.078,0,0,1,193.86,271.64Z" fill="#fff"/>
            <path id="Path_1536-2" data-name="Path 1536" d="M218.77,271.64a2.08,2.08,0,1,1-2.08-2.08A2.078,2.078,0,0,1,218.77,271.64Z" fill="#fff"/>
            <path id="Path_1537-2" data-name="Path 1537" d="M243.69,271.64a2.08,2.08,0,1,1-2.08-2.08A2.078,2.078,0,0,1,243.69,271.64Z" fill="#fff"/>
            <path id="Path_1538-2" data-name="Path 1538" d="M268.61,271.64a2.08,2.08,0,1,1-2.08-2.08A2.078,2.078,0,0,1,268.61,271.64Z" fill="#fff"/>
            <path id="Path_1539-2" data-name="Path 1539" d="M293.52,271.64a2.08,2.08,0,1,1-2.08-2.08A2.078,2.078,0,0,1,293.52,271.64Z" fill="#fff"/>
            <path id="Path_1540-2" data-name="Path 1540" d="M318.44,271.64a2.08,2.08,0,1,1-2.08-2.08A2.078,2.078,0,0,1,318.44,271.64Z" fill="#fff"/>
            <path id="Path_1541-2" data-name="Path 1541" d="M343.36,271.64a2.08,2.08,0,1,1-2.08-2.08A2.078,2.078,0,0,1,343.36,271.64Z" fill="#fff"/>
          </g>
        </g>
        <g transform="translate(-56 -2298.926)">
          <g id="Group_532-3" data-name="Group 532" transform="translate(435.72 2109.226) rotate(90)">
            <path id="Path_1521-3" data-name="Path 1521" d="M193.86,235.64a2.08,2.08,0,1,1-2.08-2.08A2.078,2.078,0,0,1,193.86,235.64Z" fill="#fff"/>
            <path id="Path_1522-3" data-name="Path 1522" d="M218.77,235.64a2.08,2.08,0,1,1-2.08-2.08A2.078,2.078,0,0,1,218.77,235.64Z" fill="#fff"/>
            <path id="Path_1523-3" data-name="Path 1523" d="M243.69,235.64a2.08,2.08,0,1,1-2.08-2.08A2.078,2.078,0,0,1,243.69,235.64Z" fill="#fff"/>
            <path id="Path_1524-3" data-name="Path 1524" d="M268.61,235.64a2.08,2.08,0,1,1-2.08-2.08A2.078,2.078,0,0,1,268.61,235.64Z" fill="#fff"/>
            <path id="Path_1525-3" data-name="Path 1525" d="M293.52,235.64a2.08,2.08,0,1,1-2.08-2.08A2.078,2.078,0,0,1,293.52,235.64Z" fill="#fff"/>
            <path id="Path_1526-3" data-name="Path 1526" d="M318.44,235.64a2.08,2.08,0,1,1-2.08-2.08A2.078,2.078,0,0,1,318.44,235.64Z" fill="#fff"/>
            <path id="Path_1527-3" data-name="Path 1527" d="M343.36,235.64a2.08,2.08,0,1,1-2.08-2.08A2.078,2.078,0,0,1,343.36,235.64Z" fill="#fff"/>
            <path id="Path_1528-3" data-name="Path 1528" d="M193.86,253.64a2.08,2.08,0,1,1-2.08-2.08A2.078,2.078,0,0,1,193.86,253.64Z" fill="#fff"/>
            <path id="Path_1529-3" data-name="Path 1529" d="M218.77,253.64a2.08,2.08,0,1,1-2.08-2.08A2.078,2.078,0,0,1,218.77,253.64Z" fill="#fff"/>
            <path id="Path_1530-3" data-name="Path 1530" d="M243.69,253.64a2.08,2.08,0,1,1-2.08-2.08A2.078,2.078,0,0,1,243.69,253.64Z" fill="#fff"/>
            <path id="Path_1531-3" data-name="Path 1531" d="M268.61,253.64a2.08,2.08,0,1,1-2.08-2.08A2.078,2.078,0,0,1,268.61,253.64Z" fill="#fff"/>
            <path id="Path_1532-3" data-name="Path 1532" d="M293.52,253.64a2.08,2.08,0,1,1-2.08-2.08A2.078,2.078,0,0,1,293.52,253.64Z" fill="#fff"/>
            <path id="Path_1533-3" data-name="Path 1533" d="M318.44,253.64a2.08,2.08,0,1,1-2.08-2.08A2.078,2.078,0,0,1,318.44,253.64Z" fill="#fff"/>
            <path id="Path_1534-3" data-name="Path 1534" d="M343.36,253.64a2.08,2.08,0,1,1-2.08-2.08A2.078,2.078,0,0,1,343.36,253.64Z" fill="#fff"/>
            <path id="Path_1535-3" data-name="Path 1535" d="M193.86,271.64a2.08,2.08,0,1,1-2.08-2.08A2.078,2.078,0,0,1,193.86,271.64Z" fill="#fff"/>
            <path id="Path_1536-3" data-name="Path 1536" d="M218.77,271.64a2.08,2.08,0,1,1-2.08-2.08A2.078,2.078,0,0,1,218.77,271.64Z" fill="#fff"/>
            <path id="Path_1537-3" data-name="Path 1537" d="M243.69,271.64a2.08,2.08,0,1,1-2.08-2.08A2.078,2.078,0,0,1,243.69,271.64Z" fill="#fff"/>
            <path id="Path_1538-3" data-name="Path 1538" d="M268.61,271.64a2.08,2.08,0,1,1-2.08-2.08A2.078,2.078,0,0,1,268.61,271.64Z" fill="#fff"/>
            <path id="Path_1539-3" data-name="Path 1539" d="M293.52,271.64a2.08,2.08,0,1,1-2.08-2.08A2.078,2.078,0,0,1,293.52,271.64Z" fill="#fff"/>
            <path id="Path_1540-3" data-name="Path 1540" d="M318.44,271.64a2.08,2.08,0,1,1-2.08-2.08A2.078,2.078,0,0,1,318.44,271.64Z" fill="#fff"/>
            <path id="Path_1541-3" data-name="Path 1541" d="M343.36,271.64a2.08,2.08,0,1,1-2.08-2.08A2.078,2.078,0,0,1,343.36,271.64Z" fill="#fff"/>
          </g>
        </g>
        <g transform="translate(-3 -2298.926)">
          <g id="Group_532-4" data-name="Group 532" transform="translate(435.72 2109.226) rotate(90)">
            <path id="Path_1521-4" data-name="Path 1521" d="M193.86,235.64a2.08,2.08,0,1,1-2.08-2.08A2.078,2.078,0,0,1,193.86,235.64Z" fill="#fff"/>
            <path id="Path_1522-4" data-name="Path 1522" d="M218.77,235.64a2.08,2.08,0,1,1-2.08-2.08A2.078,2.078,0,0,1,218.77,235.64Z" fill="#fff"/>
            <path id="Path_1523-4" data-name="Path 1523" d="M243.69,235.64a2.08,2.08,0,1,1-2.08-2.08A2.078,2.078,0,0,1,243.69,235.64Z" fill="#fff"/>
            <path id="Path_1524-4" data-name="Path 1524" d="M268.61,235.64a2.08,2.08,0,1,1-2.08-2.08A2.078,2.078,0,0,1,268.61,235.64Z" fill="#fff"/>
            <path id="Path_1525-4" data-name="Path 1525" d="M293.52,235.64a2.08,2.08,0,1,1-2.08-2.08A2.078,2.078,0,0,1,293.52,235.64Z" fill="#fff"/>
            <path id="Path_1526-4" data-name="Path 1526" d="M318.44,235.64a2.08,2.08,0,1,1-2.08-2.08A2.078,2.078,0,0,1,318.44,235.64Z" fill="#fff"/>
            <path id="Path_1527-4" data-name="Path 1527" d="M343.36,235.64a2.08,2.08,0,1,1-2.08-2.08A2.078,2.078,0,0,1,343.36,235.64Z" fill="#fff"/>
            <path id="Path_1528-4" data-name="Path 1528" d="M193.86,253.64a2.08,2.08,0,1,1-2.08-2.08A2.078,2.078,0,0,1,193.86,253.64Z" fill="#fff"/>
            <path id="Path_1529-4" data-name="Path 1529" d="M218.77,253.64a2.08,2.08,0,1,1-2.08-2.08A2.078,2.078,0,0,1,218.77,253.64Z" fill="#fff"/>
            <path id="Path_1530-4" data-name="Path 1530" d="M243.69,253.64a2.08,2.08,0,1,1-2.08-2.08A2.078,2.078,0,0,1,243.69,253.64Z" fill="#fff"/>
            <path id="Path_1531-4" data-name="Path 1531" d="M268.61,253.64a2.08,2.08,0,1,1-2.08-2.08A2.078,2.078,0,0,1,268.61,253.64Z" fill="#fff"/>
            <path id="Path_1532-4" data-name="Path 1532" d="M293.52,253.64a2.08,2.08,0,1,1-2.08-2.08A2.078,2.078,0,0,1,293.52,253.64Z" fill="#fff"/>
            <path id="Path_1533-4" data-name="Path 1533" d="M318.44,253.64a2.08,2.08,0,1,1-2.08-2.08A2.078,2.078,0,0,1,318.44,253.64Z" fill="#fff"/>
            <path id="Path_1534-4" data-name="Path 1534" d="M343.36,253.64a2.08,2.08,0,1,1-2.08-2.08A2.078,2.078,0,0,1,343.36,253.64Z" fill="#fff"/>
            <path id="Path_1535-4" data-name="Path 1535" d="M193.86,271.64a2.08,2.08,0,1,1-2.08-2.08A2.078,2.078,0,0,1,193.86,271.64Z" fill="#fff"/>
            <path id="Path_1536-4" data-name="Path 1536" d="M218.77,271.64a2.08,2.08,0,1,1-2.08-2.08A2.078,2.078,0,0,1,218.77,271.64Z" fill="#fff"/>
            <path id="Path_1537-4" data-name="Path 1537" d="M243.69,271.64a2.08,2.08,0,1,1-2.08-2.08A2.078,2.078,0,0,1,243.69,271.64Z" fill="#fff"/>
            <path id="Path_1538-4" data-name="Path 1538" d="M268.61,271.64a2.08,2.08,0,1,1-2.08-2.08A2.078,2.078,0,0,1,268.61,271.64Z" fill="#fff"/>
            <path id="Path_1539-4" data-name="Path 1539" d="M293.52,271.64a2.08,2.08,0,1,1-2.08-2.08A2.078,2.078,0,0,1,293.52,271.64Z" fill="#fff"/>
            <path id="Path_1540-4" data-name="Path 1540" d="M318.44,271.64a2.08,2.08,0,1,1-2.08-2.08A2.078,2.078,0,0,1,318.44,271.64Z" fill="#fff"/>
            <path id="Path_1541-4" data-name="Path 1541" d="M343.36,271.64a2.08,2.08,0,1,1-2.08-2.08A2.078,2.078,0,0,1,343.36,271.64Z" fill="#fff"/>
          </g>
        </g>
        <g transform="translate(50 -2298.926)">
          <g id="Group_532-5" data-name="Group 532" transform="translate(435.72 2109.226) rotate(90)">
            <path id="Path_1521-5" data-name="Path 1521" d="M193.86,235.64a2.08,2.08,0,1,1-2.08-2.08A2.078,2.078,0,0,1,193.86,235.64Z" fill="#fff"/>
            <path id="Path_1522-5" data-name="Path 1522" d="M218.77,235.64a2.08,2.08,0,1,1-2.08-2.08A2.078,2.078,0,0,1,218.77,235.64Z" fill="#fff"/>
            <path id="Path_1523-5" data-name="Path 1523" d="M243.69,235.64a2.08,2.08,0,1,1-2.08-2.08A2.078,2.078,0,0,1,243.69,235.64Z" fill="#fff"/>
            <path id="Path_1524-5" data-name="Path 1524" d="M268.61,235.64a2.08,2.08,0,1,1-2.08-2.08A2.078,2.078,0,0,1,268.61,235.64Z" fill="#fff"/>
            <path id="Path_1525-5" data-name="Path 1525" d="M293.52,235.64a2.08,2.08,0,1,1-2.08-2.08A2.078,2.078,0,0,1,293.52,235.64Z" fill="#fff"/>
            <path id="Path_1526-5" data-name="Path 1526" d="M318.44,235.64a2.08,2.08,0,1,1-2.08-2.08A2.078,2.078,0,0,1,318.44,235.64Z" fill="#fff"/>
            <path id="Path_1527-5" data-name="Path 1527" d="M343.36,235.64a2.08,2.08,0,1,1-2.08-2.08A2.078,2.078,0,0,1,343.36,235.64Z" fill="#fff"/>
            <path id="Path_1528-5" data-name="Path 1528" d="M193.86,253.64a2.08,2.08,0,1,1-2.08-2.08A2.078,2.078,0,0,1,193.86,253.64Z" fill="#fff"/>
            <path id="Path_1529-5" data-name="Path 1529" d="M218.77,253.64a2.08,2.08,0,1,1-2.08-2.08A2.078,2.078,0,0,1,218.77,253.64Z" fill="#fff"/>
            <path id="Path_1530-5" data-name="Path 1530" d="M243.69,253.64a2.08,2.08,0,1,1-2.08-2.08A2.078,2.078,0,0,1,243.69,253.64Z" fill="#fff"/>
            <path id="Path_1531-5" data-name="Path 1531" d="M268.61,253.64a2.08,2.08,0,1,1-2.08-2.08A2.078,2.078,0,0,1,268.61,253.64Z" fill="#fff"/>
            <path id="Path_1532-5" data-name="Path 1532" d="M293.52,253.64a2.08,2.08,0,1,1-2.08-2.08A2.078,2.078,0,0,1,293.52,253.64Z" fill="#fff"/>
            <path id="Path_1533-5" data-name="Path 1533" d="M318.44,253.64a2.08,2.08,0,1,1-2.08-2.08A2.078,2.078,0,0,1,318.44,253.64Z" fill="#fff"/>
            <path id="Path_1534-5" data-name="Path 1534" d="M343.36,253.64a2.08,2.08,0,1,1-2.08-2.08A2.078,2.078,0,0,1,343.36,253.64Z" fill="#fff"/>
            <path id="Path_1535-5" data-name="Path 1535" d="M193.86,271.64a2.08,2.08,0,1,1-2.08-2.08A2.078,2.078,0,0,1,193.86,271.64Z" fill="#fff"/>
            <path id="Path_1536-5" data-name="Path 1536" d="M218.77,271.64a2.08,2.08,0,1,1-2.08-2.08A2.078,2.078,0,0,1,218.77,271.64Z" fill="#fff"/>
            <path id="Path_1537-5" data-name="Path 1537" d="M243.69,271.64a2.08,2.08,0,1,1-2.08-2.08A2.078,2.078,0,0,1,243.69,271.64Z" fill="#fff"/>
            <path id="Path_1538-5" data-name="Path 1538" d="M268.61,271.64a2.08,2.08,0,1,1-2.08-2.08A2.078,2.078,0,0,1,268.61,271.64Z" fill="#fff"/>
            <path id="Path_1539-5" data-name="Path 1539" d="M293.52,271.64a2.08,2.08,0,1,1-2.08-2.08A2.078,2.078,0,0,1,293.52,271.64Z" fill="#fff"/>
            <path id="Path_1540-5" data-name="Path 1540" d="M318.44,271.64a2.08,2.08,0,1,1-2.08-2.08A2.078,2.078,0,0,1,318.44,271.64Z" fill="#fff"/>
            <path id="Path_1541-5" data-name="Path 1541" d="M343.36,271.64a2.08,2.08,0,1,1-2.08-2.08A2.078,2.078,0,0,1,343.36,271.64Z" fill="#fff"/>
          </g>
        </g>
        <g transform="translate(-162 -2124.926)">
          <g id="Group_532-6" data-name="Group 532" transform="translate(435.72 2109.226) rotate(90)">
            <path id="Path_1521-6" data-name="Path 1521" d="M193.86,235.64a2.08,2.08,0,1,1-2.08-2.08A2.078,2.078,0,0,1,193.86,235.64Z" fill="#fff"/>
            <path id="Path_1522-6" data-name="Path 1522" d="M218.77,235.64a2.08,2.08,0,1,1-2.08-2.08A2.078,2.078,0,0,1,218.77,235.64Z" fill="#fff"/>
            <path id="Path_1523-6" data-name="Path 1523" d="M243.69,235.64a2.08,2.08,0,1,1-2.08-2.08A2.078,2.078,0,0,1,243.69,235.64Z" fill="#fff"/>
            <path id="Path_1524-6" data-name="Path 1524" d="M268.61,235.64a2.08,2.08,0,1,1-2.08-2.08A2.078,2.078,0,0,1,268.61,235.64Z" fill="#fff"/>
            <path id="Path_1525-6" data-name="Path 1525" d="M293.52,235.64a2.08,2.08,0,1,1-2.08-2.08A2.078,2.078,0,0,1,293.52,235.64Z" fill="#fff"/>
            <path id="Path_1526-6" data-name="Path 1526" d="M318.44,235.64a2.08,2.08,0,1,1-2.08-2.08A2.078,2.078,0,0,1,318.44,235.64Z" fill="#fff"/>
            <path id="Path_1527-6" data-name="Path 1527" d="M343.36,235.64a2.08,2.08,0,1,1-2.08-2.08A2.078,2.078,0,0,1,343.36,235.64Z" fill="#fff"/>
            <path id="Path_1528-6" data-name="Path 1528" d="M193.86,253.64a2.08,2.08,0,1,1-2.08-2.08A2.078,2.078,0,0,1,193.86,253.64Z" fill="#fff"/>
            <path id="Path_1529-6" data-name="Path 1529" d="M218.77,253.64a2.08,2.08,0,1,1-2.08-2.08A2.078,2.078,0,0,1,218.77,253.64Z" fill="#fff"/>
            <path id="Path_1530-6" data-name="Path 1530" d="M243.69,253.64a2.08,2.08,0,1,1-2.08-2.08A2.078,2.078,0,0,1,243.69,253.64Z" fill="#fff"/>
            <path id="Path_1531-6" data-name="Path 1531" d="M268.61,253.64a2.08,2.08,0,1,1-2.08-2.08A2.078,2.078,0,0,1,268.61,253.64Z" fill="#fff"/>
            <path id="Path_1532-6" data-name="Path 1532" d="M293.52,253.64a2.08,2.08,0,1,1-2.08-2.08A2.078,2.078,0,0,1,293.52,253.64Z" fill="#fff"/>
            <path id="Path_1533-6" data-name="Path 1533" d="M318.44,253.64a2.08,2.08,0,1,1-2.08-2.08A2.078,2.078,0,0,1,318.44,253.64Z" fill="#fff"/>
            <path id="Path_1534-6" data-name="Path 1534" d="M343.36,253.64a2.08,2.08,0,1,1-2.08-2.08A2.078,2.078,0,0,1,343.36,253.64Z" fill="#fff"/>
            <path id="Path_1535-6" data-name="Path 1535" d="M193.86,271.64a2.08,2.08,0,1,1-2.08-2.08A2.078,2.078,0,0,1,193.86,271.64Z" fill="#fff"/>
            <path id="Path_1536-6" data-name="Path 1536" d="M218.77,271.64a2.08,2.08,0,1,1-2.08-2.08A2.078,2.078,0,0,1,218.77,271.64Z" fill="#fff"/>
            <path id="Path_1537-6" data-name="Path 1537" d="M243.69,271.64a2.08,2.08,0,1,1-2.08-2.08A2.078,2.078,0,0,1,243.69,271.64Z" fill="#fff"/>
            <path id="Path_1538-6" data-name="Path 1538" d="M268.61,271.64a2.08,2.08,0,1,1-2.08-2.08A2.078,2.078,0,0,1,268.61,271.64Z" fill="#fff"/>
            <path id="Path_1539-6" data-name="Path 1539" d="M293.52,271.64a2.08,2.08,0,1,1-2.08-2.08A2.078,2.078,0,0,1,293.52,271.64Z" fill="#fff"/>
            <path id="Path_1540-6" data-name="Path 1540" d="M318.44,271.64a2.08,2.08,0,1,1-2.08-2.08A2.078,2.078,0,0,1,318.44,271.64Z" fill="#fff"/>
            <path id="Path_1541-6" data-name="Path 1541" d="M343.36,271.64a2.08,2.08,0,1,1-2.08-2.08A2.078,2.078,0,0,1,343.36,271.64Z" fill="#fff"/>
          </g>
        </g>
        <g transform="translate(-109 -2124.926)">
          <g id="Group_532-7" data-name="Group 532" transform="translate(435.72 2109.226) rotate(90)">
            <path id="Path_1521-7" data-name="Path 1521" d="M193.86,235.64a2.08,2.08,0,1,1-2.08-2.08A2.078,2.078,0,0,1,193.86,235.64Z" fill="#fff"/>
            <path id="Path_1522-7" data-name="Path 1522" d="M218.77,235.64a2.08,2.08,0,1,1-2.08-2.08A2.078,2.078,0,0,1,218.77,235.64Z" fill="#fff"/>
            <path id="Path_1523-7" data-name="Path 1523" d="M243.69,235.64a2.08,2.08,0,1,1-2.08-2.08A2.078,2.078,0,0,1,243.69,235.64Z" fill="#fff"/>
            <path id="Path_1524-7" data-name="Path 1524" d="M268.61,235.64a2.08,2.08,0,1,1-2.08-2.08A2.078,2.078,0,0,1,268.61,235.64Z" fill="#fff"/>
            <path id="Path_1525-7" data-name="Path 1525" d="M293.52,235.64a2.08,2.08,0,1,1-2.08-2.08A2.078,2.078,0,0,1,293.52,235.64Z" fill="#fff"/>
            <path id="Path_1526-7" data-name="Path 1526" d="M318.44,235.64a2.08,2.08,0,1,1-2.08-2.08A2.078,2.078,0,0,1,318.44,235.64Z" fill="#fff"/>
            <path id="Path_1527-7" data-name="Path 1527" d="M343.36,235.64a2.08,2.08,0,1,1-2.08-2.08A2.078,2.078,0,0,1,343.36,235.64Z" fill="#fff"/>
            <path id="Path_1528-7" data-name="Path 1528" d="M193.86,253.64a2.08,2.08,0,1,1-2.08-2.08A2.078,2.078,0,0,1,193.86,253.64Z" fill="#fff"/>
            <path id="Path_1529-7" data-name="Path 1529" d="M218.77,253.64a2.08,2.08,0,1,1-2.08-2.08A2.078,2.078,0,0,1,218.77,253.64Z" fill="#fff"/>
            <path id="Path_1530-7" data-name="Path 1530" d="M243.69,253.64a2.08,2.08,0,1,1-2.08-2.08A2.078,2.078,0,0,1,243.69,253.64Z" fill="#fff"/>
            <path id="Path_1531-7" data-name="Path 1531" d="M268.61,253.64a2.08,2.08,0,1,1-2.08-2.08A2.078,2.078,0,0,1,268.61,253.64Z" fill="#fff"/>
            <path id="Path_1532-7" data-name="Path 1532" d="M293.52,253.64a2.08,2.08,0,1,1-2.08-2.08A2.078,2.078,0,0,1,293.52,253.64Z" fill="#fff"/>
            <path id="Path_1533-7" data-name="Path 1533" d="M318.44,253.64a2.08,2.08,0,1,1-2.08-2.08A2.078,2.078,0,0,1,318.44,253.64Z" fill="#fff"/>
            <path id="Path_1534-7" data-name="Path 1534" d="M343.36,253.64a2.08,2.08,0,1,1-2.08-2.08A2.078,2.078,0,0,1,343.36,253.64Z" fill="#fff"/>
            <path id="Path_1535-7" data-name="Path 1535" d="M193.86,271.64a2.08,2.08,0,1,1-2.08-2.08A2.078,2.078,0,0,1,193.86,271.64Z" fill="#fff"/>
            <path id="Path_1536-7" data-name="Path 1536" d="M218.77,271.64a2.08,2.08,0,1,1-2.08-2.08A2.078,2.078,0,0,1,218.77,271.64Z" fill="#fff"/>
            <path id="Path_1537-7" data-name="Path 1537" d="M243.69,271.64a2.08,2.08,0,1,1-2.08-2.08A2.078,2.078,0,0,1,243.69,271.64Z" fill="#fff"/>
            <path id="Path_1538-7" data-name="Path 1538" d="M268.61,271.64a2.08,2.08,0,1,1-2.08-2.08A2.078,2.078,0,0,1,268.61,271.64Z" fill="#fff"/>
            <path id="Path_1539-7" data-name="Path 1539" d="M293.52,271.64a2.08,2.08,0,1,1-2.08-2.08A2.078,2.078,0,0,1,293.52,271.64Z" fill="#fff"/>
            <path id="Path_1540-7" data-name="Path 1540" d="M318.44,271.64a2.08,2.08,0,1,1-2.08-2.08A2.078,2.078,0,0,1,318.44,271.64Z" fill="#fff"/>
            <path id="Path_1541-7" data-name="Path 1541" d="M343.36,271.64a2.08,2.08,0,1,1-2.08-2.08A2.078,2.078,0,0,1,343.36,271.64Z" fill="#fff"/>
          </g>
        </g>
        <g transform="translate(-56 -2124.926)">
          <g id="Group_532-8" data-name="Group 532" transform="translate(435.72 2109.226) rotate(90)">
            <path id="Path_1521-8" data-name="Path 1521" d="M193.86,235.64a2.08,2.08,0,1,1-2.08-2.08A2.078,2.078,0,0,1,193.86,235.64Z" fill="#fff"/>
            <path id="Path_1522-8" data-name="Path 1522" d="M218.77,235.64a2.08,2.08,0,1,1-2.08-2.08A2.078,2.078,0,0,1,218.77,235.64Z" fill="#fff"/>
            <path id="Path_1523-8" data-name="Path 1523" d="M243.69,235.64a2.08,2.08,0,1,1-2.08-2.08A2.078,2.078,0,0,1,243.69,235.64Z" fill="#fff"/>
            <path id="Path_1524-8" data-name="Path 1524" d="M268.61,235.64a2.08,2.08,0,1,1-2.08-2.08A2.078,2.078,0,0,1,268.61,235.64Z" fill="#fff"/>
            <path id="Path_1525-8" data-name="Path 1525" d="M293.52,235.64a2.08,2.08,0,1,1-2.08-2.08A2.078,2.078,0,0,1,293.52,235.64Z" fill="#fff"/>
            <path id="Path_1526-8" data-name="Path 1526" d="M318.44,235.64a2.08,2.08,0,1,1-2.08-2.08A2.078,2.078,0,0,1,318.44,235.64Z" fill="#fff"/>
            <path id="Path_1527-8" data-name="Path 1527" d="M343.36,235.64a2.08,2.08,0,1,1-2.08-2.08A2.078,2.078,0,0,1,343.36,235.64Z" fill="#fff"/>
            <path id="Path_1528-8" data-name="Path 1528" d="M193.86,253.64a2.08,2.08,0,1,1-2.08-2.08A2.078,2.078,0,0,1,193.86,253.64Z" fill="#fff"/>
            <path id="Path_1529-8" data-name="Path 1529" d="M218.77,253.64a2.08,2.08,0,1,1-2.08-2.08A2.078,2.078,0,0,1,218.77,253.64Z" fill="#fff"/>
            <path id="Path_1530-8" data-name="Path 1530" d="M243.69,253.64a2.08,2.08,0,1,1-2.08-2.08A2.078,2.078,0,0,1,243.69,253.64Z" fill="#fff"/>
            <path id="Path_1531-8" data-name="Path 1531" d="M268.61,253.64a2.08,2.08,0,1,1-2.08-2.08A2.078,2.078,0,0,1,268.61,253.64Z" fill="#fff"/>
            <path id="Path_1532-8" data-name="Path 1532" d="M293.52,253.64a2.08,2.08,0,1,1-2.08-2.08A2.078,2.078,0,0,1,293.52,253.64Z" fill="#fff"/>
            <path id="Path_1533-8" data-name="Path 1533" d="M318.44,253.64a2.08,2.08,0,1,1-2.08-2.08A2.078,2.078,0,0,1,318.44,253.64Z" fill="#fff"/>
            <path id="Path_1534-8" data-name="Path 1534" d="M343.36,253.64a2.08,2.08,0,1,1-2.08-2.08A2.078,2.078,0,0,1,343.36,253.64Z" fill="#fff"/>
            <path id="Path_1535-8" data-name="Path 1535" d="M193.86,271.64a2.08,2.08,0,1,1-2.08-2.08A2.078,2.078,0,0,1,193.86,271.64Z" fill="#fff"/>
            <path id="Path_1536-8" data-name="Path 1536" d="M218.77,271.64a2.08,2.08,0,1,1-2.08-2.08A2.078,2.078,0,0,1,218.77,271.64Z" fill="#fff"/>
            <path id="Path_1537-8" data-name="Path 1537" d="M243.69,271.64a2.08,2.08,0,1,1-2.08-2.08A2.078,2.078,0,0,1,243.69,271.64Z" fill="#fff"/>
            <path id="Path_1538-8" data-name="Path 1538" d="M268.61,271.64a2.08,2.08,0,1,1-2.08-2.08A2.078,2.078,0,0,1,268.61,271.64Z" fill="#fff"/>
            <path id="Path_1539-8" data-name="Path 1539" d="M293.52,271.64a2.08,2.08,0,1,1-2.08-2.08A2.078,2.078,0,0,1,293.52,271.64Z" fill="#fff"/>
            <path id="Path_1540-8" data-name="Path 1540" d="M318.44,271.64a2.08,2.08,0,1,1-2.08-2.08A2.078,2.078,0,0,1,318.44,271.64Z" fill="#fff"/>
            <path id="Path_1541-8" data-name="Path 1541" d="M343.36,271.64a2.08,2.08,0,1,1-2.08-2.08A2.078,2.078,0,0,1,343.36,271.64Z" fill="#fff"/>
          </g>
        </g>
        <g transform="translate(-3 -2124.926)">
          <g id="Group_532-9" data-name="Group 532" transform="translate(435.72 2109.226) rotate(90)">
            <path id="Path_1521-9" data-name="Path 1521" d="M193.86,235.64a2.08,2.08,0,1,1-2.08-2.08A2.078,2.078,0,0,1,193.86,235.64Z" fill="#fff"/>
            <path id="Path_1522-9" data-name="Path 1522" d="M218.77,235.64a2.08,2.08,0,1,1-2.08-2.08A2.078,2.078,0,0,1,218.77,235.64Z" fill="#fff"/>
            <path id="Path_1523-9" data-name="Path 1523" d="M243.69,235.64a2.08,2.08,0,1,1-2.08-2.08A2.078,2.078,0,0,1,243.69,235.64Z" fill="#fff"/>
            <path id="Path_1524-9" data-name="Path 1524" d="M268.61,235.64a2.08,2.08,0,1,1-2.08-2.08A2.078,2.078,0,0,1,268.61,235.64Z" fill="#fff"/>
            <path id="Path_1525-9" data-name="Path 1525" d="M293.52,235.64a2.08,2.08,0,1,1-2.08-2.08A2.078,2.078,0,0,1,293.52,235.64Z" fill="#fff"/>
            <path id="Path_1526-9" data-name="Path 1526" d="M318.44,235.64a2.08,2.08,0,1,1-2.08-2.08A2.078,2.078,0,0,1,318.44,235.64Z" fill="#fff"/>
            <path id="Path_1527-9" data-name="Path 1527" d="M343.36,235.64a2.08,2.08,0,1,1-2.08-2.08A2.078,2.078,0,0,1,343.36,235.64Z" fill="#fff"/>
            <path id="Path_1528-9" data-name="Path 1528" d="M193.86,253.64a2.08,2.08,0,1,1-2.08-2.08A2.078,2.078,0,0,1,193.86,253.64Z" fill="#fff"/>
            <path id="Path_1529-9" data-name="Path 1529" d="M218.77,253.64a2.08,2.08,0,1,1-2.08-2.08A2.078,2.078,0,0,1,218.77,253.64Z" fill="#fff"/>
            <path id="Path_1530-9" data-name="Path 1530" d="M243.69,253.64a2.08,2.08,0,1,1-2.08-2.08A2.078,2.078,0,0,1,243.69,253.64Z" fill="#fff"/>
            <path id="Path_1531-9" data-name="Path 1531" d="M268.61,253.64a2.08,2.08,0,1,1-2.08-2.08A2.078,2.078,0,0,1,268.61,253.64Z" fill="#fff"/>
            <path id="Path_1532-9" data-name="Path 1532" d="M293.52,253.64a2.08,2.08,0,1,1-2.08-2.08A2.078,2.078,0,0,1,293.52,253.64Z" fill="#fff"/>
            <path id="Path_1533-9" data-name="Path 1533" d="M318.44,253.64a2.08,2.08,0,1,1-2.08-2.08A2.078,2.078,0,0,1,318.44,253.64Z" fill="#fff"/>
            <path id="Path_1534-9" data-name="Path 1534" d="M343.36,253.64a2.08,2.08,0,1,1-2.08-2.08A2.078,2.078,0,0,1,343.36,253.64Z" fill="#fff"/>
            <path id="Path_1535-9" data-name="Path 1535" d="M193.86,271.64a2.08,2.08,0,1,1-2.08-2.08A2.078,2.078,0,0,1,193.86,271.64Z" fill="#fff"/>
            <path id="Path_1536-9" data-name="Path 1536" d="M218.77,271.64a2.08,2.08,0,1,1-2.08-2.08A2.078,2.078,0,0,1,218.77,271.64Z" fill="#fff"/>
            <path id="Path_1537-9" data-name="Path 1537" d="M243.69,271.64a2.08,2.08,0,1,1-2.08-2.08A2.078,2.078,0,0,1,243.69,271.64Z" fill="#fff"/>
            <path id="Path_1538-9" data-name="Path 1538" d="M268.61,271.64a2.08,2.08,0,1,1-2.08-2.08A2.078,2.078,0,0,1,268.61,271.64Z" fill="#fff"/>
            <path id="Path_1539-9" data-name="Path 1539" d="M293.52,271.64a2.08,2.08,0,1,1-2.08-2.08A2.078,2.078,0,0,1,293.52,271.64Z" fill="#fff"/>
            <path id="Path_1540-9" data-name="Path 1540" d="M318.44,271.64a2.08,2.08,0,1,1-2.08-2.08A2.078,2.078,0,0,1,318.44,271.64Z" fill="#fff"/>
            <path id="Path_1541-9" data-name="Path 1541" d="M343.36,271.64a2.08,2.08,0,1,1-2.08-2.08A2.078,2.078,0,0,1,343.36,271.64Z" fill="#fff"/>
          </g>
        </g>
        <g transform="translate(50 -2124.926)">
          <g id="Group_532-10" data-name="Group 532" transform="translate(435.72 2109.226) rotate(90)">
            <path id="Path_1521-10" data-name="Path 1521" d="M193.86,235.64a2.08,2.08,0,1,1-2.08-2.08A2.078,2.078,0,0,1,193.86,235.64Z" fill="#fff"/>
            <path id="Path_1522-10" data-name="Path 1522" d="M218.77,235.64a2.08,2.08,0,1,1-2.08-2.08A2.078,2.078,0,0,1,218.77,235.64Z" fill="#fff"/>
            <path id="Path_1523-10" data-name="Path 1523" d="M243.69,235.64a2.08,2.08,0,1,1-2.08-2.08A2.078,2.078,0,0,1,243.69,235.64Z" fill="#fff"/>
            <path id="Path_1524-10" data-name="Path 1524" d="M268.61,235.64a2.08,2.08,0,1,1-2.08-2.08A2.078,2.078,0,0,1,268.61,235.64Z" fill="#fff"/>
            <path id="Path_1525-10" data-name="Path 1525" d="M293.52,235.64a2.08,2.08,0,1,1-2.08-2.08A2.078,2.078,0,0,1,293.52,235.64Z" fill="#fff"/>
            <path id="Path_1526-10" data-name="Path 1526" d="M318.44,235.64a2.08,2.08,0,1,1-2.08-2.08A2.078,2.078,0,0,1,318.44,235.64Z" fill="#fff"/>
            <path id="Path_1527-10" data-name="Path 1527" d="M343.36,235.64a2.08,2.08,0,1,1-2.08-2.08A2.078,2.078,0,0,1,343.36,235.64Z" fill="#fff"/>
            <path id="Path_1528-10" data-name="Path 1528" d="M193.86,253.64a2.08,2.08,0,1,1-2.08-2.08A2.078,2.078,0,0,1,193.86,253.64Z" fill="#fff"/>
            <path id="Path_1529-10" data-name="Path 1529" d="M218.77,253.64a2.08,2.08,0,1,1-2.08-2.08A2.078,2.078,0,0,1,218.77,253.64Z" fill="#fff"/>
            <path id="Path_1530-10" data-name="Path 1530" d="M243.69,253.64a2.08,2.08,0,1,1-2.08-2.08A2.078,2.078,0,0,1,243.69,253.64Z" fill="#fff"/>
            <path id="Path_1531-10" data-name="Path 1531" d="M268.61,253.64a2.08,2.08,0,1,1-2.08-2.08A2.078,2.078,0,0,1,268.61,253.64Z" fill="#fff"/>
            <path id="Path_1532-10" data-name="Path 1532" d="M293.52,253.64a2.08,2.08,0,1,1-2.08-2.08A2.078,2.078,0,0,1,293.52,253.64Z" fill="#fff"/>
            <path id="Path_1533-10" data-name="Path 1533" d="M318.44,253.64a2.08,2.08,0,1,1-2.08-2.08A2.078,2.078,0,0,1,318.44,253.64Z" fill="#fff"/>
            <path id="Path_1534-10" data-name="Path 1534" d="M343.36,253.64a2.08,2.08,0,1,1-2.08-2.08A2.078,2.078,0,0,1,343.36,253.64Z" fill="#fff"/>
            <path id="Path_1535-10" data-name="Path 1535" d="M193.86,271.64a2.08,2.08,0,1,1-2.08-2.08A2.078,2.078,0,0,1,193.86,271.64Z" fill="#fff"/>
            <path id="Path_1536-10" data-name="Path 1536" d="M218.77,271.64a2.08,2.08,0,1,1-2.08-2.08A2.078,2.078,0,0,1,218.77,271.64Z" fill="#fff"/>
            <path id="Path_1537-10" data-name="Path 1537" d="M243.69,271.64a2.08,2.08,0,1,1-2.08-2.08A2.078,2.078,0,0,1,243.69,271.64Z" fill="#fff"/>
            <path id="Path_1538-10" data-name="Path 1538" d="M268.61,271.64a2.08,2.08,0,1,1-2.08-2.08A2.078,2.078,0,0,1,268.61,271.64Z" fill="#fff"/>
            <path id="Path_1539-10" data-name="Path 1539" d="M293.52,271.64a2.08,2.08,0,1,1-2.08-2.08A2.078,2.078,0,0,1,293.52,271.64Z" fill="#fff"/>
            <path id="Path_1540-10" data-name="Path 1540" d="M318.44,271.64a2.08,2.08,0,1,1-2.08-2.08A2.078,2.078,0,0,1,318.44,271.64Z" fill="#fff"/>
            <path id="Path_1541-10" data-name="Path 1541" d="M343.36,271.64a2.08,2.08,0,1,1-2.08-2.08A2.078,2.078,0,0,1,343.36,271.64Z" fill="#fff"/>
          </g>
        </g>
      </g>
    </g>
    <g id="Group_534" data-name="Group 534" transform="translate(1562.64 1813.116)">
      <path id="Path_1521-11" data-name="Path 1521" d="M193.86,235.64a2.08,2.08,0,1,1-2.08-2.08A2.078,2.078,0,0,1,193.86,235.64Z" fill="#fff"/>
      <path id="Path_1522-11" data-name="Path 1522" d="M218.77,235.64a2.08,2.08,0,1,1-2.08-2.08A2.078,2.078,0,0,1,218.77,235.64Z" fill="#fff"/>
      <path id="Path_1523-11" data-name="Path 1523" d="M243.69,235.64a2.08,2.08,0,1,1-2.08-2.08A2.078,2.078,0,0,1,243.69,235.64Z" fill="#fff"/>
      <path id="Path_1524-11" data-name="Path 1524" d="M268.61,235.64a2.08,2.08,0,1,1-2.08-2.08A2.078,2.078,0,0,1,268.61,235.64Z" fill="#fff"/>
      <path id="Path_1525-11" data-name="Path 1525" d="M293.52,235.64a2.08,2.08,0,1,1-2.08-2.08A2.078,2.078,0,0,1,293.52,235.64Z" fill="#fff"/>
      <path id="Path_1526-11" data-name="Path 1526" d="M318.44,235.64a2.08,2.08,0,1,1-2.08-2.08A2.078,2.078,0,0,1,318.44,235.64Z" fill="#fff"/>
      <path id="Path_1527-11" data-name="Path 1527" d="M343.36,235.64a2.08,2.08,0,1,1-2.08-2.08A2.078,2.078,0,0,1,343.36,235.64Z" fill="#fff"/>
      <path id="Path_1528-11" data-name="Path 1528" d="M193.86,253.64a2.08,2.08,0,1,1-2.08-2.08A2.078,2.078,0,0,1,193.86,253.64Z" fill="#fff"/>
      <path id="Path_1529-11" data-name="Path 1529" d="M218.77,253.64a2.08,2.08,0,1,1-2.08-2.08A2.078,2.078,0,0,1,218.77,253.64Z" fill="#fff"/>
      <path id="Path_1530-11" data-name="Path 1530" d="M243.69,253.64a2.08,2.08,0,1,1-2.08-2.08A2.078,2.078,0,0,1,243.69,253.64Z" fill="#fff"/>
      <path id="Path_1531-11" data-name="Path 1531" d="M268.61,253.64a2.08,2.08,0,1,1-2.08-2.08A2.078,2.078,0,0,1,268.61,253.64Z" fill="#fff"/>
      <path id="Path_1532-11" data-name="Path 1532" d="M293.52,253.64a2.08,2.08,0,1,1-2.08-2.08A2.078,2.078,0,0,1,293.52,253.64Z" fill="#fff"/>
      <path id="Path_1533-11" data-name="Path 1533" d="M318.44,253.64a2.08,2.08,0,1,1-2.08-2.08A2.078,2.078,0,0,1,318.44,253.64Z" fill="#fff"/>
      <path id="Path_1534-11" data-name="Path 1534" d="M343.36,253.64a2.08,2.08,0,1,1-2.08-2.08A2.078,2.078,0,0,1,343.36,253.64Z" fill="#fff"/>
      <path id="Path_1535-11" data-name="Path 1535" d="M193.86,271.64a2.08,2.08,0,1,1-2.08-2.08A2.078,2.078,0,0,1,193.86,271.64Z" fill="#fff"/>
      <path id="Path_1536-11" data-name="Path 1536" d="M218.77,271.64a2.08,2.08,0,1,1-2.08-2.08A2.078,2.078,0,0,1,218.77,271.64Z" fill="#fff"/>
      <path id="Path_1537-11" data-name="Path 1537" d="M243.69,271.64a2.08,2.08,0,1,1-2.08-2.08A2.078,2.078,0,0,1,243.69,271.64Z" fill="#fff"/>
      <path id="Path_1538-11" data-name="Path 1538" d="M268.61,271.64a2.08,2.08,0,1,1-2.08-2.08A2.078,2.078,0,0,1,268.61,271.64Z" fill="#fff"/>
      <path id="Path_1539-11" data-name="Path 1539" d="M293.52,271.64a2.08,2.08,0,1,1-2.08-2.08A2.078,2.078,0,0,1,293.52,271.64Z" fill="#fff"/>
      <path id="Path_1540-11" data-name="Path 1540" d="M318.44,271.64a2.08,2.08,0,1,1-2.08-2.08A2.078,2.078,0,0,1,318.44,271.64Z" fill="#fff"/>
      <path id="Path_1541-11" data-name="Path 1541" d="M343.36,271.64a2.08,2.08,0,1,1-2.08-2.08A2.078,2.078,0,0,1,343.36,271.64Z" fill="#fff"/>
    </g>
    <g id="Group_516" data-name="Group 516" transform="translate(958.33 2514.116)">
      <path id="Path_1554" data-name="Path 1554" d="M40.97,219.89,21.42,239.44v42.12H63.46l19.39-19.39V219.89Z" fill="none" stroke="#000" stroke-miterlimit="10" stroke-width="1"/>
      <path id="Path_1555" data-name="Path 1555" d="M21.42,239.44H63.08l19.66-19.66" fill="none" stroke="#000" stroke-miterlimit="10" stroke-width="1"/>
      <path id="Path_1556" data-name="Path 1556" d="M21.42,281.56l20.19-20.19H82.63" fill="none" stroke="#000" stroke-miterlimit="10" stroke-width="1"/>
      <line id="Line_9" data-name="Line 9" y2="42.18" transform="translate(63.15 239.23)" fill="none" stroke="#000" stroke-miterlimit="10" stroke-width="1"/>
      <line id="Line_10" data-name="Line 10" y2="41.48" transform="translate(41.43 219.96)" fill="none" stroke="#000" stroke-miterlimit="10" stroke-width="1"/>
    </g>
    <g id="Group_517" data-name="Group 517" transform="translate(958.33 2514.116)">
      <path id="Path_1557" data-name="Path 1557" d="M89.79,219.89,70.24,239.44v42.12h42.04l19.39-19.39V219.89Z" fill="none" stroke="#fff" stroke-miterlimit="10" stroke-width="1"/>
      <path id="Path_1558" data-name="Path 1558" d="M70.24,239.44H111.9l19.66-19.66" fill="none" stroke="#fff" stroke-miterlimit="10" stroke-width="1"/>
      <path id="Path_1559" data-name="Path 1559" d="M70.24,281.56l20.19-20.19h41.02" fill="none" stroke="#fff" stroke-miterlimit="10" stroke-width="1"/>
      <line id="Line_11" data-name="Line 11" y2="42.18" transform="translate(111.97 239.23)" fill="none" stroke="#fff" stroke-miterlimit="10" stroke-width="1"/>
      <line id="Line_12" data-name="Line 12" y2="41.48" transform="translate(90.25 219.96)" fill="none" stroke="#fff" stroke-miterlimit="10" stroke-width="1"/>
    </g>
    <g id="Group_518" data-name="Group 518" transform="translate(958.33 2514.116)">
      <circle id="Ellipse_22" data-name="Ellipse 22" cx="5.13" cy="5.13" r="5.13" transform="translate(95.3 245.73)"/>
    </g>
    <g id="Group_705" data-name="Group 705" transform="translate(290 2379.116)">
      <g id="Group_503" data-name="Group 503">
        <rect id="Rectangle_93" data-name="Rectangle 93" width="125" height="1" transform="translate(231.57 375.08)" fill="#fff"/>
      </g>
      <g id="Group_504" data-name="Group 504">
        <rect id="Rectangle_94" data-name="Rectangle 94" width="25" height="1" transform="translate(269.57 363.08)" fill="#fff"/>
      </g>
      <g id="Group_505" data-name="Group 505">
        <rect id="Rectangle_95" data-name="Rectangle 95" width="51" height="1" transform="translate(269.57 388.08)" fill="#fff"/>
      </g>
    </g>
    <g id="Group_529" data-name="Group 529" transform="translate(824.93 1823.116)">
      <path id="Path_1519" data-name="Path 1519" d="M153.07,393.63h0v-54h54A54,54,0,0,1,153.07,393.63Z" fill="#fff1ad"/>
    </g>
    <g id="Group_530" data-name="Group 530" transform="translate(960 2144.746)">
      <rect id="Rectangle_86" data-name="Rectangle 86" width="36" height="36" fill="none" stroke="#fff" stroke-miterlimit="10" stroke-width="1"/>
    </g>
    <g id="Group_527" data-name="Group 527" transform="translate(230 2027.27) rotate(90)">
      <rect id="Rectangle_88" data-name="Rectangle 88" width="18" height="90" fill="#fff"/>
    </g>
  </g>
</svg>
