<svg xmlns="http://www.w3.org/2000/svg" width="93" height="107" viewBox="0 0 93 107">
  <g id="software-polygon" transform="translate(-679 -1010)">
    <path id="Polygon" d="M80.25,0,107,46.5,80.25,93H26.75L0,46.5,26.75,0Z" transform="translate(772 1010) rotate(90)" fill="#0a1a37"/>
    <path id="react-brands" d="M45.738,47.892q-.886-.3-1.772-.558c.1-.4.186-.809.273-1.214,1.345-6.518.459-11.757-2.526-13.485-2.876-1.651-7.568.066-12.315,4.2-.47.4-.93.831-1.367,1.258-.3-.284-.6-.569-.908-.842-4.976-4.419-9.964-6.278-12.949-4.539-2.865,1.662-3.719,6.595-2.515,12.763.12.612.252,1.214.4,1.826-.7.2-1.389.416-2.034.645C4.189,49.97,0,53.163,0,56.466,0,59.878,4.462,63.3,10.532,65.38c.492.164.984.328,1.487.47-.164.656-.306,1.3-.437,1.969-1.148,6.07-.252,10.882,2.614,12.534,2.953,1.706,7.918-.044,12.752-4.276.383-.339.766-.689,1.148-1.061.481.47.984.919,1.487,1.356,4.681,4.025,9.307,5.654,12.162,4,2.953-1.706,3.915-6.879,2.669-13.179q-.148-.722-.328-1.476c.35-.1.689-.208,1.028-.317C51.425,63.313,56,59.933,56,56.466,56,53.152,51.688,49.937,45.738,47.892Zm-14.8-9.285c4.069-3.544,7.864-4.933,9.592-3.937,1.848,1.061,2.559,5.348,1.4,10.981-.077.372-.153.733-.252,1.094a55.989,55.989,0,0,0-7.361-1.159,55.259,55.259,0,0,0-4.659-5.808C30.087,39.372,30.5,38.989,30.941,38.606ZM18.287,62.142c.558.952,1.127,1.9,1.728,2.833a49.521,49.521,0,0,1-5.075-.82,51.09,51.09,0,0,1,1.783-4.867c.5.962,1.017,1.914,1.564,2.855ZM14.973,48.985c1.575-.35,3.248-.634,4.987-.853-.58.908-1.148,1.837-1.684,2.778s-1.061,1.881-1.553,2.844c-.689-1.63-1.269-3.226-1.75-4.768Zm3,7.536c.722-1.509,1.509-2.986,2.34-4.44s1.728-2.865,2.669-4.254c1.641-.12,3.314-.186,5.02-.186s3.39.066,5.02.186q1.394,2.067,2.658,4.233t2.373,4.419q-1.1,2.264-2.362,4.462C34.856,62.394,33.97,63.8,33.04,65.2c-1.63.12-3.325.175-5.042.175s-3.38-.055-4.987-.153q-1.427-2.083-2.69-4.265c-.842-1.455-1.619-2.931-2.351-4.44Zm19.752,5.6c.558-.962,1.083-1.936,1.6-2.92a50.771,50.771,0,0,1,1.848,4.845,48.039,48.039,0,0,1-5.14.875C36.617,64,37.175,63.061,37.721,62.12ZM39.3,53.754c-.514-.962-1.039-1.925-1.586-2.865s-1.094-1.848-1.673-2.756a50.329,50.329,0,0,1,5.02.875A48.4,48.4,0,0,1,39.3,53.754ZM28.02,41.45a48.026,48.026,0,0,1,3.237,3.915c-2.166-.1-4.342-.1-6.507,0C25.822,43.954,26.927,42.642,28.02,41.45Zm-12.687-6.7c1.837-1.072,5.917.459,10.215,4.265.273.241.547.5.831.766a55.565,55.565,0,0,0-4.692,5.808,57.652,57.652,0,0,0-7.35,1.137c-.142-.558-.262-1.127-.383-1.7-1.028-5.293-.35-9.285,1.378-10.281Zm-2.68,28.83c-.459-.131-.908-.273-1.356-.427a22.306,22.306,0,0,1-6.89-3.412,4.908,4.908,0,0,1-2.056-3.27c0-2,3.456-4.561,8.443-6.3.623-.219,1.258-.416,1.892-.6a58.157,58.157,0,0,0,2.68,6.956A59.784,59.784,0,0,0,12.654,63.575ZM25.406,74.293a20.018,20.018,0,0,1-6.168,3.861,4.841,4.841,0,0,1-3.861.142c-1.739-1.006-2.461-4.867-1.476-10.062.12-.612.252-1.225.4-1.826a54.714,54.714,0,0,0,7.426,1.072,57.717,57.717,0,0,0,4.725,5.84c-.35.339-.7.667-1.05.973Zm2.68-2.658c-1.116-1.2-2.231-2.537-3.314-3.97,1.05.044,2.133.066,3.226.066,1.127,0,2.231-.022,3.325-.077A47.166,47.166,0,0,1,28.086,71.636Zm14.295,3.281a4.861,4.861,0,0,1-1.8,3.423c-1.739,1.006-5.447-.306-9.449-3.74-.459-.394-.919-.82-1.389-1.258a54.1,54.1,0,0,0,4.615-5.862,53.914,53.914,0,0,0,7.459-1.148c.109.448.208.9.3,1.334a19.937,19.937,0,0,1,.273,7.251Zm1.991-11.757c-.306.1-.612.2-.93.284a55.56,55.56,0,0,0-2.789-6.978,55.282,55.282,0,0,0,2.68-6.879c.569.164,1.116.339,1.641.514,5.1,1.75,8.673,4.353,8.673,6.343C53.646,58.588,49.829,61.355,44.371,63.159ZM28,61.519a5.009,5.009,0,1,0-5.009-5.009A5.008,5.008,0,0,0,28,61.519Z" transform="translate(698 1008.595)" fill="#fff"/>
  </g>
</svg>
