<svg xmlns="http://www.w3.org/2000/svg" width="450" height="368.67" viewBox="0 0 450 368.67">
  <g id="universe-illustration" transform="translate(0 -0.01)">
    <path id="Path_1716" data-name="Path 1716" d="M271.251,471.2c28.4-14.723,87.113-39.422,161.222-39.422S565.294,456.477,593.7,471.2c27.65,14.334,49.887,31.234,60.362,45.023,3.818-5.2-1.786-97.655-17.295-134.323A297.172,297.172,0,0,0,362.716,200.25a157.309,157.309,0,0,0-111.967,46.378q-.935.935-1.852,1.882c-32.822,33.906-48.148,81.077-42.552,127.934,3.984,33.36,13.8,103.137,27.674,117.932A264.117,264.117,0,0,1,271.251,471.2Z" transform="translate(-205.213 -156.784)" fill="#057e8f" opacity="0.1"/>
    <ellipse id="Ellipse_40" data-name="Ellipse 40" cx="47.186" cy="9.844" rx="47.186" ry="9.844" transform="translate(183.375 278.188)" fill="#f2f2f2" opacity="0.3"/>
    <path id="Path_1717" data-name="Path 1717" d="M632.142,214.743c-43.255,0-77.137-7.845-77.136-17.852,0-6,12.007-11.351,32.94-14.683a.576.576,0,0,1,.181,1.137c-19.719,3.138-31.969,8.329-31.97,13.546,0,9.049,34.8,16.7,75.984,16.7s75.987-7.638,75.988-16.687c0-5.239-12.327-10.444-32.172-13.584a.576.576,0,1,1,.18-1.137c21.063,3.333,33.144,8.7,33.143,14.721C709.28,206.911,675.4,214.747,632.142,214.743Z" transform="translate(-353.647 -149.114)" fill="#fff"/>
    <path id="Path_1718" data-name="Path 1718" d="M622.524,244.445a44.315,44.315,0,0,0,76.648-.186,697.661,697.661,0,0,1-76.648.186Z" transform="translate(-382.298 -175.459)" fill="#7773d0"/>
    <path id="Path_1719" data-name="Path 1719" d="M698.951,181.243a44.323,44.323,0,1,0-85.114.452A329.4,329.4,0,0,0,698.951,181.243Z" transform="translate(-377.833 -124.75)" fill="#7773d0"/>
    <circle id="Ellipse_41" data-name="Ellipse 41" cx="5.181" cy="5.181" r="5.181" transform="translate(283.681 14.395)" fill="#fff"/>
    <circle id="Ellipse_42" data-name="Ellipse 42" cx="8.635" cy="8.635" r="8.635" transform="translate(253.169 32.239)" fill="#fff"/>
    <circle id="Ellipse_43" data-name="Ellipse 43" cx="5.181" cy="5.181" r="5.181" transform="translate(273.319 76.566)" fill="#fff"/>
    <ellipse id="Ellipse_44" data-name="Ellipse 44" cx="32.009" cy="5.306" rx="32.009" ry="5.306" transform="translate(199.887 282.641)" fill="#e6e6e6" opacity="0.3"/>
    <ellipse id="Ellipse_45" data-name="Ellipse 45" cx="53.853" cy="11.235" rx="53.853" ry="11.235" transform="translate(71.363 326.88)" fill="#f2f2f2" opacity="0.3"/>
    <ellipse id="Ellipse_46" data-name="Ellipse 46" cx="80.298" cy="16.752" rx="80.298" ry="16.752" transform="translate(264.241 335.177)" fill="#f2f2f2" opacity="0.3"/>
    <ellipse id="Ellipse_47" data-name="Ellipse 47" cx="41.281" cy="6.843" rx="41.281" ry="6.843" transform="translate(83.771 330.911)" fill="#e6e6e6" opacity="0.3"/>
    <ellipse id="Ellipse_48" data-name="Ellipse 48" cx="70.577" cy="11.7" rx="70.577" ry="11.7" transform="translate(273.981 339.165)" fill="#e6e6e6" opacity="0.3"/>
    <circle id="Ellipse_49" data-name="Ellipse 49" cx="4.03" cy="4.03" r="4.03" transform="translate(29.236 179.608)" fill="#fff"/>
    <circle id="Ellipse_50" data-name="Ellipse 50" cx="4.03" cy="4.03" r="4.03" transform="translate(311.305 238.324)" fill="#fff"/>
    <path id="Path_1720" data-name="Path 1720" d="M513.933,301.037c0,10.174,9.407,8.635,21.011,8.635s21.011,1.539,21.011-8.635-4.6-28.207-21.011-28.207C517.963,272.83,513.933,290.863,513.933,301.037Z" transform="translate(-336.218 -187.583)" fill="#2f2e41"/>
    <path id="Path_1721" data-name="Path 1721" d="M468.683,427.479a6.184,6.184,0,0,1,3.6-8.773l24.072-50.922,11.011,7.721-27.124,47.626a6.218,6.218,0,0,1-11.558,4.347Z" transform="translate(-316.714 -227.877)" fill="#ffb8b8"/>
    <path id="Path_1722" data-name="Path 1722" d="M504.953,365.818a2.77,2.77,0,0,1,.318-2.287l7.484-11.733a7.7,7.7,0,1,1,14.078,6.246l-3.77,13.443a2.773,2.773,0,0,1-3.8,1.782l-12.784-5.717A2.77,2.77,0,0,1,504.953,365.818Z" transform="translate(-332.357 -219.15)" fill="#7773d0"/>
    <path id="Path_1723" data-name="Path 1723" d="M401.757,498.824l-6.632,2.415-12.469-24.43,9.787-3.564Z" transform="translate(-162.379 -200.816)" fill="#ffb8b8"/>
    <path id="Path_1724" data-name="Path 1724" d="M8.57,0H22.18V8.57H0A8.57,8.57,0,0,1,8.57,0Z" transform="matrix(0.94, -0.342, 0.342, 0.94, 219.266, 303.181)" fill="#2f2e41"/>
    <path id="Path_1725" data-name="Path 1725" d="M570.709,565.959l-25.264-44.211a2.776,2.776,0,0,1,.03-2.8l11.376-18.96a2.773,2.773,0,0,1,4.986.484l21.509,59.562a2.762,2.762,0,0,1-1.421,3.448l-7.621,3.61a2.748,2.748,0,0,1-1.177.264,2.787,2.787,0,0,1-2.418-1.394Z" transform="translate(-349.435 -283.405)" fill="#2f2e41"/>
    <circle id="Ellipse_51" data-name="Ellipse 51" cx="14.139" cy="14.139" r="14.139" transform="translate(183.691 93.259)" fill="#ffb8b8"/>
    <path id="Path_1726" data-name="Path 1726" d="M510.438,389.082c-11.134-24.689.091-38.487,5.433-43.274a8.38,8.38,0,0,1,5.6-2.142H541.39a8.391,8.391,0,0,1,7.505,12.143l-13.315,26.629-25.034,6.885Z" transform="translate(-332.719 -217.643)" fill="#7773d0"/>
    <path id="Path_1727" data-name="Path 1727" d="M329.021,509.209h-7.057l-3.357-27.221h10.416Z" transform="translate(-135.2 -204.526)" fill="#ffb8b8"/>
    <path id="Path_1728" data-name="Path 1728" d="M309.364,525.772h13.611v8.57h-22.18A8.57,8.57,0,0,1,309.364,525.772Z" transform="translate(-127.641 -223.106)" fill="#2f2e41"/>
    <path id="Path_1729" data-name="Path 1729" d="M526.466,538.273l-11.3-1.3a2.773,2.773,0,0,1-2.431-3.12l10.084-75.929a2.161,2.161,0,0,0-.042-.793l-10.136-41.818a2.74,2.74,0,0,1,.434-2.26c1.572-2.167,6.957-7.217,22.977-7.312h.017a2.783,2.783,0,0,1,2.531,1.627l2.137,4.7a2.166,2.166,0,0,0,.721.871c2.941,2.082,17.19,13.768,8.823,39.426-8.223,25.218-18.758,74.176-20.787,83.734a2.758,2.758,0,0,1-2.7,2.2A2.839,2.839,0,0,1,526.466,538.273Z" transform="translate(-335.636 -243.983)" fill="#2f2e41"/>
    <path id="Path_1730" data-name="Path 1730" d="M612.711,312.665a6.065,6.065,0,0,0,.157.941l-19.2,21.131-6.78-1.461-3.542,9.944,11.751,3.753a4.605,4.605,0,0,0,5.22-1.814l18.145-26.938a6.043,6.043,0,1,0-5.755-5.556Z" transform="translate(-365.674 -201.719)" fill="#ffb8b8"/>
    <path id="Path_1731" data-name="Path 1731" d="M582.338,352.627l-4.45,12.3a2.59,2.59,0,0,1-3.664,1.4l-11.483-6.187a7.194,7.194,0,1,1,4.934-13.516l12.743,2.58a2.59,2.59,0,0,1,1.921,3.42Z" transform="translate(-354.922 -218.713)" fill="#7773d0"/>
    <path id="Path_1732" data-name="Path 1732" d="M554.745,298.8h-5.592l-2.467-6.908-.493,6.908h-2.673l-1.439-4.03-.288,4.03h-19.86A14.967,14.967,0,0,1,536.9,283.83h2.878A14.967,14.967,0,0,1,554.745,298.8Z" transform="translate(-339.612 -192.251)" fill="#2f2e41"/>
    <path id="Path_1733" data-name="Path 1733" d="M310.8,563.355h-2.015V561.34a2.59,2.59,0,1,0-5.181,0v2.015H301.59a2.59,2.59,0,1,0,0,5.181h2.015v2.015a2.59,2.59,0,1,0,5.181,0v-2.015H310.8a2.59,2.59,0,1,0,0-5.181Z" transform="translate(-245.011 -308.913)" fill="#fff"/>
    <path id="Path_1734" data-name="Path 1734" d="M830.136,479.145h-1.048V478.1a1.347,1.347,0,1,0-2.694,0v1.048h-1.048a1.347,1.347,0,1,0,0,2.694h1.048v1.048a1.347,1.347,0,1,0,2.694,0v-1.048h1.048a1.347,1.347,0,1,0,0-2.694Z" transform="translate(-467.794 -274.116)" fill="#ff6584"/>
    <path id="Path_1735" data-name="Path 1735" d="M299.136,358.145h-1.048V357.1a1.347,1.347,0,1,0-2.694,0v1.048h-1.048a1.347,1.347,0,1,0,0,2.694h1.048v1.048a1.347,1.347,0,1,0,2.694,0v-1.048h1.048a1.347,1.347,0,0,0,0-2.694Z" transform="translate(-242.465 -222.77)" fill="#7773d0"/>
    <path id="Path_1736" data-name="Path 1736" d="M434.136,358.145h-1.048V357.1a1.347,1.347,0,1,0-2.694,0v1.048h-1.048a1.347,1.347,0,1,0,0,2.694h1.048v1.048a1.347,1.347,0,1,0,2.694,0v-1.048h1.048a1.347,1.347,0,0,0,0-2.694Z" transform="translate(-299.752 -222.77)" fill="#fff"/>
    <path id="Path_1737" data-name="Path 1737" d="M899.136,598.145h-1.048V597.1a1.347,1.347,0,0,0-2.694,0v1.048h-1.048a1.347,1.347,0,0,0,0,2.694h1.048v1.048a1.347,1.347,0,0,0,2.694,0v-1.048h1.048a1.347,1.347,0,1,0,0-2.694Z" transform="translate(-497.074 -324.614)" fill="#fff"/>
    <path id="Path_1738" data-name="Path 1738" d="M689.136,403.145h-1.048V402.1a1.347,1.347,0,0,0-2.694,0v1.048h-1.048a1.347,1.347,0,0,0,0,2.694h1.048v1.048a1.347,1.347,0,0,0,2.694,0v-1.048h1.048a1.347,1.347,0,1,0,0-2.694Z" transform="translate(-407.961 -241.866)" fill="#fff"/>
    <path id="Path_1739" data-name="Path 1739" d="M368.136,453.145h-1.048V452.1a1.347,1.347,0,0,0-2.694,0v1.048h-1.048a1.347,1.347,0,1,0,0,2.694h1.048v1.048a1.347,1.347,0,0,0,2.694,0v-1.048h1.048a1.347,1.347,0,0,0,0-2.694Z" transform="translate(-271.745 -263.083)" fill="#fff"/>
    <path id="Path_1740" data-name="Path 1740" d="M374.136,287.145h-1.048V286.1a1.347,1.347,0,1,0-2.694,0v1.048h-1.048a1.347,1.347,0,0,0,0,2.694h1.048v1.048a1.347,1.347,0,1,0,2.694,0v-1.048h1.048a1.347,1.347,0,1,0,0-2.694Z" transform="translate(-274.291 -192.642)" fill="#fff"/>
  </g>
</svg>
