<svg xmlns="http://www.w3.org/2000/svg" width="93" height="107" viewBox="0 0 93 107">
  <g id="polygon" transform="translate(-679 -1010)">
    <path id="Polygon-2" data-name="Polygon" d="M80.25,0,107,46.5,80.25,93H26.75L0,46.5,26.75,0Z" transform="translate(772 1010) rotate(90)" fill="#0a1a37"/>
    <g id="web" transform="translate(700 1038)">
      <g id="Group_331" data-name="Group 331">
        <g id="Group_330" data-name="Group 330">
          <path id="Path_838" data-name="Path 838" d="M46.75,0H4.25A4.255,4.255,0,0,0,0,4.25v42.5A4.255,4.255,0,0,0,4.25,51h42.5A4.255,4.255,0,0,0,51,46.75V4.25A4.255,4.255,0,0,0,46.75,0ZM49.3,46.75a2.55,2.55,0,0,1-2.55,2.55H4.25A2.55,2.55,0,0,1,1.7,46.75V8.5H49.3V46.75Zm0-39.95H1.7V4.25A2.55,2.55,0,0,1,4.25,1.7h42.5A2.55,2.55,0,0,1,49.3,4.25V6.8Z" fill="#fff"/>
          <path id="Path_839" data-name="Path 839" d="M9.45,6.2H8.6a.85.85,0,0,0,0,1.7h.85a.85.85,0,0,0,0-1.7Z" transform="translate(-3.5 -2.8)" fill="#fff"/>
          <path id="Path_840" data-name="Path 840" d="M16.673,6.266a.779.779,0,0,0-.646,0,.982.982,0,0,0-.281.179.862.862,0,0,0,0,1.207.982.982,0,0,0,.281.178.8.8,0,0,0,.646,0,.982.982,0,0,0,.28-.178.862.862,0,0,0,0-1.207A.982.982,0,0,0,16.673,6.266Z" transform="translate(-7 -2.798)" fill="#fff"/>
          <path id="Path_841" data-name="Path 841" d="M22.876,6.256a.85.85,0,0,0-.929.186.982.982,0,0,0-.179.28.8.8,0,0,0,0,.646.982.982,0,0,0,.179.28.862.862,0,0,0,1.207,0,.982.982,0,0,0,.178-.28.713.713,0,0,0,.068-.323A.85.85,0,0,0,22.876,6.256Z" transform="translate(-9.8 -2.796)" fill="#fff"/>
          <path id="Path_842" data-name="Path 842" d="M59.2,6.2H30.3a.85.85,0,1,0,0,1.7H59.2a.85.85,0,0,0,0-1.7Z" transform="translate(-13.3 -2.8)" fill="#fff"/>
          <path id="Path_843" data-name="Path 843" d="M20.053,50.278a.78.78,0,0,0,.126.094,16.923,16.923,0,0,0,24.662-.008.8.8,0,0,0,.119-.085.83.83,0,0,0,.073-.124,16.9,16.9,0,0,0,0-22.906l0,0a.83.83,0,0,0-.073-.124.761.761,0,0,0-.127-.1,16.923,16.923,0,0,0-24.65,0,.756.756,0,0,0-.127.1.83.83,0,0,0-.073.124,16.9,16.9,0,0,0,0,22.906A.82.82,0,0,0,20.053,50.278Zm17.087,3a15.62,15.62,0,0,0,2.894-5.355v0a15.562,15.562,0,0,1,3,1.848A15.3,15.3,0,0,1,37.14,53.276Zm7.07-4.745a17.238,17.238,0,0,0-3.694-2.265,30.3,30.3,0,0,0,.89-6.715h6.354A15.215,15.215,0,0,1,44.21,48.531Zm3.55-10.68H41.406a30.313,30.313,0,0,0-.89-6.715,17.24,17.24,0,0,0,3.694-2.264A15.215,15.215,0,0,1,47.759,37.851ZM43.037,27.633a15.557,15.557,0,0,1-3,1.848,15.62,15.62,0,0,0-2.894-5.358A15.3,15.3,0,0,1,43.037,27.633ZM33.353,23.52c2.083.546,3.926,3.051,5.087,6.6a18.048,18.048,0,0,1-5.087.968Zm0,9.266a19.657,19.657,0,0,0,5.556-1.02,28.778,28.778,0,0,1,.8,6.085H33.353Zm0,6.765h6.354a28.776,28.776,0,0,1-.8,6.083,19.656,19.656,0,0,0-5.556-1.018Zm0,6.766a18.049,18.049,0,0,1,5.087.969c-1.161,3.546-3,6.051-5.087,6.6ZM21.969,49.764a15.561,15.561,0,0,1,3-1.843v0a15.62,15.62,0,0,0,2.894,5.355A15.3,15.3,0,0,1,21.969,49.764Zm9.684,4.118c-2.083-.546-3.926-3.051-5.087-6.6a18.048,18.048,0,0,1,5.087-.968v7.565Zm0-9.266a19.658,19.658,0,0,0-5.556,1.02,28.779,28.779,0,0,1-.8-6.085h6.354Zm0-6.765H25.3a28.776,28.776,0,0,1,.8-6.083,19.656,19.656,0,0,0,5.556,1.018Zm0-14.332v7.566a18.049,18.049,0,0,1-5.087-.969C27.727,26.57,29.569,24.065,31.653,23.519Zm-3.787.6a15.62,15.62,0,0,0-2.894,5.36v0a15.558,15.558,0,0,1-3-1.848A15.3,15.3,0,0,1,27.866,24.121Zm-7.07,4.75a17.238,17.238,0,0,0,3.694,2.265,30.3,30.3,0,0,0-.89,6.715H17.246A15.215,15.215,0,0,1,20.8,28.871Zm2.8,10.68a30.313,30.313,0,0,0,.89,6.715A17.24,17.24,0,0,0,20.8,48.53a15.215,15.215,0,0,1-3.55-8.979H23.6Z" transform="translate(-7.003 -9.801)" fill="#fff"/>
        </g>
      </g>
    </g>
  </g>
</svg>
