<svg xmlns="http://www.w3.org/2000/svg" width="834.784" height="452.412" viewBox="0 0 834.784 452.412">
  <g id="working-group" transform="translate(-17.298)">
    <g id="Group_335" data-name="Group 335" transform="translate(505.808 33.836)">
      <path id="Path_851" data-name="Path 851" d="M1895.249,347.262l-8.312-.377-.2-.009a1.986,1.986,0,0,0-2.045,1.674l-1.066,6.867a1.968,1.968,0,0,1-.08.327,1.948,1.948,0,0,1-1.692,1.318,34.608,34.608,0,0,0-13.169,3.8,2.1,2.1,0,0,1-.528.181,2.02,2.02,0,0,1-1.876-.638l-3.815-4.367a2.022,2.022,0,0,0-2-.609,2.138,2.138,0,0,0-.632.294l-6.962,4.872a2.026,2.026,0,0,0-.585,2.681l3.874,6.671a1.96,1.96,0,0,1-.086,2.1c-.615.911-1.191,1.841-1.728,2.814a34.347,34.347,0,0,0-2.467,5.611l-.006.009a2,2,0,0,1-1.823,1.372l-7.828.315-.395.021a1.952,1.952,0,0,0-1.879,1.867l-.389,8.5a2.045,2.045,0,0,0,1.722,2.1l7.641,1.19a1.982,1.982,0,0,1,1.657,1.63,34.835,34.835,0,0,0,3.467,10.147,1.986,1.986,0,0,1-.46,2.411l-5.169,4.533a2.022,2.022,0,0,0-.321,2.69l4.886,6.994a1.938,1.938,0,0,0,2.556.564l7.849-4.542a2.027,2.027,0,0,1,2.135.062q1.185.788,2.455,1.484a35.133,35.133,0,0,0,4.872,2.218,1.932,1.932,0,0,1,1.294,1.757l.368,9.408a1.993,1.993,0,0,0,1.9,1.909l8.526.395a2,2,0,0,0,1.98-1.4,1.225,1.225,0,0,0,.062-.279l1.324-8.479a1.967,1.967,0,0,1,1.458-1.627.968.968,0,0,1,.2-.045c.208-.033.4-.059.612-.113a34.537,34.537,0,0,0,7.119-2.031,1.918,1.918,0,0,1,2.2.534l4.788,5.456a2.023,2.023,0,0,0,2.681.318l1.55-1.081,5.4-3.788a2,2,0,0,0,.585-2.636l-3.815-6.573a1.923,1.923,0,0,1,.187-2.2,34.934,34.934,0,0,0,5.691-9.818l1.642-.062,6.739-.273a1.926,1.926,0,0,0,1.781-1.36,1.764,1.764,0,0,0,.086-.5l.41-8.553a2,2,0,0,0-1.683-2.048l-5.222-.8a1.985,1.985,0,0,1-1.662-1.757,34.876,34.876,0,0,0-2.731-10.652,1.927,1.927,0,0,1,.5-2.256l6.531-5.727a1.917,1.917,0,0,0,.3-2.532l-4.952-7.063a1.938,1.938,0,0,0-2.574-.573l-8.164,4.729a1.975,1.975,0,0,1-2.221-.154,33.755,33.755,0,0,0-4.456-2.912q-1.282-.7-2.595-1.291a1.994,1.994,0,0,1-1.176-1.725l-.356-9.019A2.01,2.01,0,0,0,1895.249,347.262Zm-25.816,33.451a21.391,21.391,0,0,1,5.177-5.121,12.407,12.407,0,0,1,1.57-.935,18.9,18.9,0,0,1,8.387-1.965c18.744.968,25.424,23.221,10.646,34.36-.246.181-.49.359-.742.534a18.249,18.249,0,0,1-9.538,2.77,22.982,22.982,0,0,1-4.281-.579A18.7,18.7,0,0,1,1869.433,380.714Z" transform="translate(-1839.555 -346.875)" fill="#dfedfb"/>
    </g>
    <g id="Group_336" data-name="Group 336" transform="translate(580.189 91.121)">
      <path id="Path_852" data-name="Path 852" d="M2184.149,542.1l-12.662-2.173-.3-.05a3.061,3.061,0,0,0-3.452,2.173l-2.951,10.313a2.878,2.878,0,0,1-.184.487,3.017,3.017,0,0,1-2.844,1.7,53.53,53.53,0,0,0-20.906,3.289,3.418,3.418,0,0,1-.843.178,3.11,3.11,0,0,1-2.749-1.336l-5.005-7.422a3.122,3.122,0,0,0-2.954-1.315,3.361,3.361,0,0,0-1.027.327l-11.6,6.127a3.129,3.129,0,0,0-1.41,3.993l4.655,10.963a3.032,3.032,0,0,1-.534,3.2c-1.113,1.277-2.179,2.592-3.188,3.981a53.466,53.466,0,0,0-4.857,8.125l-.009.012a3.082,3.082,0,0,1-3.055,1.752l-12.053-1.018-.606-.045a3.016,3.016,0,0,0-3.239,2.5l-2.227,12.944a3.155,3.155,0,0,0,2.233,3.554l11.477,3.286a3.051,3.051,0,0,1,2.224,2.814,53.679,53.679,0,0,0,3.369,16.209,3.068,3.068,0,0,1-1.167,3.6l-8.784,5.952a3.126,3.126,0,0,0-1.009,4.058l6.148,11.652a2.992,2.992,0,0,0,3.809,1.354l12.893-5.453a3.126,3.126,0,0,1,3.26.5q1.666,1.434,3.476,2.746a54.662,54.662,0,0,0,7.039,4.334,2.974,2.974,0,0,1,1.645,2.939l-1.241,14.484a3.073,3.073,0,0,0,2.538,3.286l12.988,2.241a3.09,3.09,0,0,0,3.3-1.757,2.089,2.089,0,0,0,.151-.416l3.655-12.736a3.036,3.036,0,0,1,2.544-2.212,1.682,1.682,0,0,1,.321-.03,8.793,8.793,0,0,0,.962-.056,53.637,53.637,0,0,0,11.3-1.746,2.969,2.969,0,0,1,3.269,1.244l6.291,9.277a3.117,3.117,0,0,0,4.046,1l2.583-1.36,9-4.768a3.075,3.075,0,0,0,1.4-3.925l-4.587-10.8a2.97,2.97,0,0,1,.709-3.337,53.966,53.966,0,0,0,10.6-13.953l2.529.217,10.376.873a2.973,2.973,0,0,0,2.99-1.74,2.708,2.708,0,0,0,.229-.754l2.268-13.027a3.1,3.1,0,0,0-2.185-3.461l-7.846-2.232a3.066,3.066,0,0,1-2.212-3.013,53.849,53.849,0,0,0-2.14-16.841,2.974,2.974,0,0,1,1.2-3.361l11.106-7.52a2.956,2.956,0,0,0,.947-3.821l-6.231-11.768a2.994,2.994,0,0,0-3.833-1.372l-13.413,5.679a3.05,3.05,0,0,1-3.372-.659,52.264,52.264,0,0,0-6.27-5.317q-1.83-1.327-3.726-2.476a3.089,3.089,0,0,1-1.469-2.868l1.185-13.888A3.121,3.121,0,0,0,2184.149,542.1Zm-45.961,46.3a33.031,33.031,0,0,1,8.915-6.855,19.178,19.178,0,0,1,2.586-1.131,29.177,29.177,0,0,1,13.223-1.4c28.532,5.076,34.5,40.448,9.719,54.68-.41.229-.819.457-1.241.677a28.123,28.123,0,0,1-15.143,2.414,35.868,35.868,0,0,1-6.445-1.7A28.868,28.868,0,0,1,2138.188,588.4Z" transform="translate(-2090.105 -539.839)" fill="#cde3fd"/>
    </g>
    <path id="Path_853" data-name="Path 853" d="M989.541,797.04c-.713-17.664,14.089-25.51,29.227-25.51s31.611,3.922,33.039,27.41c.917,15.111-7.137,24.406-30.331,24.406-7.823,0-13.9-1.235-18.557-3.435l-11.593,10.3,5.7-14.241C991.979,811.281,989.85,804.661,989.541,797.04Z" transform="translate(-736.059 -611.627)" fill="#dfedfb"/>
    <g id="Group_337" data-name="Group 337" transform="translate(79.506 183.127)">
      <path id="Path_854" data-name="Path 854" d="M468.821,1731.642a30.5,30.5,0,0,0-2.084-7.808c-1.455-2.912-10.717-1.06-10.717-1.06s-1.852,1.588-2.25,9Z" transform="translate(-438.866 -1463.194)" fill="#233862"/>
      <path id="Path_855" data-name="Path 855" d="M607.718,1717.129c-2.176-1.327-.938-11.24-.938-11.24s10.141-8.113,11.536-1.9,9.633,9,14.324,9.761c3.239.526,4.239,2.319,4.551,3.378H607.718Z" transform="translate(-546.205 -1448.746)" fill="#233862"/>
      <path id="Path_856" data-name="Path 856" d="M504.715,1331.87a47.276,47.276,0,0,1,.745,5.477c.944,18.388,15.479,60.434,18.079,61.414,4.023,1.517,10.358-1.71,13.674-2.764a2.842,2.842,0,0,0,1.995-3.23c-7.2-33.092-9.844-80.746-10.806-108.957a128.117,128.117,0,0,0-2.924-24.026s-35.452-9.458-35.663,2.505C489.625,1272.876,501.553,1314.4,504.715,1331.87Z" transform="translate(-464.209 -1135.564)" fill="#213f7a"/>
      <path id="Path_857" data-name="Path 857" d="M504.708,1331.87l23.684-48.06a128.12,128.12,0,0,0-2.924-24.026s-35.452-9.458-35.663,2.506C489.618,1272.876,501.546,1314.4,504.708,1331.87Z" transform="translate(-464.202 -1135.564)" fill="#233862"/>
      <path id="Path_858" data-name="Path 858" d="M472.4,1266.536l-18.741,135.836s-8.229,1.986-14.633.4c0,0-5.486-72.243-5.029-89.708s-3.939-46.733,1-49.963S472.4,1266.536,472.4,1266.536Z" transform="translate(-424 -1139.769)" fill="#213f7a"/>
      <path id="Path_859" data-name="Path 859" d="M430.62,1039.625l-2.336,32.611a2.6,2.6,0,0,0,1.876,2.687c2.615.76,5.629,1.285,11.441,2.491a111.047,111.047,0,0,0,21.832,2.194c14.357.092,19.792-4.857,19.792-4.857.617.012-.327-2.992-1.179-17.278-.288-4.839-.567-10.972-.766-18.726-.181-6.977-.3-15.262-.315-25.095-.015-11.827-18.323-24.551-18.658-24.551l0,.006c0,1.7-2.684,4.845-6.816,5.115-4.907.321-10.925-2.123-10.925-4.946,0-.03-8.87,14.187-12.02,29.337-.4,1.921-.71,3.945-.956,6.08,0,.033-.009.065-.012.1-.045.389-.089.781-.128,1.176-.009.068-.012.139-.021.208-.036.359-.071.721-.1,1.087-.009.1-.018.211-.027.312-.03.335-.059.665-.086,1,0,.03-.006.062-.009.092-.021.249-.039.5-.056.754-.015.178-.027.359-.042.537-.021.3-.039.591-.062.891-.009.148-.018.3-.03.448-.018.282-.036.567-.051.855-.009.125-.015.255-.024.383-.024.413-.045.828-.068,1.25,0,.036,0,.065-.006.1-.021.4-.042.81-.059,1.217-.006.1-.009.2-.012.3-.018.383-.036.769-.05,1.158l-.009.172c-.042.947-.077,1.912-.113,2.889a.62.62,0,0,0,0,.074Z" transform="translate(-420.941 -947.734)" fill="#f99746"/>
      <path id="Path_860" data-name="Path 860" d="M542.9,989.1s17.023-.145,21.119,5.6,13.08,36.655,8.393,46.938-13.457-4.254-18.326-10.554S542.9,989.1,542.9,989.1Z" transform="translate(-501.536 -947.733)" fill="#f99746"/>
      <path id="Path_861" data-name="Path 861" d="M501.037,956.31l-.009,1.76s.478,5.5-6.3,6.305-11.8-1.048-11.614-5.293a60.663,60.663,0,0,0,1.211-9.366,19.162,19.162,0,0,0-.24-3.3l13.131-.261,3.868.632Z" transform="translate(-459.499 -917.542)" fill="#ffb27d"/>
      <path id="Path_862" data-name="Path 862" d="M503.4,946.792l-.05,9.518a11.126,11.126,0,0,1-4.732,1.045c-6.035,0-9.936-4.426-11.976-7.638a19.158,19.158,0,0,0-.24-3.3l13.131-.261Z" transform="translate(-461.809 -917.542)" fill="#e2915a"/>
      <path id="Path_863" data-name="Path 863" d="M477.926,891c1.523,8.2,12.1,7.929,16.675,7.416,1.285-.142,2.1-.309,2.1-.309,1.452-.389,2.259-2.672,2.636-5.667.745-5.923-.2-14.621-1.2-16.844-1.505-3.346-4.343-6.968-15-4.355S475.97,880.5,477.926,891Z" transform="translate(-454.342 -864.237)" fill="#ffb27d"/>
      <path id="Path_864" data-name="Path 864" d="M596.121,1066.7s6.585,14.541,6.392,18.9a22.663,22.663,0,0,0-6.392.823C590.974,1087.953,596.121,1066.7,596.121,1066.7Z" transform="translate(-537.349 -1002.297)" fill="#ed7d2b"/>
      <path id="Path_865" data-name="Path 865" d="M490.406,853.319a35.282,35.282,0,0,1-10.221-2.767c-4.489-1.953-10.153.2-11.994,1.167a2.738,2.738,0,0,1,.448-1.107,2.466,2.466,0,0,0-.947,1.4c-.086.062-.122.107-.1.122a3.163,3.163,0,0,0-1.538.1s.422-.059.57.211a.2.2,0,0,0,.068.074c-7,3.384-7.65,14.452-5.4,17.014,2.71,3.081,5.964,10.019,5.964,10.019a5.953,5.953,0,0,0,.692-4.352c-.493-2.71,1.849-2.71,4.806-3.945s.493-4.685,3.082-6.777,12.08-.864,11.955-2.464C491.32,860.735,490.406,853.682,490.406,853.319Z" transform="translate(-443.342 -849.76)" fill="#233862"/>
      <path id="Path_866" data-name="Path 866" d="M475.78,1156.956c2.779,11.159,32.837,16.928,39.668,18.1-.288-4.839-.567-10.972-.766-18.727Z" transform="translate(-454.342 -1065.318)" fill="#ed7d2b"/>
      <path id="Path_867" data-name="Path 867" d="M469.741,1142.808c-.285,0-6.683-.956-7.828-1.526s-6.386-8.018-2.954-9.927,12.641,5.727,12.641,5.727Z" transform="translate(-441.707 -1047.542)" fill="#ffb27d"/>
      <path id="Path_868" data-name="Path 868" d="M531.114,1146.46s-24.735,1.342-41.333-2.212a7.136,7.136,0,0,1,4.8-6.926s25.872-5.483,32.086-3.957S531.114,1146.46,531.114,1146.46Z" transform="translate(-464.181 -1048.983)" fill="#f99746"/>
      <path id="Path_869" data-name="Path 869" d="M413.7,1026.207c5.133,6.19,11.845,11.242,19.243,12.427l0,0a13.8,13.8,0,0,0,1.832-8.262,16.545,16.545,0,0,0-2.693-7.582,16.778,16.778,0,0,1-1.455-2.933c-4.04-10.307-3.438-30.174-3.438-30.174s-17.156,1.8-22.5,9.432C401.41,1003.793,405.587,1016.422,413.7,1026.207Z" transform="translate(-403.567 -948.142)" fill="#f99746"/>
      <path id="Path_870" data-name="Path 870" d="M539.155,950.746c1.285-.143,2.1-.309,2.1-.309,1.452-.389,2.259-2.672,2.636-5.667a7.176,7.176,0,0,0-4.486,3.666A5.31,5.31,0,0,0,539.155,950.746Z" transform="translate(-498.895 -916.564)" fill="#e2915a"/>
      <path id="Path_871" data-name="Path 871" d="M548.1,956.267s5.926-9.776,1.318-10.2a6.97,6.97,0,0,0-7.125,3.839c-.665,1.146.175,6.312.175,6.312Z" transform="translate(-500.93 -917.448)" fill="#ffb27d"/>
      <path id="Path_872" data-name="Path 872" d="M486.338,1019.474a12.782,12.782,0,0,0,1.009,3.393,16.223,16.223,0,0,0,3.773,5.2l0,0c15.387-6.947,18.5-30.794,19.023-43.9.211-5.266,0-8.8,0-8.8-6.941-2.3-8.891,1.7-8.891,1.7s-8.2,19.49-12.448,32.228C487.178,1014.163,486.13,1018.049,486.338,1019.474Z" transform="translate(-461.747 -937.573)" fill="#f99746"/>
      <path id="Path_873" data-name="Path 873" d="M437.69,1038.174c5.133,6.19,11.845,11.242,19.243,12.427l0,0c15.387-6.947,18.5-30.794,19.023-43.9,0,0-7.282,26.41-17.192,35.639a10.8,10.8,0,0,1-5.6,3.067s-12.5-3.533-15.117-6.858A1.531,1.531,0,0,0,437.69,1038.174Z" transform="translate(-427.56 -960.109)" fill="#ed7d2b"/>
    </g>
    <g id="Group_351" data-name="Group 351" transform="translate(526.622 239.755)">
      <g id="Group_344" data-name="Group 344" transform="translate(0 11.204)">
        <g id="Group_339" data-name="Group 339" transform="translate(0 71.675)">
          <path id="Path_874" data-name="Path 874" d="M1963.932,1343.344s9.776-11.471.552-18.712c0,0-6.733-4.052-12.213-3.7,0,0,7.8,13,5.293,14.306s-7.65-15.117-7.65-15.117-15.3-1.44-20.217.938c0,0,13.107,10.667,10.355,11.311s-16.907-9.82-16.907-9.82-14.232,2.461-13.448,11.147,5.7,11.352,7.852,11.115,14.757-5.085,15.036-3.322-7.3,7.561-12.614,7.846c0,0,10.07,11.044,16.732,7.828s7.22-8.28,11.373-10.192,7.7-1.915,5.991.027-9.233,3.844-11.6,8.06-4.492,7.057,2.408,6,18.106-6.139,18.581-11.925Z" transform="translate(-1909.665 -1319.685)" fill="#c8dbf4"/>
          <g id="Group_338" data-name="Group 338" transform="translate(7.025 14.138)">
            <path id="Path_875" data-name="Path 875" d="M1933.33,1367.39s38.667-1.6,47.241,9.44a27.976,27.976,0,0,0,7.73,10.785l.911,2.467s-6.721-7.048-9.12-7.469C1980.093,1382.616,1983.807,1368.9,1933.33,1367.39Z" transform="translate(-1933.33 -1367.309)" fill="#c8dbf4"/>
            <path id="Path_876" data-name="Path 876" d="M2113.324,1433.417a24.277,24.277,0,0,1,8.924,17.082l-1.5.14s-2.684-11.334-7.487-15.758S2113.324,1433.417,2113.324,1433.417Z" transform="translate(-2058.352 -1413.11)" fill="#c8dbf4"/>
          </g>
        </g>
        <g id="Group_341" data-name="Group 341" transform="translate(95.836 24.569)">
          <path id="Path_877" data-name="Path 877" d="M2242.783,1201.53s-15.627-8.7-8.378-20.573c0,0,5.8-7.3,12.041-9.188,0,0-3.281,17.693.05,18.1s2.232-19.976,2.232-19.976,16.414-7.95,22.865-7.344c0,0-10.147,17.3-6.819,16.871s14.722-17.931,14.722-17.931,16.841-3.168,19.573,6.81-1.624,14.983-4.118,15.615-18.513.466-18.091,2.547,11.248,5.379,17.278,3.488c0,0-6.611,16.453-15.351,15.645s-11.459-6.21-16.868-6.611-9.357,1.066-6.65,2.515,11.86.445,16.239,4.147,7.921,5.982-.187,7.668-22.675.686-25.605-5.546Z" transform="translate(-2232.486 -1161.011)" fill="#c8dbf4"/>
          <g id="Group_340" data-name="Group 340" transform="translate(2.138 10.429)">
            <path id="Path_878" data-name="Path 878" d="M2306.009,1196.14s-43.649,14.268-48.6,30.091a33.153,33.153,0,0,1-4.12,15.2l.009,3.12s4.548-10.622,7.039-12.085C2260.338,1232.465,2250.523,1218.761,2306.009,1196.14Z" transform="translate(-2249.252 -1196.14)" fill="#c8dbf4"/>
            <path id="Path_879" data-name="Path 879" d="M2243.725,1344.088s-6.709,10.248-2.832,22.693l1.731-.469s-1.719-13.712,1.784-20.621S2243.725,1344.088,2243.725,1344.088Z" transform="translate(-2239.687 -1298.797)" fill="#c8dbf4"/>
          </g>
        </g>
        <g id="Group_343" data-name="Group 343" transform="translate(5.735)">
          <path id="Path_880" data-name="Path 880" d="M2004.523,1131.357s20.534-11.575,10.9-27.178c0,0-7.7-9.577-15.939-12.023,0,0,4.453,23.3.065,23.857s-3.091-26.318-3.091-26.318-21.692-10.361-30.192-9.515c0,0,13.5,22.722,9.111,22.188s-19.534-23.53-19.534-23.53-22.224-4.052-25.753,9.12,2.247,19.739,5.542,20.552,24.409.481,23.868,3.224-14.79,7.169-22.749,4.723c0,0,8.835,21.639,20.351,20.511s15.06-8.268,22.188-8.838,12.344,1.336,8.784,3.266-15.63.671-21.375,5.584-10.4,7.941.3,10.105,29.895.739,33.71-7.5S2004.523,1131.357,2004.523,1131.357Z" transform="translate(-1928.982 -1078.249)" fill="#d4e4f8"/>
          <g id="Group_342" data-name="Group 342" transform="translate(11.263 13.796)">
            <path id="Path_881" data-name="Path 881" d="M1966.92,1124.72s57.64,18.489,64.278,39.312a43.734,43.734,0,0,0,5.54,20l.012,4.115s-6.071-13.968-9.366-15.88C2027.381,1172.27,2040.22,1154.134,1966.92,1124.72Z" transform="translate(-1966.92 -1124.72)" fill="#d4e4f8"/>
            <path id="Path_882" data-name="Path 882" d="M2195.571,1318.474s8.918,13.463,3.9,29.892l-2.286-.609s2.167-18.088-2.5-27.169S2195.571,1318.474,2195.571,1318.474Z" transform="translate(-2125.753 -1259.159)" fill="#d4e4f8"/>
          </g>
        </g>
      </g>
      <g id="Group_350" data-name="Group 350" transform="translate(27.39)">
        <g id="Group_345" data-name="Group 345" transform="translate(0 58.466)">
          <path id="Path_883" data-name="Path 883" d="M2189.892,1388.416l-168.863.419c-25.118-28.758-27.674-67.633,5.694-100.369,4.195-4.118,12.243-7.036,20.917-9.09,15.992-3.791,34.125-4.658,34.265-4.732.053-.021,9.586-7.742,15.322-14.683,17.824-21.559,32.976-19.7,32.976-19.7,18.16-3.527,33.647-4.557,45.127,1.838,0,0,0,0,0,.006,10.634,5.934,17.83,18.249,20.517,40.873q.765,6.417,1.036,13.968c.65,18.361,4.263,34.7,6.406,48.526a0,0,0,0,1,0,0C2206.4,1365.509,2206.425,1380.3,2189.892,1388.416Z" transform="translate(-2001.928 -1237.452)" fill="#f99746"/>
        </g>
        <path id="Path_884" data-name="Path 884" d="M2270.272,1263.792c-11.02,6-12.246,25.768-29.494,30.865s-46.519,4.622-63.129,22.624c-16.025,17.37-33.674-26.846-26.062-39.276,15.992-3.791,34.125-4.658,34.265-4.732.054-.021,9.586-7.742,15.322-14.683,17.824-21.559,32.976-19.7,32.976-19.7,18.16-3.527,33.647-4.557,45.127,1.841,0,0,0,0,0,.006C2285.107,1247.1,2281.292,1257.8,2270.272,1263.792Z" transform="translate(-2105.874 -1178.023)" fill="#ed7d2b"/>
        <g id="Group_349" data-name="Group 349" transform="translate(15.397)">
          <path id="Path_885" data-name="Path 885" d="M2174.658,1348.384s-55.292-.727-62.655,3.984,7.594,79.591,7.594,79.591,14.3.416,15.428-3.37c0,0-2.669-35.1-.433-41.167s.823-14.472.823-14.472,27.98,4.189,36.856,2.066S2174.658,1348.384,2174.658,1348.384Z" transform="translate(-2093.29 -1256.957)" fill="#233862"/>
          <path id="Path_886" data-name="Path 886" d="M2293.251,1218.11c0,.045-7.781,18.136-11.572,20.063s-17.524,17.7-20.466,17.429,3.444,2.393,3.444,2.393,24-11.061,25.394-11.753,8.746-12.783,9.755-18.92S2293.251,1218.11,2293.251,1218.11Z" transform="translate(-2199.091 -1165.386)" fill="#ffb27d"/>
          <path id="Path_887" data-name="Path 887" d="M2165.339,1610.584c-1.844,3.557-2.259,10.094-2.805,12.311s-10.209,9.755-11.041,9.375c-2.114-.953-.095-4.634,1.2-7.327.053-.11.1-.217.152-.321,1.273-2.713.178-8.769.837-11.9s-2.511-11.545-2.511-11.545l5.338-6.742s3.752,7.137,6.436,8.437a6.458,6.458,0,0,1,1.309.834C2166.066,1605.207,2166.853,1607.66,2165.339,1610.584Z" transform="translate(-2121.843 -1429.995)" fill="#ffb27d"/>
          <path id="Path_888" data-name="Path 888" d="M2078.525,1676.248c-3.7,1.526-8.235,6.255-10.085,7.594s-14.1.864-14.487.042c-1.039-2.173,3.242-3.723,5.964-4.976.042-.018.08-.039.119-.056l.009-.006c2.693-1.354,5.7-6.552,8.188-8.488,2.52-1.962,5.528-10.438,5.528-10.438l8.428-1.71s-1.737,7.876-.523,10.6a7.508,7.508,0,0,1,.291.778C2082.729,1672.115,2081.879,1674.861,2078.525,1676.248Z" transform="translate(-2053.793 -1474.833)" fill="#ffb27d"/>
          <path id="Path_889" data-name="Path 889" d="M2392.977,1085.2c-1.125-1.3,16.654-6.662,20.445,7.929,0,0,32.724-8.7,12.608-23.281-6.965-5.047-7.663-10.432-8.672-15.36s-7.956-19.092-20.015-12.062c0,0-5.51.024-9,3.043C2380.417,1052.346,2371.748,1096.01,2392.977,1085.2Z" transform="translate(-2282.931 -1040.51)" fill="#163560"/>
          <path id="Path_890" data-name="Path 890" d="M2199.1,1357.13s-57.338,5.828-62.375,11.679-24.851,81.954-24.851,81.954,5.851,3.263,11.168.214c0,0,15.17-25.816,21.882-33.92s9.227-33.128,10.334-33.383,37.038,5.017,49.411-4.48S2199.1,1357.13,2199.1,1357.13Z" transform="translate(-2094.629 -1263.135)" fill="#2a4e96"/>
          <path id="Path_891" data-name="Path 891" d="M2373.194,1172.29a59.771,59.771,0,0,0-31.02-3.319c-3.544.57-6.736,1.737-9.271,5.911-3.58,5.9-5.258,9.063-5.258,9.063s.344,2.734,5.237,4.91c-1.333,4.89,1.217,13.427-1.134,16.744s-16.921,11.527-17.643,16.1c-1.324,8.4,24.9,23.619,32.718,22C2369.329,1239.015,2384.618,1178.72,2373.194,1172.29Z" transform="translate(-2236.792 -1130.322)" fill="#f9ddbf"/>
          <path id="Path_892" data-name="Path 892" d="M2439.994,1072.306s2.7-5.305,3.055-9.657c.255-3.108-2.369-14.288-13.6-11.587a15.573,15.573,0,0,0-6.187,3.028c-2.316,1.9-5.542,5.843-.623,15.351l1.351,3.242Z" transform="translate(-2311.328 -1047.636)" fill="#163560"/>
          <g id="Group_346" data-name="Group 346" transform="translate(102.463 7.784)">
            <path id="Path_893" data-name="Path 893" d="M2434.122,1145.77c-1.137,1.2-.689,5.18,4.625,4.881,3.488-.2,10.966-4.51,10.269-7.49-.333-1.416-3.013-5.071-3.646-13.481l-.632.178-10.652,2.993s.513,3.384.772,6.594C2435.078,1142.137,2434.591,1145.275,2434.122,1145.77Z" transform="translate(-2423.318 -1110.992)" fill="#ffb27d"/>
            <path id="Path_894" data-name="Path 894" d="M2435.21,1133.282s.514,3.384.772,6.593c6.042-.647,8.808-6.421,9.877-9.586Z" transform="translate(-2424.442 -1111.421)" fill="#f4a269"/>
            <path id="Path_895" data-name="Path 895" d="M2412.6,1096.481s13.938-3.5,11.619-12.151-2.078-14.921-11.073-13.047-9.835,5.632-9.761,8.707S2408.921,1097.17,2412.6,1096.481Z" transform="translate(-2402.065 -1069.698)" fill="#ffb27d"/>
            <path id="Path_896" data-name="Path 896" d="M2414.8,1069.807s4.679,8.915,13.5,9.877c5.166.561,6.582,3.966,6.582,3.966s-1.549-9.731-4.144-15.684C2430.742,1067.966,2416.368,1064.208,2414.8,1069.807Z" transform="translate(-2410.091 -1066.732)" fill="#163560"/>
            <path id="Path_897" data-name="Path 897" d="M2405.243,1077.61s-3.052,3.114-3.993,5.311c-1.4,3.251,1.324,10.1,2.446,11.578,0,0-6.484-11-4.316-15.767C2401.678,1073.68,2405.243,1077.61,2405.243,1077.61Z" transform="translate(-2398.937 -1073.357)" fill="#163560"/>
          </g>
          <path id="Path_898" data-name="Path 898" d="M2233.36,1346.261s-2.776,2.939-3.114,3.1c-1.834.858-4.153.359-5.272.641s-.927-.416-.1-.983,2.859-.344,2.028-.549-5.317-1.042-7.006-.591c-2.675.716-4.782-.125-4.951-.4s6.106-3.34,7.9-3.236,6.947-.143,6.947-.143Z" transform="translate(-2167.1 -1253.973)" fill="#ffb27d"/>
          <path id="Path_899" data-name="Path 899" d="M2436.334,1200.14s1.668,40.876-3.138,46.606c-4.771,5.691-34.019-.632-34.019-.632l-2.028-2.987s25.961-3.8,27.7-4.292c2.506-.71.763-28.856.763-28.856Z" transform="translate(-2295.217 -1152.751)" fill="#ffb27d"/>
          <path id="Path_900" data-name="Path 900" d="M2482.36,1179.718c.416.012,5.581,1.707,9.292,9.055,3.643,7.217,4.973,10.72,4.973,10.72s-16.17,12.528-22.6,7.915S2476.428,1179.564,2482.36,1179.718Z" transform="translate(-2347.691 -1138.391)" fill="#f9ddbf"/>
          <path id="Path_901" data-name="Path 901" d="M2379.282,1350.463s-2.328,2.357-3.212,3.562-7.071,3.384-7.211,2.743,2.767-2.609,3.031-3.34,3.435-4.411,5.365-4.83S2379.282,1350.463,2379.282,1350.463Z" transform="translate(-2275.322 -1257.1)" fill="#ffb27d"/>
          <path id="Path_902" data-name="Path 902" d="M2361.246,1344.94s-9.539,2.206-11.157,2.868-5.052,5.519-3.69,6.249c.861.46,4.625-1.526,6.534-1.942s7.324.526,9.8-4.367C2363.015,1347.2,2361.246,1344.94,2361.246,1344.94Z" transform="translate(-2259.314 -1254.564)" fill="#ffb27d"/>
          <path id="Path_903" data-name="Path 903" d="M2078.525,1703.192c-3.7,1.526-8.235,6.255-10.085,7.594s-14.1.864-14.487.042c-1.039-2.173,3.242-3.723,5.964-4.976.042-.018.08-.039.119-.056l.009-.006.383-.125s5.281,1.885,9.672,0c3.426-1.47,8.505-6.917,11.854-9.135C2082.729,1699.059,2081.879,1701.805,2078.525,1703.192Z" transform="translate(-2053.793 -1501.777)" fill="#2e3552"/>
          <path id="Path_904" data-name="Path 904" d="M2165.339,1632.535c-1.844,3.557-2.259,10.094-2.805,12.311s-10.209,9.755-11.041,9.375c-2.114-.953-.095-4.634,1.2-7.327a6,6,0,0,0,2.951-1.1c2.413-1.609,6.51-7.683,6.878-11.266.3-2.921.11-7.1,1.734-8.871C2166.066,1627.159,2166.853,1629.611,2165.339,1632.535Z" transform="translate(-2121.843 -1451.946)" fill="#2e3552"/>
          <g id="Group_348" data-name="Group 348" transform="translate(35.591 69.646)">
            <g id="Group_347" data-name="Group 347">
              <path id="Path_905" data-name="Path 905" d="M2227.722,1306.189h-41.547l-12.5-31.079h41.482Z" transform="translate(-2173.68 -1275.11)" fill="#f99746"/>
              <path id="Path_906" data-name="Path 906" d="M2214.13,1375.72h54.865v1.211h-54.378Z" transform="translate(-2202.122 -1345.852)" fill="#ed7d2b"/>
            </g>
            <path id="Path_907" data-name="Path 907" d="M2250.911,1322.777a1.439,1.439,0,0,1,1.41-1.977,2.831,2.831,0,0,1,2.544,1.977,1.439,1.439,0,0,1-1.41,1.977A2.841,2.841,0,0,1,2250.911,1322.777Z" transform="translate(-2227.927 -1307.236)" fill="#fff"/>
          </g>
        </g>
        <path id="Path_908" data-name="Path 908" d="M2324.511,1379.16s-5.433,5.088-28.164,5.81-52.371,25.828-52.65,32.92,45.76,17.883,46.472,16.871,29.206-25.471,29.206-25.471Z" transform="translate(-2171.922 -1278.625)" fill="#f99746"/>
        <path id="Path_909" data-name="Path 909" d="M2564.778,1451.937c-12.237-22.034-40.182,8.354-47.128-1.927s9.821-23.331,24.943-34.576c14.814-11.014,14.751-25.412,14.743-25.994q.765,6.417,1.036,13.968C2559.022,1421.772,2562.635,1438.106,2564.778,1451.937Z" transform="translate(-2363.411 -1285.853)" fill="#ed7d2b"/>
      </g>
    </g>
    <g id="Group_357" data-name="Group 357" transform="translate(360.326)">
      <path id="Path_910" data-name="Path 910" d="M1547.014,331.06a98.372,98.372,0,0,1-22.4,63.233,82.653,82.653,0,0,0-19,52.406v27.609a31.681,31.681,0,0,1-7.564,20.546,32.04,32.04,0,0,1-22.191,11.317c-.716.048-1.384,0-2.111,0h-50.987c-.686,0-1.428.045-2.1,0a31.974,31.974,0,0,1-29.755-31.86V446.75a82.322,82.322,0,0,0-18.908-52.335,98.761,98.761,0,1,1,175.02-63.355Z" transform="translate(-1349.5 -232.9)" fill="#ffb93e"/>
      <path id="Path_911" data-name="Path 911" d="M1644.383,1153.4c-.255,1.977-4.557,34.986-4.6,35.3-.709,5.448-6.938,9.607-14.383,9.607h-16.779c-7.374,0-13.594-4.094-14.375-9.506-.813-5.694-3.939-27.517-5.068-35.4Z" transform="translate(-1518.026 -880.131)" fill="#ed7d2b"/>
      <g id="Group_352" data-name="Group 352" transform="translate(72.695 273.269)">
        <path id="Path_912" data-name="Path 912" d="M1641.37,1153.4h-9.485c-15.3,4.426-30.483,8.8-37.516,10.782l.368,2.58.009.056.374,2.613c5.7-1.576,19.368-5.5,52.8-15.182l.11-.849Z" transform="translate(-1594.37 -1153.4)" fill="#f99746"/>
        <path id="Path_913" data-name="Path 913" d="M1602.078,1209.39v.006l.006.056v.006l.38,2.621c6.588-1.849,20.175-5.747,48.473-13.95l.374-2.847v-.024l.368-2.829c-17.883,5.177-39.528,11.43-49.969,14.4Z" transform="translate(-1599.531 -1180.843)" fill="#f99746"/>
        <path id="Path_914" data-name="Path 914" d="M1618.151,1262.324l.092.053a16.173,16.173,0,0,0,3.907,1.624h.006c7.763-2.224,19.282-5.552,36.417-10.515l.368-2.853.006-.024.368-2.829c-15.3,4.429-32.861,9.5-43.705,12.605A12.974,12.974,0,0,0,1618.151,1262.324Z" transform="translate(-1609.305 -1219.761)" fill="#f99746"/>
      </g>
      <g id="Group_356" data-name="Group 356" transform="translate(57.444 144.448)">
        <g id="Group_353" data-name="Group 353" transform="translate(0 2.099)">
          <path id="Path_915" data-name="Path 915" d="M1564.342,853.262,1543,727.285l4.406-.745,21.464,126.722Z" transform="translate(-1543 -726.54)" fill="#ffeac5"/>
        </g>
        <g id="Group_354" data-name="Group 354" transform="translate(54.746 4.062)">
          <path id="Path_916" data-name="Path 916" d="M1731.97,857.91h-4.56l22.853-124.76,4.394.8Z" transform="translate(-1727.41 -733.15)" fill="#ffeac5"/>
        </g>
        <g id="Group_355" data-name="Group 355" transform="translate(2.173)">
          <path id="Path_917" data-name="Path 917" d="M1601.245,744.86a8.707,8.707,0,0,1-1.93-.234,2.766,2.766,0,0,1-2.188-2.4c-.511-2.791,1.68-7.912,4.756-12.252-1.606-2.805-3.75-5.121-5.991-5.8-3.316-1.006-8.4,2.057-11.949,5.967a26.524,26.524,0,0,1,1.743,2.841c1.814,3.429,3.12,7.811,1.336,9.838-.662.751-2.013,1.434-4.691.422-3.346-1.262-4.548-4.1-3.3-7.778a17.856,17.856,0,0,1,3.174-5.421c-2.746-3.58-6.412-6.3-10.025-5.845a11.057,11.057,0,0,0-4.964,1.873c2.313,4.3,2.844,9.758,1.241,12.688-1.093,1.995-3,2.624-5.373,1.784-1.7-.606-2.595-2.954-2.268-5.976a13.816,13.816,0,0,1,4.634-8.841,11.441,11.441,0,0,0-2.568-2.88c-6.225-4.833-11.376.353-11.59.579l-.971-.941c.062-.062,6.222-6.27,13.392-.7a12.709,12.709,0,0,1,2.814,3.126,12.432,12.432,0,0,1,5.486-2.045c4.052-.508,8.093,2.348,11.094,6.154,3.856-4.189,9.349-7.285,13.181-6.13,2.422.733,4.705,3.07,6.451,5.946a23.236,23.236,0,0,1,5.2-5.112c2.82-1.867,4.661-1.44,5.7-.751a10.194,10.194,0,0,1,2.74,2.74,15.028,15.028,0,0,1,2.624-1.689c3.269-1.63,6.27-1.508,8.452.335l-.873,1.033c-2.351-1.992-5.382-.953-6.976-.157a14.022,14.022,0,0,0-2.515,1.627c2.176,3.925,2.6,9.037,1.351,11.513a2.856,2.856,0,0,1-3.824,1.5c-2.954-1.081-3.675-3.117-3.758-4.631-.16-2.9,1.849-6.2,4.474-8.633a8.844,8.844,0,0,0-2.437-2.506c-1.276-.84-3-.056-4.213.751a22.863,22.863,0,0,0-5.228,5.252c2.027,3.856,3.078,8.354,2.31,11.254A4.392,4.392,0,0,1,1601.245,744.86Zm1.342-13.558c-2.675,3.9-4.56,8.315-4.13,10.684a1.451,1.451,0,0,0,1.158,1.318c2.648.6,4.275-.172,4.836-2.3C1605.1,738.552,1604.252,734.713,1602.587,731.3Zm-19.549-.1a16.092,16.092,0,0,0-2.728,4.7c-1.027,3.022-.184,5.068,2.5,6.08,1.081.407,2.512.73,3.2-.05,1.063-1.205.439-4.622-1.517-8.312A25,25,0,0,0,1583.038,731.2Zm-16.9-4.284a12.435,12.435,0,0,0-3.981,7.793c-.249,2.307.315,4.18,1.377,4.557,1.719.612,2.978.223,3.735-1.158C1568.64,735.6,1568.141,730.777,1566.137,726.92Zm49.886.864c-2.348,2.256-3.945,5.148-3.821,7.374a3.81,3.81,0,0,0,2.874,3.438,1.529,1.529,0,0,0,2.152-.837C1618.274,735.684,1617.828,731.24,1616.023,727.784Z" transform="translate(-1550.32 -719.468)" fill="#ffeac5"/>
        </g>
      </g>
      <path id="Path_918" data-name="Path 918" d="M1778.27,337.251c8.119,7.647,7.1,21.722-3.343,24.854-7.873,2.36-19.614-.793-25.418-10.842s-3.126-18.308,3.993-22.42S1769.824,329.295,1778.27,337.251Z" transform="translate(-1628.534 -299.278)" fill="#ffeac5"/>
    </g>
    <g id="Group_359" data-name="Group 359" transform="translate(174.242 190.926)">
      <path id="Path_919" data-name="Path 919" d="M797.876,932.562c-.95-1.829,20.7-8.419,21.042,9.639,0,0,40.549-1,21.188-23.6-6.7-7.826-6.015-14.294-5.813-20.315s-4.174-23.527-19.184-21.763a11.166,11.166,0,0,0-8.835.947C795.118,883.255,770.127,939.221,797.876,932.562Z" transform="translate(-766.669 -876.029)" fill="#163560"/>
      <path id="Path_920" data-name="Path 920" d="M1051.11,1123.154s2.639-4.02,4.768-4.1,6.068-1.181,5.75-.395-2.758.867-2.993,1.339,3.625,1.182,4.726,1.262,3.7,0,3.625.552-4.688,2.835-7.938,2.52a22.092,22.092,0,0,0-7.27.944Z" transform="translate(-953.61 -1046.434)" fill="#ffb27d"/>
      <path id="Path_921" data-name="Path 921" d="M922.53,1062.839a39.538,39.538,0,0,0,4.037,6.107c3.138,3.928,7.974,8.467,14.045,9.363a15.087,15.087,0,0,0,8.345-1.354.022.022,0,0,1,.009,0c7.374-3.274,12.92-10.8,12.92-10.8a6.061,6.061,0,0,0-.828-5.949s-14.891,3.349-16.31,2.639-9.69-24.542-11.661-27.538-8.683-4.551-8.683-4.551Z" transform="translate(-863.201 -984.818)" fill="#f9ddbf"/>
      <path id="Path_922" data-name="Path 922" d="M935.021,1140.722c3.138,3.927,7.974,8.467,14.045,9.363a15.087,15.087,0,0,0,8.345-1.354c-.288.039-7.653.947-10.589-4.3-3-5.359-6.234-13.867-10.681-11.032C934.219,1134.618,934.305,1137.661,935.021,1140.722Z" transform="translate(-871.655 -1056.594)" fill="#f2ccaa"/>
      <path id="Path_923" data-name="Path 923" d="M726.455,1675.635s-4.545,4.147-3.657,7.092,4.987,4.91,5.543,8.511,2.77,5.566,4.765,5.566h9.512s1.469-2.535-2.078-3.3-4.884-5-4.661-8.924a69.087,69.087,0,0,0-.333-9.167l-7.538-1.746Z" transform="translate(-722.683 -1436.874)" fill="#233862"/>
      <path id="Path_924" data-name="Path 924" d="M863.445,1686.22s-1.636,17.566.359,18.548l25.531-.053s0-2.945-4.1-3.6-11.3-3.055-12.522-8.4S863.445,1686.22,863.445,1686.22Z" transform="translate(-821.213 -1445.698)" fill="#233862"/>
      <path id="Path_925" data-name="Path 925" d="M803.386,1060.4c5.255-11.783,8.467-15.164,7.855-18.822-.457-2.722,1.389-50.744,1.389-50.744.623-.193,1.873-.365,2.556-.519a6.41,6.41,0,0,0,4.682-4.07,32.657,32.657,0,0,0,1.588-10.836l.674.134,11.317,2.241s-.258,3.562-.264,6.914v.083a6.508,6.508,0,0,0,4.7,6.294c1.428.413,2.672.766,2.672.766a103.708,103.708,0,0,1,4.949,24.049c.793,12.186-7.555,17.48.062,41.832C853.338,1082.595,800.483,1066.911,803.386,1060.4Z" transform="translate(-779.347 -945.907)" fill="#ffb27d"/>
      <path id="Path_926" data-name="Path 926" d="M878.114,978.1s-.258,3.563-.264,6.914c-6.332-.178-9.678-5.955-11.05-9.156Z" transform="translate(-824.016 -946.223)" fill="#e8945b"/>
      <path id="Path_927" data-name="Path 927" d="M876.122,934.237s-14.98.246-14.992-9.084-1.95-15.586,7.615-16.138,11.427,3.007,12.189,6.121S880.02,933.931,876.122,934.237Z" transform="translate(-819.91 -899.182)" fill="#ffb27d"/>
      <path id="Path_928" data-name="Path 928" d="M864.161,903.889s-4.1,10.949-10.4,12.567-9.025-.068-9.025-.068a17.834,17.834,0,0,0,5.83-10.533S861.068,898.679,864.161,903.889Z" transform="translate(-808.505 -894.285)" fill="#163560"/>
      <path id="Path_929" data-name="Path 929" d="M906.74,907.141s3.043,1.137,4.293,3.355a15.086,15.086,0,0,1,2.025,8.568s3.09-7.443-.383-11.652C908.993,902.949,906.74,907.141,906.74,907.141Z" transform="translate(-852.099 -896.649)" fill="#163560"/>
      <path id="Path_930" data-name="Path 930" d="M901.05,973.371a3.764,3.764,0,0,0,3.1,1.262,2.76,2.76,0,0,0,2.31-1.523A10.069,10.069,0,0,0,901.05,973.371Z" transform="translate(-848.098 -944.106)" fill="#ebf3fa"/>
      <path id="Path_931" data-name="Path 931" d="M798.39,1048.621a101.81,101.81,0,0,0,0,11.8c.252,4.266,4.569,9.981,5.18,11.394,1.538,3.545,3.269,4.124,3.269,4.124l13.4,3.286,4.714,1.155,14.864-4.438s6.769-18.9,4.052-29.533A81.771,81.771,0,0,0,837,1028.386s-12.127,11.875-27.921-1.006Z" transform="translate(-775.796 -982.448)" fill="#f9ddbf"/>
      <path id="Path_932" data-name="Path 932" d="M812,1134.331c.252,4.266.644,8.241,1.259,9.654,1.538,3.545,3.269,4.124,3.269,4.124l13.4,3.286,5.822-1.71s-19.433-2.945-17.281-19.665Z" transform="translate(-785.484 -1054.618)" fill="#f2ccaa"/>
      <path id="Path_933" data-name="Path 933" d="M876.752,1200.61s7.359,22.91,7.834,30.711-14.069,110.807-14.654,114.4c-.552,3.387-4.759,5.548-4.759,5.548a6.377,6.377,0,0,1-4.7.362c-3.833-1.081-5.044-2.378-5.044-2.378s-5.73-73.463-2.185-99.707a415.689,415.689,0,0,0,3.586-48.936h19.917Z" transform="translate(-813.674 -1104.251)" fill="#ed7d2b"/>
      <path id="Path_934" data-name="Path 934" d="M767.187,1198.31s-11.228,15.063-12.273,25.249-1.642,45.953-3.871,55.88-10.423,29.031-10.423,59.995a6.173,6.173,0,0,0,3.482,2.719,28.241,28.241,0,0,0,3.061.846,4.815,4.815,0,0,0,5.382-2.556c5.54-11.153,23.183-47.122,24.088-54.589.641-5.284,6.211-40.255,18.364-60.775,2.918-4.925-1.79-24.518-1.79-24.518Z" transform="translate(-735.295 -1102.634)" fill="#f99746"/>
      <path id="Path_935" data-name="Path 935" d="M902.17,973.785s.258,1.1,3,.929c0,0,2.3-.142,2.227-1.351A7.4,7.4,0,0,0,902.17,973.785Z" transform="translate(-848.886 -944.27)" fill="#fff"/>
      <path id="Path_936" data-name="Path 936" d="M858.708,1188.69s-2.954,2.336-8.826,2.455c-7.012.142-24.385-1.787-24.385-1.787a14.363,14.363,0,0,0-.739,4.435s21.22,5.353,33.514.781A7.771,7.771,0,0,0,858.708,1188.69Z" transform="translate(-794.454 -1095.87)" fill="#233862"/>
      <g id="Group_358" data-name="Group 358" transform="translate(53.911 94.076)">
        <path id="Path_937" data-name="Path 937" d="M904.28,1196.542a3.225,3.225,0,1,1,3.2,3.622A3.433,3.433,0,0,1,904.28,1196.542Zm1.06,0a2.175,2.175,0,1,0,2.14-2.562A2.381,2.381,0,0,0,905.34,1196.542Z" transform="translate(-904.28 -1192.92)" fill="#fff"/>
      </g>
      <rect id="Rectangle_53" data-name="Rectangle 53" width="28.826" height="39.457" transform="translate(29.937 115.88) rotate(-138.953)" fill="#b5453c"/>
      <path id="Path_938" data-name="Path 938" d="M840.191,1202.89s7.965.932,7.941,2.823-1.986,5.774-2.969,5.949-6.484-5.252-6.484-5.252Z" transform="translate(-804.244 -1105.855)" fill="#ffb27d"/>
      <path id="Path_939" data-name="Path 939" d="M771.989,1027.37s-10.634.745-14.71,10.655-11.81,26.549-11.81,29.346,4.319,11.427,27.523,16.387c0,0,2.4-2.523,2.253-4.521,0,0-14.484-12.442-14.446-13.894.074-2.749,2.375-6.383,15.09-19.1C779.349,1042.784,771.989,1027.37,771.989,1027.37Z" transform="translate(-738.705 -982.441)" fill="#f9ddbf"/>
    </g>
    <g id="Group_371" data-name="Group 371" transform="translate(291.804 242.688)">
      <g id="Group_367" data-name="Group 367">
        <g id="Group_362" data-name="Group 362" transform="translate(4.537 69.818)">
          <g id="Group_360" data-name="Group 360" transform="translate(1.974 66.615)">
            <path id="Path_940" data-name="Path 940" d="M1141.777,1581.156h-.1a1.058,1.058,0,0,1-1.057-1.084l1.606-69.56,4.726-.552-4.031,70.118A1.145,1.145,0,0,1,1141.777,1581.156Z" transform="translate(-1140.619 -1509.96)" fill="#95c0f4"/>
          </g>
          <g id="Group_361" data-name="Group 361" transform="translate(73.977 66.615)">
            <path id="Path_941" data-name="Path 941" d="M1388.334,1581.156h.1a1.058,1.058,0,0,0,1.057-1.084l-1.606-69.56-4.726-.552,4.032,70.118A1.145,1.145,0,0,0,1388.334,1581.156Z" transform="translate(-1383.16 -1509.96)" fill="#b0d4ff"/>
          </g>
          <path id="Path_942" data-name="Path 942" d="M1133.97,1348.423v-47.666a15.188,15.188,0,0,1,15.188-15.188H1183.5a15.188,15.188,0,0,1,15.188,15.188v49.488Z" transform="translate(-1133.97 -1285.57)" fill="#b0d4ff"/>
          <path id="Path_943" data-name="Path 943" d="M1204.839,1504.816H1138.53a4.561,4.561,0,0,1-4.56-4.56v-2.966h70.869Z" transform="translate(-1133.97 -1434.437)" fill="#95c0f4"/>
          <path id="Path_944" data-name="Path 944" d="M1272.648,1504.816h-50.165a3.372,3.372,0,0,1-3.373-3.372v-.781a3.372,3.372,0,0,1,3.373-3.373h50.165a3.372,3.372,0,0,1,3.372,3.373v.781A3.372,3.372,0,0,1,1272.648,1504.816Z" transform="translate(-1193.834 -1434.437)" fill="#b0d4ff"/>
        </g>
        <g id="Group_366" data-name="Group 366">
          <path id="Path_945" data-name="Path 945" d="M1305.6,1453.958c-4.919,8.562-11.109,11.869-11.109,11.869H1268.75S1309.359,1447.427,1305.6,1453.958Z" transform="translate(-1224.201 -1333.165)" fill="#233862"/>
          <g id="Group_363" data-name="Group 363">
            <path id="Path_946" data-name="Path 946" d="M1324.838,1629.86a2.377,2.377,0,0,0-.425,2.544.023.023,0,0,0,.006.012c.615,1.7,2.642,3.592,5,5.483.3.243.57.463.8.668.062.054.122.107.181.16s.092.086.14.125c2.2,2.025,1.372,2.491,5.317,6.6,4.5,4.685,7.6,4.768,8.482,4.34.745-.365-.769-2.847-2.449-5.641-.08-.134-.16-.27-.243-.407-.223-.371-.445-.748-.668-1.122-1.968-3.361-1.464-4.937-.995-9.936.38-4.064,6.32-22.7,6.32-22.7l-8.627-1.484s-2.6,14.841-5.46,17.126c-1.532,1.217-3.245,1.232-4.714,2.138-.1.062-.2.128-.306.193A11.521,11.521,0,0,0,1324.838,1629.86Z" transform="translate(-1263.207 -1442.814)" fill="#ffb27d"/>
            <path id="Path_947" data-name="Path 947" d="M1324.838,1675.479a2.377,2.377,0,0,0-.425,2.544.023.023,0,0,0,.006.012c.751,1.7,2.728,3.58,5.008,5.465q.445.37.793.686c.062.054.122.107.181.16s.092.086.14.125c2.2,2.025,1.372,2.491,5.317,6.6,4.5,4.685,7.6,4.768,8.482,4.34.745-.365-.769-2.847-2.449-5.641a19.181,19.181,0,0,1-8.024-5.914c-2.711-3.458-4.518-7.9-6.365-10.477-.1.062-.2.128-.306.193A11.7,11.7,0,0,0,1324.838,1675.479Z" transform="translate(-1263.207 -1488.433)" fill="#233862"/>
            <path id="Path_948" data-name="Path 948" d="M1544.246,1618.27c.531,2.663,4.328,2.218,8.568,1.181s3.233.2,9.268-.472,7.864-2.918,8.048-3.815c.166-.8-2.817-1.078-6.015-1.446-.4-.044-.807-.095-1.211-.146-3.61-.454-6.255-2.785-9.535-4.7-3.108-1.814-7.742-9.2-7.742-9.2l-8.277.656s4.343,6.6,6.024,9.464c.989,1.686.935,3.919.813,5.64A10.388,10.388,0,0,0,1544.246,1618.27Z" transform="translate(-1413.062 -1436.612)" fill="#ffb27d"/>
            <path id="Path_949" data-name="Path 949" d="M1568.857,1652.7c4.239-1.036,3.233.2,9.268-.472s7.864-2.918,8.048-3.815c.166-.8-2.817-1.078-6.015-1.446l-.03.062a17.024,17.024,0,0,1-8.642,2.687c-4.094.1-8.431-1.075-11.257-1.027a10.649,10.649,0,0,0,.062,2.832C1560.82,1654.184,1564.617,1653.739,1568.857,1652.7Z" transform="translate(-1429.104 -1469.863)" fill="#233862"/>
            <path id="Path_950" data-name="Path 950" d="M1386.493,1452.618l-7.736,20.82-10.1,27.181a16.4,16.4,0,0,1-5.367-.49,23.223,23.223,0,0,1-5.189-2.526s2.805-29.185,8.036-45.941c1.342-4.3,2.844-7.778,4.5-9.737C1378.75,1432.339,1386.493,1452.618,1386.493,1452.618Z" transform="translate(-1287.026 -1323.88)" fill="#233862"/>
            <path id="Path_951" data-name="Path 951" d="M1250.013,1362.826c-5.068-1.636-19.525.463-34.045,3.307l-3.04-5.014-31.367-2.449s-10.349,22.954-4.685,37.578a5.3,5.3,0,0,0,5.308,3.574h.457s18.667-.012,24.729-.012c15.6,0,33.012-10.723,35.265-11.174,3.687-.736,5.163,6.638,8.85,14.38s34.66,34.292,34.66,34.292,4.759.047,6.727-.689a6.634,6.634,0,0,0,2.889-1.823S1261.442,1366.513,1250.013,1362.826Z" transform="translate(-1158.41 -1267.151)" fill="#2b478b"/>
            <path id="Path_952" data-name="Path 952" d="M1172.228,1053.023c-4.017-2.111-10.132-2.4-11.127-2.529-11.887-1.6-19.038,15.675-19.46,20.909-.775,9.645-5.878,11.118-13.062,17.159-14.4,12.112-10.18,26.187-2.3,31.418,4.726,3.138,13.053,0,13.053,0,.119.083,22.776-12.667,33.947-18.816C1190.023,1098.783,1182.47,1058.4,1172.228,1053.023Z" transform="translate(-1118.948 -1050.39)" fill="#b5453c"/>
            <path id="Path_953" data-name="Path 953" d="M1233.971,1162.183c.051.033-5.495,1.924-9.2.282-3.488-1.541-6.13-7.279-6.08-7.282,1.588-.074,3.328-1.461,4.67-10.563l.677.243,11.361,4.088s-.822,3.646-1.357,7.116C1233.591,1158.98,1233.351,1161.77,1233.971,1162.183Z" transform="translate(-1189.001 -1116.646)" fill="#ffb27d"/>
            <path id="Path_954" data-name="Path 954" d="M1248.051,1149.528s-.822,3.646-1.357,7.116c-6.525-1.176-9.084-7.674-10-11.2Z" transform="translate(-1201.659 -1117.223)" fill="#ed975d"/>
            <path id="Path_955" data-name="Path 955" d="M1247.051,1106.636s-15.541-2.087-14.1-11.744.419-16.435,10.4-15.511,11.355,4.9,11.658,8.238S1251.133,1106.93,1247.051,1106.636Z" transform="translate(-1198.966 -1070.715)" fill="#ffb27d"/>
            <path id="Path_956" data-name="Path 956" d="M1243.887,1080.305s-9.948,8.573-16.717,9.265-9.331-1.481-9.331-1.481a26.419,26.419,0,0,0,6.389-8.657,4.756,4.756,0,0,1,3.922-2.805C1232.986,1076.212,1242.148,1076.022,1243.887,1080.305Z" transform="translate(-1188.404 -1068.695)" fill="#b5453c"/>
            <path id="Path_957" data-name="Path 957" d="M1284.63,1082.517s3.328,3.218,4.376,5.6c1.012,2.3,1.315,7.814.511,10,0,0,5.186-10.085,2.25-14.983C1288.653,1077.945,1284.63,1082.517,1284.63,1082.517Z" transform="translate(-1235.367 -1071.672)" fill="#b5453c"/>
            <path id="Path_958" data-name="Path 958" d="M1215.463,1209.234c-.469,31.462-.128,24.886-3.571,27.873-.828.719-3.162,1.146-6.228,1.351-9.648.641-26.606-.95-27.25-2.731-2.227-6.169-.653-8.087-2.511-17.53-.193-1-.433-2.09-.715-3.274-1.547-6.487-3.055-8.692,2.437-19.115,4.981-9.44,10.153-17.1,10.619-16.824,13.14,7.8,14.2,1.244,14.2,1.244S1215.695,1193.888,1215.463,1209.234Z" transform="translate(-1157.406 -1140.802)" fill="#f9ddbf"/>
            <path id="Path_959" data-name="Path 959" d="M1378.756,1502.6l-10.1,27.181a16.394,16.394,0,0,1-5.367-.49,23.213,23.213,0,0,1-5.189-2.526s2.805-29.186,8.036-45.941Z" transform="translate(-1287.026 -1353.038)" fill="#2b478b"/>
            <path id="Path_960" data-name="Path 960" d="M1270.4,1183.17s13.52,2.292,15.108,8.114,10.931,40.042,10.931,40.042-6.873,1.235-10.049-1.942-11.049-29.458-11.049-29.458Z" transform="translate(-1225.361 -1143.752)" fill="#f9ddbf"/>
            <path id="Path_961" data-name="Path 961" d="M1210.751,1300.322c-9.648.641-26.605-.95-27.25-2.731-2.227-6.169-.653-8.087-2.512-17.53l4.652-13.1s-.769,14.591,3.533,18.43,17.616,7.407,19.709,10.613A11.651,11.651,0,0,1,1210.751,1300.322Z" transform="translate(-1162.494 -1202.667)" fill="#f2ccaa"/>
            <path id="Path_962" data-name="Path 962" d="M1244.01,1355.181s9.518-2.12,11.052-1.274,5.29,3.922,5.759,4.99-3.42-.813-4.685-1.152c-.819-.22-2.975.528-4.043.885-4.492,1.5-7.244.727-7.244.727Z" transform="translate(-1206.805 -1263.662)" fill="#ffb27d"/>
            <path id="Path_963" data-name="Path 963" d="M1149.518,1178.97s-12.78.787-17.2,6.959c-6.228,8.686-18.581,45.7-11.5,50.64,7.974,5.56,36.289,1.455,36.289,1.455s.941-4.406-.368-6.534-22.616-5.572-23.6-6.555,12.29-19.175,12.29-22.126S1149.518,1178.97,1149.518,1178.97Z" transform="translate(-1118.687 -1140.798)" fill="#f9ddbf"/>
            <path id="Path_964" data-name="Path 964" d="M1282.79,1363.3a18.506,18.506,0,0,0,2.648,2.88,1.969,1.969,0,0,0,1.074.232l-1.345-2.42Z" transform="translate(-1234.073 -1270.406)" fill="#ffb27d"/>
            <path id="Path_965" data-name="Path 965" d="M1281.24,1354.37l5.8,2.814a1.034,1.034,0,0,1-.962.371,13.854,13.854,0,0,1-2.514-.692Z" transform="translate(-1232.983 -1264.127)" fill="#ffb27d"/>
          </g>
          <g id="Group_365" data-name="Group 365" transform="translate(37.205 65.403)">
            <g id="Group_364" data-name="Group 364">
              <path id="Path_966" data-name="Path 966" d="M1291.71,1305.009h45.864l13.8-34.309H1305.58Z" transform="translate(-1277.549 -1270.7)" fill="#f99746"/>
              <path id="Path_967" data-name="Path 967" d="M1304.574,1381.77H1244.01v1.336h60.024Z" transform="translate(-1244.01 -1348.797)" fill="#ed7d2b"/>
            </g>
            <path id="Path_968" data-name="Path 968" d="M1396.658,1323.315a1.589,1.589,0,0,0-1.559-2.185,3.122,3.122,0,0,0-2.808,2.185,1.59,1.59,0,0,0,1.558,2.185A3.129,3.129,0,0,0,1396.658,1323.315Z" transform="translate(-1348.209 -1306.159)" fill="#fff"/>
          </g>
        </g>
      </g>
      <g id="Group_370" data-name="Group 370" transform="translate(28.278 99.713)">
        <g id="Group_368" data-name="Group 368" transform="translate(161.569 4.993)">
          <path id="Path_969" data-name="Path 969" d="M1765.023,1506.968h.134a1.479,1.479,0,0,0,1.4-1.579l-2.123-101.494-6.252-.8,5.332,102.307A1.586,1.586,0,0,0,1765.023,1506.968Z" transform="translate(-1758.18 -1403.09)" fill="#233862"/>
        </g>
        <g id="Group_369" data-name="Group 369" transform="translate(8.915 4.993)">
          <path id="Path_970" data-name="Path 970" d="M1245.5,1506.968h-.134a1.477,1.477,0,0,1-1.4-1.579l2.123-101.494,6.252-.8-5.332,102.307A1.586,1.586,0,0,1,1245.5,1506.968Z" transform="translate(-1243.969 -1403.09)" fill="#233862"/>
        </g>
        <path id="Path_971" data-name="Path 971" d="M1392.617,1393.531H1216.469a2.53,2.53,0,0,1-2.529-2.529v-2.2a2.53,2.53,0,0,1,2.529-2.529h176.148a2.53,2.53,0,0,1,2.529,2.529v2.2A2.528,2.528,0,0,1,1392.617,1393.531Z" transform="translate(-1213.94 -1386.27)" fill="#233862"/>
      </g>
    </g>
    <path id="Path_972" data-name="Path 972" d="M1027.688,1749.492H195.139a1.124,1.124,0,0,1-1.119-1.119v-.864a1.124,1.124,0,0,1,1.119-1.119h832.546a1.124,1.124,0,0,1,1.119,1.119v.864A1.117,1.117,0,0,1,1027.688,1749.492Z" transform="translate(-176.722 -1297.08)" fill="#ebebeb" opacity="0.3"/>
    <g id="Group_372" data-name="Group 372" transform="translate(603.75 43.978)">
      <path id="Path_973" data-name="Path 973" d="M2244.09,420.824l34.386,5.445-22.63-15.939-1.238,4.979-8.4,1.392Z" transform="translate(-2221.938 -401.635)" fill="#9ec3f6"/>
      <path id="Path_974" data-name="Path 974" d="M2226.009,423.6l-28.452-15.226-28.087-1.841Z" transform="translate(-2169.47 -398.963)" fill="#fff"/>
      <path id="Path_975" data-name="Path 975" d="M2283.69,389.735l22.63,15.939-17.331-24.634Z" transform="translate(-2249.781 -381.04)" fill="#fff"/>
    </g>
    <g id="Group_373" data-name="Group 373" transform="translate(251.342 74.277)">
      <path id="Path_976" data-name="Path 976" d="M1027.161,531.068,982.39,543.935l27.437-24.875,2.464,6.409,11.388.466Z" transform="translate(-982.39 -508.385)" fill="#9ec3f6"/>
      <path id="Path_977" data-name="Path 977" d="M982.39,527.207l35.286-24.884,36.993-7.054Z" transform="translate(-982.39 -491.657)" fill="#ebf3fa"/>
      <path id="Path_978" data-name="Path 978" d="M1009.827,493.775,982.39,518.65l18.976-35.55Z" transform="translate(-982.39 -483.1)" fill="#ebf3fa"/>
    </g>
  </g>
</svg>
